<svg xmlns="http://www.w3.org/2000/svg" xmlns:xlink="http://www.w3.org/1999/xlink" width="2048" zoomAndPan="magnify" viewBox="0 0 1536 1535.999932" height="2048" preserveAspectRatio="xMidYMid meet" version="1.0"><defs><clipPath id="05b83298ed"><path d="M 77 104.414062 L 1031 104.414062 L 1031 1117 L 77 1117 Z M 77 104.414062 " clip-rule="nonzero"/></clipPath><clipPath id="750a48a19a"><path d="M 291 282 L 1294 282 L 1294 1431.914062 L 291 1431.914062 Z M 291 282 " clip-rule="nonzero"/></clipPath></defs><path fill="#7ed957" d="M 231.460938 688.191406 C 212.648438 705.894531 193.5625 723.875 175.300781 742.410156 C 171.984375 745.730469 171.984375 750.988281 175.300781 754.03125 C 176.960938 755.6875 179.175781 756.519531 181.113281 756.519531 C 183.324219 756.519531 185.539062 755.6875 186.921875 754.03125 C 204.902344 735.769531 223.714844 718.066406 242.523438 700.085938 C 259.125 684.316406 276 668.546875 292.320312 652.226562 C 298.128906 646.417969 303.9375 640.332031 309.75 634.246094 C 316.386719 636.734375 323.304688 638.117188 330.21875 638.117188 C 332.15625 638.117188 333.816406 638.117188 335.753906 637.84375 C 340.179688 637.289062 343.773438 633.414062 343.222656 628.714844 C 342.667969 624.285156 339.070312 621.242188 334.921875 621.242188 C 334.644531 621.242188 334.367188 621.242188 334.09375 621.242188 C 332.707031 621.519531 331.601562 621.519531 330.21875 621.519531 C 327.175781 621.519531 324.132812 621.242188 321.089844 620.414062 C 326.347656 613.222656 331.324219 605.199219 333.539062 595.792969 C 334.644531 590.8125 335.199219 585.558594 334.367188 580.023438 C 333.539062 574.492188 331.324219 568.960938 327.453125 564.535156 C 323.855469 560.382812 319.152344 557.339844 313.621094 555.679688 C 311.132812 554.851562 308.640625 554.574219 306.152344 554.574219 C 303.109375 554.574219 300.34375 555.128906 297.300781 555.957031 C 292.042969 557.617188 287.617188 560.660156 284.019531 564.535156 C 280.425781 568.40625 278.210938 573.109375 276.828125 577.8125 C 274.339844 586.109375 275.167969 595.238281 277.933594 602.984375 C 280.703125 610.730469 285.402344 617.648438 291.214844 623.179688 C 292.320312 624.011719 293.425781 625.117188 294.53125 625.945312 C 289.832031 630.925781 285.128906 635.628906 280.425781 640.609375 C 264.65625 656.652344 248.058594 672.421875 231.460938 688.191406 Z M 293.980469 597.730469 C 292.042969 592.75 291.765625 587.492188 293.148438 582.792969 C 293.980469 580.300781 295.085938 577.8125 296.746094 575.875 C 298.40625 573.9375 300.617188 572.554688 302.554688 572.003906 C 303.664062 571.726562 305.046875 571.449219 306.152344 571.449219 C 307.257812 571.449219 308.089844 571.449219 309.195312 571.726562 C 311.40625 572.277344 313.34375 573.664062 314.726562 575.320312 C 316.386719 577.257812 317.492188 579.75 317.769531 582.515625 C 318.324219 585.28125 318.046875 588.601562 317.21875 591.644531 C 315.28125 599.113281 310.855469 606.027344 305.320312 613.222656 C 304.492188 612.390625 303.386719 611.839844 302.554688 611.007812 C 298.960938 607.136719 295.917969 602.710938 293.980469 597.730469 Z M 293.980469 597.730469 " fill-opacity="1" fill-rule="nonzero"/><path fill="#7ed957" d="M 327.175781 895.390625 C 315.835938 884.601562 301.449219 876.855469 286.234375 872.984375 C 285.679688 872.707031 284.851562 872.707031 284.296875 872.707031 C 280.703125 872.707031 277.105469 875.195312 276.273438 879.070312 C 275.167969 883.496094 277.933594 887.921875 282.359375 889.027344 C 294.808594 892.070312 306.429688 898.433594 316.109375 907.285156 C 325.792969 916.414062 333.261719 928.035156 337.136719 941.035156 C 338.242188 944.355469 341.285156 946.84375 344.882812 946.84375 C 344.882812 946.84375 345.15625 946.84375 345.15625 946.84375 C 348.476562 946.84375 351.796875 944.632812 352.902344 941.589844 C 357.605469 929.140625 359.265625 915.863281 358.4375 903.136719 C 358.160156 897.605469 357.328125 892.070312 356.5 887.09375 C 355.667969 881.835938 355.117188 877.132812 354.839844 872.429688 C 354.839844 871.046875 354.839844 869.664062 354.839844 868.28125 C 354.839844 864.132812 355.394531 860.257812 356.777344 857.214844 C 358.160156 854.171875 360.097656 851.957031 362.585938 851.128906 C 363.691406 850.574219 364.800781 850.300781 365.90625 850.300781 C 366.457031 850.300781 366.734375 850.300781 367.289062 850.574219 C 368.671875 850.851562 370.054688 851.683594 370.886719 852.511719 C 371.714844 853.617188 372.269531 854.726562 372.269531 856.109375 C 372.269531 857.492188 371.714844 858.875 370.886719 859.703125 C 368.117188 863.300781 368.394531 868.558594 371.992188 871.324219 C 373.652344 872.707031 375.3125 873.261719 377.246094 873.261719 C 379.738281 873.261719 381.949219 872.152344 383.609375 870.21875 C 386.929688 866.066406 388.589844 861.089844 388.589844 855.832031 C 388.589844 850.574219 386.652344 845.597656 383.058594 841.722656 C 379.738281 837.851562 375.035156 835.085938 370.054688 834.253906 C 368.671875 833.976562 367.011719 833.699219 365.628906 833.699219 C 362.03125 833.699219 358.710938 834.53125 355.667969 835.914062 C 349.03125 838.957031 344.328125 844.488281 341.5625 850.300781 C 338.796875 856.109375 337.964844 862.472656 337.964844 868.003906 C 337.964844 869.941406 337.964844 871.601562 338.242188 873.261719 C 338.519531 878.792969 339.347656 884.324219 340.179688 889.304688 C 341.007812 894.5625 341.5625 899.265625 341.839844 903.964844 C 341.839844 907.007812 342.113281 909.777344 341.839844 912.542969 C 337.6875 906.457031 332.707031 900.371094 327.175781 895.390625 Z M 327.175781 895.390625 " fill-opacity="1" fill-rule="nonzero"/><g clip-path="url(#05b83298ed)"><path fill="#7ed957" d="M 378.078125 1030.667969 L 378.628906 1030.113281 C 409.335938 997.46875 438.109375 967.039062 474.347656 949.058594 C 492.328125 940.207031 512.246094 934.121094 532.71875 930.523438 C 535.761719 929.96875 538.804688 929.417969 541.847656 929.140625 C 550.699219 928.035156 559.828125 926.925781 569.234375 926.097656 C 578.640625 925.265625 588.320312 924.160156 598.003906 923.054688 C 609.898438 921.394531 622.347656 918.90625 634.796875 914.753906 C 647.246094 910.328125 659.417969 903.691406 669.929688 894.285156 C 685.144531 880.453125 695.933594 860.535156 696.761719 838.957031 C 697.59375 817.933594 689.292969 796.632812 673.800781 782.246094 L 636.734375 736.878906 C 637.285156 736.324219 637.839844 735.769531 638.394531 734.941406 C 641.4375 731.070312 642.542969 726.089844 641.710938 721.386719 L 862.191406 877.132812 L 884.324219 1064.691406 C 885.429688 1073.269531 892.621094 1079.628906 901.199219 1079.628906 C 901.75 1079.628906 902.582031 1079.628906 903.132812 1079.628906 C 912.261719 1078.523438 918.902344 1070.226562 917.796875 1060.820312 L 898.15625 894.5625 C 905.898438 896.496094 913.921875 897.328125 921.667969 897.605469 C 921.945312 897.605469 921.945312 897.605469 922.222656 897.605469 C 940.480469 897.605469 958.460938 892.625 973.953125 883.21875 C 1000.234375 867.449219 1018.492188 839.234375 1022.085938 808.527344 C 1022.363281 807.144531 1022.363281 806.035156 1022.085938 804.652344 L 1011.851562 709.492188 L 1026.789062 699.53125 C 1030.664062 697.042969 1031.492188 691.785156 1029.003906 687.914062 C 1027.34375 685.421875 1024.855469 684.316406 1022.085938 684.316406 C 1020.429688 684.316406 1018.769531 684.871094 1017.386719 685.699219 L 1009.914062 690.679688 L 960.398438 228.695312 L 964.269531 234.230469 C 967.589844 238.65625 972.847656 241.144531 978.101562 241.144531 C 981.421875 241.144531 985.019531 240.039062 988.0625 237.824219 C 995.53125 232.292969 997.46875 221.78125 991.933594 214.3125 L 950.4375 157.046875 C 947.117188 152.621094 942.140625 150.132812 936.605469 150.132812 C 934.671875 150.132812 932.457031 150.40625 930.519531 151.238281 C 923.328125 154.003906 918.902344 161.195312 919.730469 168.941406 L 978.65625 711.703125 L 906.175781 760.667969 C 902.304688 763.160156 901.472656 768.414062 903.964844 772.289062 C 905.625 774.777344 908.113281 775.882812 910.878906 775.882812 C 912.539062 775.882812 914.199219 775.332031 915.582031 774.5 L 980.867188 730.515625 L 988.890625 806.035156 C 986.125 825.402344 973.953125 843.660156 957.078125 853.894531 C 946.84375 859.980469 934.671875 863.300781 922.773438 863.300781 C 922.773438 863.300781 922.5 863.300781 922.5 863.300781 C 912.816406 863.300781 903.132812 861.085938 894.28125 856.9375 L 845.871094 445.027344 L 860.808594 471.582031 C 863.851562 477.117188 869.660156 480.160156 875.46875 480.160156 C 878.238281 480.160156 881.003906 479.328125 883.769531 477.945312 C 891.792969 473.242188 894.835938 463.007812 890.132812 454.984375 L 833.699219 355.671875 C 830.65625 350.140625 824.84375 347.097656 819.035156 347.097656 C 817.375 347.097656 815.441406 347.375 813.78125 347.925781 C 806.035156 350.417969 801.332031 357.886719 802.160156 365.90625 L 856.933594 832.039062 L 525.523438 598.28125 C 533.269531 594.410156 541.015625 591.367188 549.039062 588.601562 C 570.617188 581.132812 593.300781 576.980469 615.984375 576.980469 C 625.113281 576.980469 634.242188 577.535156 643.371094 578.917969 C 653.332031 580.300781 663.289062 582.792969 672.972656 585.835938 C 692.058594 591.921875 710.042969 601.050781 726.085938 612.667969 C 727.46875 613.773438 728.851562 614.882812 730.511719 615.988281 C 733.554688 618.199219 736.875 619.308594 740.472656 619.308594 C 745.726562 619.308594 750.707031 617.09375 754.027344 612.390625 C 759.558594 604.921875 758.175781 594.410156 750.707031 588.878906 C 749.324219 587.769531 747.664062 586.664062 746.28125 585.558594 C 713.359375 560.382812 685.972656 528.015625 666.609375 491.5 C 638.117188 437.28125 627.601562 373.652344 637.285156 313.070312 C 638.667969 303.941406 632.582031 295.089844 623.175781 293.707031 C 622.347656 293.429688 621.515625 293.429688 620.410156 293.429688 C 612.386719 293.429688 605.195312 299.238281 603.8125 307.539062 C 593.023438 375.3125 604.644531 446.410156 636.734375 506.992188 C 644.203125 521.378906 652.777344 534.933594 662.460938 547.933594 C 657.757812 546.828125 653.054688 546 648.351562 545.445312 C 637.5625 543.785156 627.050781 543.230469 616.261719 543.230469 C 589.703125 543.230469 563.148438 547.933594 537.972656 556.789062 C 523.035156 562.042969 508.371094 568.683594 494.816406 576.707031 L 252.484375 405.742188 C 243.910156 396.0625 240.035156 381.953125 242.523438 369.226562 C 243.910156 361.757812 247.503906 354.84375 252.484375 349.035156 C 257.464844 343.222656 264.101562 339.074219 271.296875 336.585938 C 271.570312 336.585938 271.847656 336.308594 271.847656 336.308594 L 790.265625 138.511719 C 791.925781 138.234375 793.585938 138.234375 795.246094 138.234375 C 802.714844 138.234375 810.460938 140.171875 816.824219 143.769531 C 817.652344 144.046875 818.207031 144.597656 819.035156 144.875 C 827.886719 150.40625 834.804688 159.535156 837.847656 169.496094 C 840.613281 179.179688 840.335938 189.691406 836.464844 199.097656 L 795.796875 251.378906 C 789.988281 258.851562 791.371094 269.363281 798.839844 275.171875 C 801.882812 277.660156 805.480469 278.765625 809.355469 278.765625 C 814.332031 278.765625 819.3125 276.554688 822.632812 272.128906 L 864.679688 217.90625 C 865.511719 216.800781 866.0625 215.695312 866.617188 214.585938 C 874.363281 197.4375 875.746094 177.796875 870.214844 159.8125 C 864.679688 141.832031 852.785156 126.339844 837.015625 116.382812 C 835.910156 115.550781 834.527344 115 833.144531 114.167969 C 821.527344 107.804688 808.246094 104.488281 794.96875 104.488281 C 791.09375 104.488281 787.222656 104.761719 783.351562 105.316406 C 782.242188 105.59375 781.136719 105.871094 780.03125 106.144531 L 259.953125 304.496094 C 247.226562 308.921875 235.886719 316.390625 227.035156 326.347656 C 218.179688 336.585938 212.09375 349.035156 209.328125 362.3125 C 204.625 386.378906 212.09375 412.105469 228.96875 429.8125 C 229.800781 430.640625 230.628906 431.195312 231.460938 432.023438 L 464.664062 596.347656 C 456.363281 602.433594 448.34375 609.070312 440.875 615.710938 C 412.65625 640.609375 388.867188 669.65625 366.179688 697.59375 C 341.835938 727.472656 318.324219 755.414062 289.554688 776.714844 C 263.824219 795.800781 233.671875 807.972656 204.074219 807.972656 C 201.03125 807.972656 197.710938 807.695312 194.667969 807.421875 C 187.472656 806.867188 180.003906 805.207031 173.089844 802.992188 C 161.746094 799.398438 151.234375 793.863281 142.105469 786.394531 C 127.445312 774.5 116.933594 757.625 113.058594 739.367188 C 108.910156 721.109375 111.398438 701.46875 119.976562 685.148438 C 128.550781 668.824219 142.9375 655.269531 160.085938 648.355469 C 168.664062 644.757812 172.8125 634.800781 169.214844 626.222656 C 166.449219 619.859375 160.085938 615.710938 153.449219 615.710938 C 151.234375 615.710938 149.023438 616.265625 147.085938 617.09375 C 122.742188 627.328125 101.992188 646.140625 90.097656 669.933594 C 77.375 693.167969 74.054688 720.832031 79.863281 746.558594 C 85.671875 772.289062 100.335938 795.523438 120.527344 812.125 C 132.976562 822.359375 147.363281 829.828125 162.578125 834.808594 C 171.984375 837.851562 181.664062 839.785156 191.347656 840.617188 C 195.496094 840.894531 199.648438 841.171875 204.074219 841.171875 C 242.800781 841.171875 279.871094 825.125 309.75 803.269531 C 342.390625 779.203125 368.394531 747.667969 392.460938 718.34375 C 415.421875 690.402344 437.832031 663.292969 463.558594 640.332031 C 473.242188 631.757812 483.476562 623.457031 494.265625 616.265625 L 563.425781 665.230469 C 561.488281 666.058594 559.550781 667.164062 557.890625 668.824219 C 551.804688 674.910156 551.527344 684.59375 556.785156 691.234375 L 648.90625 803.824219 C 649.457031 804.378906 650.011719 804.929688 650.566406 805.484375 C 659.140625 813.230469 664.121094 825.125 663.566406 836.742188 C 663.011719 848.363281 657.203125 859.980469 647.796875 868.558594 C 641.4375 874.367188 633.136719 879.070312 624.007812 882.113281 C 614.878906 885.433594 604.644531 887.367188 593.855469 888.75 C 585 889.859375 575.871094 890.964844 566.46875 891.792969 C 557.0625 892.625 547.378906 893.730469 537.695312 894.835938 C 534.378906 895.390625 530.78125 895.945312 527.460938 896.496094 C 504.222656 900.371094 481.261719 907.285156 459.683594 917.796875 C 417.082031 938.824219 384.164062 974.230469 354.285156 1005.769531 L 353.734375 1006.320312 C 328.835938 1032.601562 304.214844 1056.671875 274.617188 1070.503906 C 259.953125 1077.417969 244.183594 1081.566406 228.695312 1082.398438 C 227.308594 1082.398438 225.925781 1082.398438 224.542969 1082.398438 C 210.4375 1082.398438 196.328125 1079.355469 183.878906 1073.546875 C 164.238281 1064.140625 148.191406 1046.710938 140.722656 1026.238281 C 133.253906 1005.769531 133.808594 981.976562 142.382812 961.507812 C 150.683594 942.140625 165.621094 925.542969 184.433594 915.863281 C 192.730469 911.4375 195.773438 901.199219 191.625 893.179688 C 188.582031 887.367188 182.773438 884.046875 176.6875 884.046875 C 173.917969 884.046875 171.429688 884.601562 168.941406 885.984375 C 143.488281 899.539062 122.742188 921.949219 111.675781 948.503906 C 99.78125 976.445312 98.675781 1009.089844 109.1875 1037.859375 C 119.699219 1066.628906 141.828125 1090.972656 169.492188 1104.25 C 186.921875 1112.550781 205.734375 1116.421875 224.542969 1116.421875 C 226.480469 1116.421875 228.417969 1116.421875 230.351562 1116.421875 C 251.101562 1115.59375 271.019531 1110.0625 289.277344 1101.484375 C 324.964844 1085.441406 353.179688 1056.945312 378.078125 1030.667969 Z M 378.078125 1030.667969 " fill-opacity="1" fill-rule="nonzero"/></g><path fill="#7ed957" d="M 1041.730469 608.796875 C 1037.578125 610.730469 1035.644531 615.433594 1037.304688 619.582031 C 1038.6875 622.628906 1041.730469 624.5625 1045.046875 624.5625 C 1046.15625 624.5625 1047.261719 624.285156 1048.367188 624.011719 C 1065.519531 616.816406 1081.566406 607.136719 1096.503906 595.792969 L 1111.164062 699.53125 C 1112.269531 707.832031 1119.464844 713.917969 1127.761719 713.917969 C 1128.59375 713.917969 1129.421875 713.917969 1130.253906 713.640625 C 1139.382812 712.257812 1146.019531 703.679688 1144.636719 694.550781 L 1126.65625 567.300781 C 1128.871094 564.808594 1130.804688 562.320312 1132.742188 559.832031 C 1143.53125 546.273438 1152.9375 531.613281 1160.128906 515.84375 C 1161.511719 516.675781 1162.621094 517.226562 1164.003906 518.058594 C 1165.386719 518.886719 1166.492188 519.164062 1167.875 519.164062 C 1170.917969 519.164062 1173.683594 517.503906 1175.066406 514.738281 C 1177.28125 510.589844 1175.898438 505.609375 1171.75 503.398438 C 1169.8125 502.566406 1168.152344 501.460938 1166.492188 500.351562 C 1170.640625 489.011719 1173.960938 477.394531 1176.449219 465.773438 C 1176.449219 464.945312 1176.726562 464.390625 1176.449219 463.5625 C 1176.175781 459.132812 1174.515625 454.707031 1171.75 451.113281 C 1168.980469 447.515625 1165.386719 444.75 1161.234375 443.367188 C 1158.746094 442.535156 1155.980469 441.984375 1153.488281 441.984375 C 1152.9375 441.984375 1152.105469 441.984375 1151.554688 441.984375 C 1150.445312 441.984375 1149.339844 442.257812 1148.234375 442.535156 C 1144.085938 443.367188 1140.210938 445.578125 1136.890625 448.621094 C 1131.914062 453.046875 1129.421875 459.410156 1128.59375 465.496094 C 1127.761719 471.582031 1128.871094 477.394531 1130.804688 482.648438 C 1133.847656 490.949219 1138.828125 497.863281 1144.636719 503.671875 C 1145.191406 504.226562 1145.746094 504.78125 1146.574219 505.609375 C 1140.488281 519.441406 1132.464844 532.71875 1123.335938 544.890625 L 1082.394531 257.191406 L 1096.226562 278.492188 C 1099.546875 283.46875 1104.800781 286.238281 1110.335938 286.238281 C 1113.378906 286.238281 1116.699219 285.40625 1119.464844 283.46875 C 1127.210938 278.214844 1129.421875 267.980469 1124.441406 259.957031 L 1068.839844 174.476562 C 1065.796875 169.496094 1060.261719 166.730469 1054.730469 166.730469 C 1052.792969 166.730469 1050.859375 167.007812 1048.921875 167.835938 C 1041.453125 170.601562 1037.027344 178.347656 1038.132812 186.09375 L 1093.738281 576.429688 C 1078.246094 589.984375 1060.539062 601.050781 1041.730469 608.796875 Z M 1145.46875 468.261719 C 1145.746094 465.496094 1147.128906 463.007812 1148.511719 461.347656 C 1149.617188 460.242188 1150.722656 459.6875 1152.105469 459.410156 C 1152.382812 459.410156 1152.660156 459.132812 1153.214844 459.132812 C 1153.488281 459.132812 1153.488281 459.132812 1153.765625 459.132812 C 1154.597656 459.132812 1155.148438 459.410156 1155.980469 459.410156 C 1157.085938 459.6875 1158.191406 460.519531 1159.023438 461.625 C 1159.578125 462.453125 1159.851562 463.285156 1160.128906 464.113281 C 1158.46875 472.414062 1156.257812 480.710938 1153.488281 488.734375 C 1150.722656 485.136719 1148.234375 481.265625 1146.851562 477.394531 C 1145.46875 474.351562 1144.914062 471.03125 1145.46875 468.261719 Z M 1145.46875 468.261719 " fill-opacity="1" fill-rule="nonzero"/><path fill="#7ed957" d="M 1158.46875 754.859375 C 1157.363281 754.582031 1156.257812 754.582031 1155.148438 754.582031 C 1152.382812 754.582031 1149.894531 755.136719 1147.679688 756.242188 C 1144.636719 757.625 1141.871094 760.390625 1139.933594 764.265625 L 1131.914062 778.648438 C 1131.636719 778.925781 1131.082031 780.308594 1129.976562 782.523438 C 1129.421875 784.183594 1129.144531 786.121094 1128.871094 788.054688 C 1128.871094 792.207031 1129.699219 795.523438 1131.359375 798.015625 C 1131.914062 799.121094 1133.019531 800.503906 1134.957031 802.71875 C 1136.0625 803.824219 1137.445312 804.652344 1138.828125 805.484375 L 1152.660156 817.378906 C 1155.980469 819.867188 1159.574219 820.976562 1163.449219 820.976562 C 1164.554688 820.976562 1165.660156 820.976562 1166.492188 820.699219 C 1171.195312 820.144531 1175.066406 817.378906 1178.664062 812.953125 L 1186.964844 793.589844 C 1187.515625 791.929688 1188.070312 789.992188 1188.347656 788.332031 C 1188.898438 783.078125 1187.515625 778.097656 1183.921875 773.394531 C 1182.261719 771.457031 1180.878906 770.351562 1180.601562 770.074219 C 1179.769531 769.519531 1178.941406 768.691406 1177.835938 768.136719 L 1164.832031 757.625 C 1162.894531 756.242188 1160.683594 755.414062 1158.46875 754.859375 Z M 1158.46875 754.859375 " fill-opacity="1" fill-rule="nonzero"/><path fill="#7ed957" d="M 429.808594 836.742188 L 443.640625 848.640625 C 445.023438 849.746094 447.238281 850.851562 450.554688 851.957031 C 451.9375 852.234375 453.324219 852.234375 454.707031 852.234375 C 455.8125 852.234375 456.917969 852.234375 458.300781 851.957031 C 458.855469 851.957031 460.238281 851.40625 462.726562 850.574219 C 463.558594 850.023438 464.664062 849.46875 465.21875 848.914062 C 466.878906 847.808594 468.539062 846.148438 469.921875 844.214844 L 478.21875 824.847656 C 478.773438 823.1875 479.328125 821.804688 479.328125 820.699219 C 480.15625 815.167969 479.050781 809.910156 475.730469 805.484375 C 474.898438 804.378906 473.792969 803.269531 472.132812 801.886719 C 471.304688 801.335938 470.472656 800.503906 468.8125 799.675781 L 455.8125 789.164062 C 454.152344 788.054688 452.214844 787.226562 450.28125 786.671875 C 448.894531 786.394531 447.511719 786.394531 446.40625 786.394531 C 445.851562 786.394531 445.578125 786.394531 445.023438 786.394531 C 443.363281 786.394531 441.703125 786.949219 440.320312 787.503906 L 438.109375 788.609375 C 435.339844 790.269531 433.128906 792.757812 431.191406 796.078125 L 423.167969 810.464844 C 421.785156 812.675781 420.679688 815.996094 420.402344 820.144531 C 420.402344 823.742188 421.234375 827.0625 422.890625 830.105469 C 423.722656 831.488281 424.828125 832.871094 426.765625 834.808594 C 427.042969 834.808594 428.148438 835.636719 429.808594 836.742188 Z M 429.808594 836.742188 " fill-opacity="1" fill-rule="nonzero"/><path fill="#7ed957" d="M 866.339844 284.851562 C 866.066406 287.898438 867.171875 290.664062 869.382812 292.324219 C 863.296875 300.621094 859.148438 310.855469 858.320312 321.644531 C 857.765625 327.457031 858.59375 333.816406 860.808594 339.628906 C 863.023438 345.4375 867.171875 350.96875 872.980469 354.566406 C 877.128906 357.054688 881.554688 358.714844 886.535156 358.992188 C 887.089844 358.992188 887.917969 358.992188 888.472656 358.992188 C 889.027344 358.992188 889.300781 358.992188 889.855469 358.992188 C 893.453125 358.714844 897.046875 357.886719 900.367188 356.503906 C 908.941406 352.628906 915.027344 344.882812 917.796875 336.585938 C 920.007812 329.667969 920.285156 322.476562 918.625 315.558594 C 917.242188 308.644531 914.199219 302.558594 910.050781 297.027344 C 901.75 286.238281 889.023438 279.320312 875.746094 277.660156 C 875.46875 277.660156 874.917969 277.660156 874.640625 277.660156 C 870.492188 277.382812 866.894531 280.703125 866.339844 284.851562 Z M 874.917969 322.753906 C 875.46875 315.285156 878.511719 308.089844 883.214844 301.726562 C 884.046875 300.34375 884.597656 298.960938 884.875 297.578125 C 889.578125 299.792969 893.726562 303.113281 896.769531 307.261719 C 899.539062 310.855469 901.472656 315.007812 902.304688 319.15625 C 903.132812 323.304688 903.132812 327.730469 901.75 331.605469 C 900.367188 336.03125 897.046875 339.902344 893.453125 341.5625 C 892.070312 342.117188 890.410156 342.671875 888.75 342.671875 C 888.472656 342.671875 888.472656 342.671875 888.195312 342.671875 C 887.917969 342.671875 887.640625 342.671875 887.367188 342.671875 C 885.429688 342.671875 883.492188 341.839844 881.554688 340.734375 C 879.066406 339.351562 877.128906 336.585938 876.023438 333.542969 C 874.917969 330.222656 874.640625 326.625 874.917969 322.753906 Z M 874.917969 322.753906 " fill-opacity="1" fill-rule="nonzero"/><path fill="#7ed957" d="M 1106.183594 779.757812 C 1104.527344 777.820312 1103.417969 776.992188 1103.140625 776.714844 C 1102.035156 775.882812 1100.929688 775.332031 1100.097656 774.5 L 1087.097656 763.988281 C 1084.882812 762.605469 1082.671875 761.773438 1080.734375 761.5 C 1079.628906 761.222656 1078.523438 761.222656 1077.414062 761.222656 C 1074.371094 761.222656 1071.605469 762.050781 1069.117188 763.433594 C 1066.347656 764.816406 1064.136719 767.308594 1062.476562 770.902344 L 1054.453125 785.289062 C 1051.132812 791.652344 1050.582031 797.738281 1053.625 803.824219 C 1054.453125 805.484375 1055.835938 807.421875 1057.773438 809.355469 C 1058.605469 810.1875 1059.988281 811.015625 1061.371094 812.125 L 1075.203125 824.019531 C 1077.136719 825.402344 1079.074219 826.230469 1081.011719 826.785156 C 1081.839844 827.339844 1083.5 827.339844 1085.4375 827.339844 C 1086.542969 827.339844 1087.652344 827.339844 1089.308594 827.0625 C 1089.863281 827.0625 1091.523438 826.507812 1093.738281 825.679688 C 1094.566406 825.125 1095.671875 824.847656 1096.503906 824.019531 C 1098.164062 822.636719 1099.824219 821.253906 1101.484375 819.039062 L 1109.78125 799.675781 C 1110.335938 798.015625 1110.886719 796.632812 1111.164062 794.972656 C 1111.441406 791.929688 1111.441406 789.4375 1110.886719 787.503906 C 1110.058594 784.734375 1109.503906 783.078125 1108.953125 782.523438 C 1107.570312 781.691406 1107.015625 780.585938 1106.183594 779.757812 Z M 1106.183594 779.757812 " fill-opacity="1" fill-rule="nonzero"/><path fill="#7ed957" d="M 683.207031 1111.167969 C 687.355469 1113.65625 691.785156 1115.316406 696.761719 1115.59375 C 697.316406 1115.59375 698.144531 1115.59375 698.699219 1115.59375 C 699.253906 1115.59375 699.53125 1115.59375 700.082031 1115.59375 C 703.679688 1115.316406 707.273438 1114.488281 710.59375 1113.105469 C 719.171875 1109.230469 725.257812 1101.484375 728.023438 1093.1875 C 730.234375 1086.269531 730.511719 1078.800781 728.851562 1072.160156 C 727.46875 1065.246094 724.425781 1059.160156 720.277344 1053.628906 C 711.976562 1042.839844 699.253906 1035.921875 685.972656 1034.261719 C 685.699219 1034.261719 685.421875 1034.261719 684.867188 1034.261719 C 680.71875 1034.261719 677.121094 1037.304688 676.570312 1041.730469 C 676.292969 1044.496094 677.398438 1047.542969 679.613281 1049.199219 C 673.527344 1057.5 669.375 1067.734375 668.546875 1078.523438 C 667.992188 1084.332031 668.824219 1090.695312 671.035156 1096.503906 C 673.25 1102.039062 677.398438 1107.570312 683.207031 1111.167969 Z M 685.144531 1079.355469 C 685.699219 1071.886719 688.742188 1064.691406 693.441406 1058.328125 C 694.273438 1056.945312 694.828125 1055.5625 695.101562 1053.902344 C 699.804688 1056.117188 703.957031 1059.4375 707 1063.585938 C 709.765625 1067.183594 711.703125 1071.332031 712.53125 1075.480469 C 713.359375 1079.628906 713.359375 1084.058594 711.976562 1087.929688 C 710.59375 1092.355469 707.273438 1096.230469 703.679688 1097.890625 C 702.296875 1098.441406 700.636719 1098.996094 698.976562 1098.996094 C 698.699219 1098.996094 698.699219 1098.996094 698.421875 1098.996094 C 698.144531 1098.996094 697.871094 1098.996094 697.59375 1098.996094 C 695.65625 1098.996094 693.71875 1098.164062 691.785156 1097.058594 C 689.292969 1095.675781 687.355469 1092.910156 686.25 1089.867188 C 685.144531 1086.824219 684.867188 1083.226562 685.144531 1079.355469 Z M 685.144531 1079.355469 " fill-opacity="1" fill-rule="nonzero"/><g clip-path="url(#750a48a19a)"><path fill="#7ed957" d="M 1290.980469 1076.863281 L 1217.394531 358.714844 L 1220.4375 362.863281 C 1223.757812 367.292969 1228.734375 369.78125 1233.992188 369.78125 C 1237.585938 369.78125 1240.90625 368.675781 1243.949219 366.460938 C 1251.417969 360.929688 1253.078125 350.417969 1247.546875 342.945312 L 1207.710938 289.28125 C 1204.390625 284.851562 1199.410156 282.363281 1194.15625 282.363281 C 1192.21875 282.363281 1190.007812 282.640625 1188.070312 283.46875 C 1180.878906 286.238281 1176.726562 293.429688 1177.28125 300.898438 L 1257.503906 1081.289062 C 1257.503906 1082.121094 1257.78125 1082.949219 1258.058594 1084.058594 C 1263.039062 1102.59375 1258.613281 1123.617188 1246.992188 1138.832031 C 1235.097656 1154.046875 1215.734375 1163.453125 1196.09375 1164.003906 C 1195.261719 1164.003906 1194.710938 1164.003906 1194.15625 1164.003906 C 1181.984375 1164.003906 1169.535156 1160.960938 1158.191406 1155.152344 C 1158.46875 1153.492188 1159.023438 1151.832031 1159.300781 1150.171875 C 1169.535156 1106.1875 1168.429688 1060.820312 1163.171875 1017.386719 L 1163.171875 1017.109375 C 1160.683594 997.191406 1158.191406 976.722656 1154.320312 956.25 C 1151.832031 942.695312 1147.957031 926.652344 1138.273438 912.542969 C 1133.296875 905.351562 1126.933594 898.710938 1119.1875 893.730469 C 1111.164062 888.75 1101.757812 885.707031 1092.078125 885.433594 C 1091.523438 885.433594 1090.96875 885.433594 1090.417969 885.433594 C 1082.394531 885.433594 1074.371094 887.367188 1067.179688 890.6875 C 1059.433594 894.285156 1053.070312 899.816406 1047.816406 906.179688 C 1037.578125 918.628906 1033.429688 934.121094 1032.324219 947.953125 C 1030.941406 964.550781 1033.707031 980.871094 1037.027344 995.257812 C 1040.347656 1009.640625 1044.496094 1023.75 1048.644531 1037.582031 C 1056.945312 1064.691406 1065.796875 1093.460938 1080.179688 1120.019531 C 1089.863281 1138 1102.589844 1155.152344 1118.910156 1168.984375 C 1108.675781 1197.753906 1093.183594 1224.867188 1074.09375 1248.933594 C 1053.347656 1274.9375 1028.449219 1297.621094 1001.0625 1317.261719 C 1004.105469 1306.75 1005.214844 1295.683594 1004.660156 1284.894531 C 1004.382812 1279.363281 1003.554688 1273.828125 1002.722656 1268.851562 C 1001.894531 1263.59375 1001.339844 1258.890625 1001.0625 1254.1875 C 1001.0625 1252.804688 1000.785156 1251.421875 1001.0625 1250.039062 C 1001.0625 1245.890625 1001.617188 1242.292969 1003 1239.25 C 1004.382812 1236.207031 1006.597656 1233.996094 1008.808594 1233.164062 C 1009.914062 1232.609375 1011.023438 1232.335938 1012.128906 1232.335938 C 1012.683594 1232.335938 1012.957031 1232.335938 1013.511719 1232.609375 C 1014.894531 1232.886719 1016.277344 1233.71875 1017.109375 1234.546875 C 1017.9375 1235.652344 1018.492188 1236.761719 1018.492188 1238.144531 C 1018.492188 1239.527344 1017.9375 1240.632812 1017.386719 1241.738281 C 1014.34375 1245.335938 1014.894531 1250.59375 1018.492188 1253.359375 C 1019.875 1254.742188 1021.8125 1255.296875 1023.746094 1255.296875 C 1026.238281 1255.296875 1028.449219 1254.1875 1030.109375 1252.253906 C 1033.429688 1248.101562 1035.089844 1243.125 1035.089844 1237.867188 C 1035.089844 1232.609375 1033.152344 1227.632812 1029.558594 1223.757812 C 1026.238281 1219.886719 1021.535156 1217.121094 1016.554688 1216.289062 C 1015.171875 1216.011719 1013.511719 1215.734375 1012.128906 1215.734375 C 1008.53125 1215.734375 1005.210938 1216.566406 1002.167969 1217.949219 C 995.53125 1220.992188 990.828125 1226.523438 988.0625 1232.335938 C 985.296875 1238.144531 984.464844 1244.507812 984.464844 1250.039062 C 984.464844 1251.976562 984.464844 1253.636719 984.742188 1255.296875 C 985.019531 1260.828125 985.847656 1266.359375 986.679688 1271.339844 C 987.507812 1276.597656 988.0625 1281.300781 988.339844 1286 C 988.339844 1288.769531 988.339844 1291.8125 988.339844 1294.578125 C 984.1875 1288.214844 979.210938 1282.40625 973.675781 1277.148438 C 962.335938 1266.359375 947.949219 1258.613281 932.734375 1254.742188 C 931.902344 1254.464844 931.351562 1254.464844 930.796875 1254.464844 C 926.925781 1254.464844 923.605469 1256.953125 922.773438 1260.828125 C 921.667969 1265.253906 924.433594 1269.679688 928.859375 1270.785156 C 941.308594 1273.828125 953.207031 1280.191406 962.609375 1289.042969 C 972.292969 1298.175781 979.761719 1309.792969 983.636719 1322.792969 C 984.1875 1324.453125 985.296875 1326.113281 986.679688 1326.945312 C 954.589844 1347.414062 919.457031 1363.738281 882.941406 1375.632812 C 840.890625 1389.464844 796.628906 1397.488281 752.921875 1397.488281 C 719.445312 1397.488281 686.527344 1392.507812 655.265625 1381.441406 C 615.984375 1367.609375 581.128906 1342.710938 560.382812 1308.960938 C 555.125 1300.664062 550.976562 1291.8125 547.933594 1282.683594 L 777.539062 1167.878906 C 777.539062 1167.878906 777.816406 1167.878906 777.816406 1167.601562 C 801.886719 1155.152344 820.417969 1133.023438 828.441406 1107.019531 C 837.292969 1078.800781 833.144531 1046.988281 817.652344 1022.089844 L 777.539062 931.078125 L 809.90625 946.015625 C 812.121094 947.121094 814.609375 947.675781 817.101562 947.675781 C 823.460938 947.675781 829.546875 944.078125 832.316406 937.992188 C 836.1875 929.417969 832.589844 919.457031 824.015625 915.585938 L 750.984375 881.835938 C 748.769531 880.730469 746.28125 880.175781 743.792969 880.175781 C 739.363281 880.175781 735.214844 881.835938 731.894531 885.15625 C 726.917969 890.132812 725.535156 897.605469 728.300781 903.964844 L 787.222656 1037.027344 C 787.5 1037.859375 788.054688 1038.6875 788.328125 1039.242188 C 799.117188 1056.117188 802.160156 1077.972656 796.074219 1097.058594 C 790.542969 1114.210938 778.09375 1129.425781 762.050781 1137.722656 L 540.738281 1248.378906 C 539.632812 1234.269531 540.738281 1220.164062 544.613281 1206.882812 C 553.742188 1173.132812 578.363281 1143.535156 610.175781 1128.59375 C 618.75 1124.722656 622.347656 1114.488281 618.199219 1106.1875 C 615.433594 1100.101562 609.347656 1096.503906 602.984375 1096.503906 C 600.492188 1096.503906 598.003906 1097.058594 595.789062 1098.164062 C 554.847656 1117.253906 523.589844 1154.875 511.96875 1198.308594 C 506.160156 1220.164062 505.332031 1242.570312 508.925781 1264.699219 L 507.542969 1265.253906 C 493.433594 1269.957031 478.496094 1272.445312 463.558594 1272.445312 C 442.535156 1272.445312 421.785156 1267.742188 402.976562 1258.613281 C 388.589844 1251.699219 375.585938 1242.292969 364.523438 1230.675781 C 357.328125 1223.207031 350.96875 1215.183594 345.710938 1206.605469 C 332.15625 1184.199219 324.964844 1158.195312 325.515625 1131.914062 C 325.792969 1122.507812 318.324219 1114.761719 308.917969 1114.761719 C 308.640625 1114.761719 308.640625 1114.761719 308.640625 1114.761719 C 299.511719 1114.761719 292.042969 1122.234375 291.765625 1131.363281 C 291.214844 1164.003906 300.066406 1196.648438 316.941406 1224.3125 C 323.578125 1235.101562 331.601562 1245.335938 340.453125 1254.464844 C 354.285156 1268.574219 370.332031 1280.46875 388.3125 1289.042969 C 411.828125 1300.386719 437.832031 1306.195312 463.835938 1306.195312 C 482.09375 1306.195312 500.351562 1303.429688 517.777344 1297.621094 C 521.652344 1307.855469 526.355469 1317.539062 532.164062 1326.945312 C 557.890625 1368.714844 599.941406 1397.761719 644.753906 1413.53125 C 679.886719 1425.980469 716.957031 1431.511719 753.75 1431.511719 C 801.609375 1431.511719 849.464844 1422.382812 894.28125 1408 C 973.675781 1382.269531 1048.921875 1336.625 1101.757812 1270.234375 C 1121.675781 1245.335938 1138 1217.394531 1149.339844 1187.519531 C 1163.726562 1194.160156 1179.492188 1197.753906 1195.539062 1197.753906 C 1196.644531 1197.753906 1197.476562 1197.753906 1198.582031 1197.753906 C 1227.90625 1196.925781 1256.953125 1183.09375 1275.210938 1159.578125 C 1291.253906 1136.617188 1297.894531 1105.359375 1290.980469 1076.863281 Z M 1129.976562 1121.957031 C 1129.699219 1123.339844 1127.488281 1131.363281 1128.316406 1132.191406 C 1093.738281 1093.1875 1081.289062 1040.070312 1069.945312 990.832031 C 1069.667969 990 1069.667969 989.171875 1069.390625 988.339844 C 1066.347656 975.0625 1064.414062 962.890625 1065.519531 951.269531 C 1066.347656 941.867188 1069.117188 933.84375 1073.542969 928.035156 C 1075.753906 925.269531 1078.523438 923.054688 1081.566406 921.671875 C 1084.332031 920.289062 1087.097656 919.734375 1090.140625 919.734375 C 1090.417969 919.734375 1090.417969 919.734375 1090.695312 919.734375 C 1094.289062 919.734375 1097.886719 920.839844 1101.207031 923.054688 C 1104.527344 924.992188 1107.570312 928.3125 1110.335938 932.183594 C 1118.082031 943.527344 1120.292969 957.359375 1122.507812 970.359375 C 1131.082031 1019.878906 1137.445312 1071.332031 1129.976562 1121.957031 Z M 1129.976562 1121.957031 " fill-opacity="1" fill-rule="nonzero"/></g><path fill="#7ed957" d="M 499.246094 824.847656 C 500.074219 825.679688 501.179688 826.507812 502.5625 827.339844 L 516.394531 839.234375 C 518.332031 840.617188 520.546875 841.722656 523.3125 842.554688 C 524.417969 842.828125 525.523438 842.828125 526.90625 842.828125 C 528.015625 842.828125 529.398438 842.828125 530.78125 842.554688 C 535.484375 841.722656 539.355469 838.957031 542.398438 834.808594 L 550.699219 815.441406 C 551.527344 813.507812 551.804688 811.847656 552.082031 810.738281 C 552.359375 808.25 552.359375 805.761719 551.804688 803.269531 C 550.976562 800.226562 549.59375 797.460938 547.933594 795.25 C 546.550781 793.589844 545.441406 792.480469 545.164062 792.207031 C 544.058594 791.375 542.953125 790.820312 541.847656 789.992188 L 528.84375 779.480469 C 526.90625 778.097656 524.972656 777.265625 523.3125 776.992188 C 521.929688 776.714844 520.546875 776.714844 519.4375 776.714844 C 512.800781 776.714844 507.820312 780.035156 504.222656 786.394531 L 496.203125 800.78125 C 495.371094 802.164062 494.816406 803.546875 494.265625 804.929688 C 493.433594 808.25 493.160156 810.464844 493.160156 811.015625 C 493.160156 813.507812 493.710938 816.550781 495.371094 819.867188 C 495.925781 820.976562 497.308594 822.636719 499.246094 824.847656 Z M 499.246094 824.847656 " fill-opacity="1" fill-rule="nonzero"/><path fill="#7ed957" d="M 1336.070312 490.394531 L 1349.074219 508.375 C 1352.390625 512.800781 1357.371094 515.292969 1362.902344 515.292969 C 1366.222656 515.292969 1369.820312 514.183594 1372.863281 512.25 C 1380.332031 506.714844 1381.992188 496.203125 1376.734375 488.734375 L 1321.132812 412.105469 C 1317.8125 407.679688 1312.832031 405.191406 1307.300781 405.191406 C 1305.085938 405.191406 1302.875 405.742188 1300.660156 406.574219 C 1293.46875 409.617188 1289.320312 417.363281 1290.703125 425.109375 C 1307.023438 515.015625 1320.027344 605.476562 1329.429688 696.488281 C 1340.21875 798.292969 1346.582031 900.371094 1348.796875 1002.726562 C 1349.074219 1011.855469 1356.542969 1019.324219 1365.671875 1019.324219 C 1365.949219 1019.324219 1365.949219 1019.324219 1365.949219 1019.324219 C 1375.351562 1019.046875 1382.546875 1011.300781 1382.546875 1002.171875 C 1380.332031 898.988281 1373.691406 795.800781 1362.902344 693.167969 C 1355.710938 625.117188 1346.582031 557.617188 1336.070312 490.394531 Z M 1336.070312 490.394531 " fill-opacity="1" fill-rule="nonzero"/><path fill="#7ed957" d="M 518.886719 421.789062 C 520.269531 423.171875 522.207031 423.726562 524.140625 423.726562 C 526.632812 423.726562 528.84375 422.617188 530.503906 420.683594 C 533.824219 416.53125 535.484375 411.554688 535.484375 406.296875 C 535.484375 401.039062 533.546875 396.0625 529.949219 392.1875 C 526.632812 388.316406 521.929688 385.550781 516.949219 384.71875 C 515.566406 384.441406 513.90625 384.167969 512.523438 384.167969 C 509.203125 384.167969 505.605469 384.996094 502.5625 386.378906 C 495.925781 389.421875 491.222656 394.953125 488.457031 400.765625 C 485.6875 406.574219 485.136719 412.9375 484.859375 418.46875 C 484.859375 420.40625 484.859375 422.066406 485.136719 423.726562 C 485.414062 429.257812 486.242188 434.789062 487.070312 439.769531 C 487.902344 445.027344 488.457031 449.730469 488.730469 454.433594 C 488.730469 457.199219 488.730469 460.242188 488.730469 463.007812 C 484.582031 456.644531 479.601562 450.835938 474.070312 445.578125 C 462.726562 434.789062 448.34375 427.042969 433.128906 423.171875 C 432.296875 422.894531 431.746094 422.894531 431.191406 422.894531 C 427.320312 422.894531 424 425.386719 423.167969 429.257812 C 422.0625 433.683594 424.828125 438.386719 429.253906 439.21875 C 441.703125 442.261719 453.597656 448.621094 463.003906 457.476562 C 472.6875 466.605469 480.15625 478.222656 484.027344 490.949219 C 485.136719 494.269531 488.179688 496.757812 491.773438 496.757812 C 491.773438 496.757812 492.050781 496.757812 492.050781 496.757812 C 495.648438 496.757812 498.691406 494.542969 499.796875 491.5 C 504.5 479.050781 506.160156 465.773438 505.332031 453.046875 C 505.054688 447.515625 504.222656 441.984375 503.394531 437.003906 C 502.5625 431.746094 502.011719 427.046875 501.734375 422.34375 C 501.734375 420.957031 501.457031 419.574219 501.734375 418.191406 C 501.734375 414.042969 502.289062 410.171875 503.671875 407.402344 C 505.054688 404.359375 507.265625 402.148438 509.480469 401.316406 C 510.585938 400.765625 511.691406 400.765625 512.800781 400.765625 C 513.351562 400.765625 513.628906 400.765625 514.183594 400.765625 C 515.566406 401.042969 516.949219 401.871094 517.777344 402.699219 C 518.609375 403.808594 519.164062 404.914062 519.164062 406.296875 C 519.164062 407.679688 518.609375 409.0625 518.054688 409.894531 C 514.734375 413.765625 515.289062 419.023438 518.886719 421.789062 Z M 518.886719 421.789062 " fill-opacity="1" fill-rule="nonzero"/><path fill="#7ed957" d="M 476.835938 1136.617188 C 478.21875 1138 480.15625 1138.554688 482.09375 1138.554688 C 484.582031 1138.554688 486.796875 1137.449219 488.457031 1135.511719 C 491.773438 1131.363281 493.433594 1126.382812 493.433594 1121.125 C 493.433594 1115.871094 491.222656 1110.890625 487.902344 1107.019531 C 484.582031 1103.144531 479.878906 1100.378906 474.898438 1099.546875 C 473.515625 1099.273438 471.855469 1098.996094 470.472656 1098.996094 C 466.878906 1098.996094 463.558594 1099.824219 460.515625 1101.207031 C 453.875 1104.25 449.171875 1109.785156 446.40625 1115.59375 C 443.640625 1121.402344 442.808594 1127.765625 442.808594 1133.296875 C 442.808594 1134.957031 442.808594 1136.894531 443.085938 1138.554688 C 443.363281 1144.085938 444.195312 1149.621094 445.023438 1154.597656 C 445.851562 1159.855469 446.40625 1164.558594 446.683594 1169.261719 C 446.960938 1172.304688 446.960938 1175.070312 446.683594 1177.835938 C 442.535156 1171.472656 437.554688 1165.664062 432.023438 1160.410156 C 420.402344 1149.621094 406.292969 1141.875 391.078125 1138 C 390.25 1137.722656 389.695312 1137.722656 389.144531 1137.722656 C 385.269531 1137.722656 381.949219 1140.214844 381.121094 1144.085938 C 380.015625 1148.511719 382.78125 1152.9375 387.207031 1154.046875 C 399.65625 1157.089844 411.550781 1163.453125 420.957031 1172.304688 C 430.636719 1181.433594 438.109375 1193.050781 441.980469 1206.054688 C 443.085938 1209.375 446.128906 1211.863281 449.726562 1211.863281 C 449.726562 1211.863281 449.726562 1211.863281 450.003906 1211.863281 C 453.597656 1211.863281 456.640625 1209.648438 457.75 1206.605469 C 462.453125 1194.160156 464.113281 1180.878906 463.28125 1168.15625 C 463.003906 1162.621094 462.175781 1157.089844 461.34375 1152.109375 C 460.515625 1146.851562 459.960938 1142.152344 459.683594 1137.449219 C 459.683594 1136.066406 459.410156 1134.679688 459.410156 1133.296875 C 459.410156 1129.148438 459.960938 1125.277344 461.34375 1122.234375 C 462.726562 1119.191406 464.941406 1116.976562 467.15625 1116.148438 C 468.261719 1115.59375 469.367188 1115.316406 470.472656 1115.316406 C 471.027344 1115.316406 471.304688 1115.316406 471.855469 1115.59375 C 473.242188 1115.871094 474.625 1116.699219 475.453125 1117.53125 C 476.285156 1118.636719 476.835938 1119.742188 476.835938 1121.125 C 476.835938 1122.507812 476.285156 1123.894531 475.730469 1124.722656 C 472.6875 1128.59375 473.242188 1133.851562 476.835938 1136.617188 Z M 476.835938 1136.617188 " fill-opacity="1" fill-rule="nonzero"/><path fill="#7ed957" d="M 760.113281 396.890625 C 761.21875 396.339844 762.324219 396.339844 763.433594 396.339844 C 763.984375 396.339844 764.261719 396.339844 764.816406 396.339844 C 766.199219 396.613281 767.582031 397.445312 768.410156 398.273438 C 769.242188 399.382812 769.796875 400.488281 769.796875 401.871094 C 769.796875 403.253906 769.242188 404.636719 768.410156 405.46875 C 765.644531 409.0625 765.921875 414.320312 769.519531 417.085938 C 771.179688 418.46875 772.839844 419.023438 774.773438 419.023438 C 777.265625 419.023438 779.476562 417.914062 781.136719 415.980469 C 784.457031 411.828125 786.117188 406.851562 786.117188 401.59375 C 786.117188 396.339844 784.179688 391.359375 780.582031 387.484375 C 777.265625 383.613281 772.5625 380.847656 767.582031 380.015625 C 766.199219 379.738281 764.539062 379.464844 763.15625 379.464844 C 759.558594 379.464844 756.238281 380.292969 753.195312 381.675781 C 746.558594 384.71875 741.855469 390.253906 739.089844 396.0625 C 736.320312 401.871094 735.769531 408.234375 735.492188 413.765625 C 735.492188 415.425781 735.492188 417.363281 735.492188 419.023438 C 735.769531 424.554688 736.597656 430.085938 737.429688 435.066406 C 738.257812 440.324219 738.8125 445.027344 739.089844 449.730469 C 739.363281 452.496094 739.363281 455.539062 739.089844 458.304688 C 734.9375 451.941406 729.960938 446.132812 724.425781 440.875 C 712.808594 430.085938 698.699219 422.34375 683.484375 418.46875 C 682.929688 418.191406 682.101562 418.191406 681.546875 418.191406 C 677.953125 418.191406 674.355469 420.683594 673.523438 424.554688 C 672.417969 428.980469 675.183594 433.40625 679.613281 434.515625 C 692.058594 437.558594 703.957031 443.917969 713.359375 452.773438 C 723.042969 461.902344 730.511719 473.519531 734.386719 486.523438 C 735.492188 489.839844 738.535156 492.332031 742.132812 492.332031 C 742.132812 492.332031 742.40625 492.332031 742.40625 492.332031 C 745.726562 492.332031 749.046875 490.117188 750.152344 487.074219 C 754.855469 474.625 756.515625 461.347656 755.6875 448.621094 C 755.410156 443.089844 754.578125 437.558594 753.75 432.578125 C 752.921875 427.320312 752.367188 422.617188 752.089844 417.914062 C 752.089844 416.53125 752.089844 415.148438 752.089844 413.765625 C 752.089844 409.617188 752.644531 406.019531 754.027344 402.976562 C 755.6875 400.210938 757.621094 397.996094 760.113281 396.890625 Z M 760.113281 396.890625 " fill-opacity="1" fill-rule="nonzero"/><path fill="#7ed957" d="M 604.644531 1034.539062 C 585.832031 1052.242188 566.742188 1070.226562 548.484375 1088.761719 C 545.164062 1092.078125 545.441406 1097.335938 548.484375 1100.65625 C 550.144531 1102.316406 552.359375 1103.144531 554.296875 1103.144531 C 556.507812 1103.144531 558.722656 1102.316406 560.105469 1100.65625 C 578.085938 1082.398438 596.898438 1064.691406 615.984375 1046.988281 C 632.582031 1031.21875 649.457031 1015.449219 665.78125 999.128906 C 671.589844 993.320312 677.398438 987.234375 683.207031 980.871094 C 689.847656 983.359375 696.761719 984.746094 703.679688 984.746094 C 705.339844 984.746094 707.273438 984.746094 709.210938 984.46875 C 713.636719 983.914062 717.234375 980.042969 716.679688 975.339844 C 716.128906 971.1875 712.53125 967.871094 708.382812 967.871094 C 708.105469 967.871094 707.828125 967.871094 707.550781 967.871094 C 706.167969 967.871094 705.0625 968.144531 703.679688 968.144531 C 700.636719 968.144531 697.59375 967.871094 694.550781 967.039062 C 699.804688 959.847656 704.785156 951.824219 707 942.417969 C 708.105469 937.441406 708.660156 932.183594 707.828125 926.652344 C 707 921.117188 704.785156 915.585938 700.914062 911.160156 C 697.316406 907.007812 692.613281 903.964844 687.082031 902.308594 C 684.589844 901.476562 682.101562 901.199219 679.613281 901.199219 C 676.570312 901.199219 673.800781 901.753906 671.035156 902.582031 C 665.78125 904.242188 661.351562 907.285156 657.757812 911.160156 C 654.160156 915.03125 651.949219 919.734375 650.566406 924.4375 C 648.074219 933.011719 648.90625 941.867188 651.671875 949.613281 C 654.4375 957.355469 659.140625 964.273438 665.226562 969.804688 C 666.332031 970.636719 667.4375 971.742188 668.546875 972.574219 C 663.84375 977.550781 659.140625 982.253906 654.160156 987.234375 C 638.117188 1003.003906 621.519531 1018.769531 604.644531 1034.539062 Z M 667.4375 944.078125 C 665.78125 939.097656 665.226562 933.84375 666.609375 929.140625 C 667.4375 926.375 668.824219 924.160156 670.480469 922.226562 C 672.140625 920.289062 674.355469 918.90625 676.292969 918.351562 C 677.398438 918.074219 678.78125 917.796875 679.886719 917.796875 C 680.996094 917.796875 681.824219 917.796875 682.929688 918.351562 C 684.867188 918.90625 687.082031 920.289062 688.464844 921.949219 C 690.125 923.882812 691.230469 926.375 691.507812 929.140625 C 692.058594 931.90625 691.785156 934.949219 690.953125 938.269531 C 689.015625 945.738281 684.589844 952.929688 679.058594 959.847656 C 678.226562 959.015625 677.121094 958.464844 676.292969 957.632812 C 672.417969 953.761719 669.097656 949.058594 667.4375 944.078125 Z M 667.4375 944.078125 " fill-opacity="1" fill-rule="nonzero"/><path fill="#7ed957" d="M 954.589844 1120.296875 C 952.652344 1124.445312 954.589844 1129.425781 958.738281 1131.363281 C 959.84375 1131.914062 960.949219 1132.191406 962.058594 1132.191406 C 965.101562 1132.191406 968.144531 1130.253906 969.527344 1127.210938 C 974.230469 1116.421875 983.636719 1107.570312 994.976562 1103.421875 C 998.296875 1102.039062 1001.894531 1101.207031 1005.488281 1100.933594 L 1013.511719 1100.65625 C 1017.9375 1100.378906 1021.535156 1096.78125 1021.535156 1092.355469 C 1021.535156 1087.929688 1018.214844 1084.058594 1013.511719 1084.058594 C 1012.40625 1084.058594 1011.574219 1084.058594 1010.46875 1084.058594 C 1008.257812 1084.058594 1006.320312 1084.058594 1004.105469 1084.332031 L 985.296875 1084.886719 C 982.804688 1084.609375 980.316406 1083.226562 978.933594 1081.289062 C 977.550781 1079.078125 976.996094 1076.3125 977.824219 1073.820312 C 978.378906 1071.886719 980.039062 1069.949219 981.699219 1069.117188 C 982.804688 1068.289062 984.464844 1068.011719 985.847656 1068.011719 C 986.402344 1068.011719 987.230469 1068.011719 987.785156 1068.289062 C 988.339844 1068.566406 989.167969 1068.566406 989.722656 1068.566406 C 993.59375 1068.566406 996.914062 1066.074219 997.742188 1062.203125 C 998.851562 1057.777344 996.085938 1053.351562 991.65625 1052.242188 L 991.382812 1052.242188 C 989.445312 1051.691406 987.507812 1051.691406 985.847656 1051.691406 C 981.699219 1051.691406 977.273438 1052.796875 973.398438 1054.734375 C 967.867188 1057.777344 963.71875 1062.757812 961.78125 1068.84375 C 959.292969 1076.3125 960.675781 1084.609375 964.824219 1090.972656 C 966.761719 1093.738281 968.972656 1095.953125 971.738281 1097.613281 C 965.101562 1103.144531 958.738281 1111.167969 954.589844 1120.296875 Z M 954.589844 1120.296875 " fill-opacity="1" fill-rule="nonzero"/><path fill="#7ed957" d="M 409.0625 340.179688 C 415.421875 337.414062 423.445312 339.074219 427.59375 344.054688 C 432.023438 349.035156 432.296875 357.054688 428.703125 362.3125 C 426.765625 365.078125 427.320312 368.949219 430.085938 370.886719 C 432.851562 372.824219 436.722656 372.269531 438.660156 369.503906 C 445.851562 359.546875 445.023438 345.160156 436.722656 336.03125 C 428.980469 327.179688 415.148438 324.136719 404.082031 329.117188 C 393.570312 333.816406 386.101562 345.160156 386.101562 357.054688 C 386.101562 368.398438 392.738281 379.464844 402.976562 385.273438 C 403.804688 385.824219 404.910156 386.101562 406.019531 386.101562 C 408.230469 386.101562 410.167969 384.996094 411.273438 383.058594 C 412.933594 380.015625 411.828125 376.421875 408.785156 374.761719 C 402.421875 371.164062 398.273438 364.25 398.273438 357.332031 C 398.273438 349.863281 402.699219 342.945312 409.0625 340.179688 Z M 409.0625 340.179688 " fill-opacity="1" fill-rule="nonzero"/><path fill="#7ed957" d="M 505.332031 1376.738281 C 502.5625 1375.078125 498.691406 1375.910156 497.03125 1378.675781 C 493.160156 1384.761719 485.964844 1388.632812 478.773438 1388.359375 C 471.855469 1388.082031 465.21875 1383.101562 462.726562 1376.738281 C 460.515625 1370.375 462.453125 1362.355469 467.707031 1358.480469 C 472.964844 1354.332031 480.984375 1354.332031 485.964844 1358.480469 C 488.457031 1360.695312 492.328125 1360.140625 494.542969 1357.652344 C 496.753906 1355.160156 496.203125 1351.289062 493.710938 1349.074219 C 484.304688 1341.328125 469.921875 1341.328125 460.238281 1348.796875 C 450.832031 1355.992188 447.238281 1369.546875 451.386719 1380.886719 C 455.257812 1391.675781 466.324219 1399.699219 477.941406 1400.53125 C 478.496094 1400.53125 479.050781 1400.53125 479.601562 1400.53125 C 490.390625 1400.53125 500.902344 1394.71875 506.988281 1385.316406 C 508.925781 1382.273438 508.097656 1378.398438 505.332031 1376.738281 Z M 505.332031 1376.738281 " fill-opacity="1" fill-rule="nonzero"/><path fill="#7ed957" d="M 1171.195312 1241.464844 C 1159.851562 1243.125 1149.617188 1251.976562 1146.296875 1263.316406 C 1146.019531 1263.871094 1146.019531 1264.425781 1145.746094 1264.976562 C 1143.53125 1275.488281 1146.851562 1287.109375 1154.875 1294.855469 C 1157.363281 1297.34375 1161.234375 1297.066406 1163.449219 1294.855469 C 1165.664062 1292.363281 1165.664062 1288.492188 1163.449219 1286.277344 C 1158.191406 1281.300781 1155.980469 1273.277344 1157.917969 1266.636719 C 1159.851562 1259.996094 1165.9375 1254.464844 1172.578125 1253.636719 C 1179.21875 1252.804688 1186.6875 1256.402344 1189.453125 1262.488281 C 1192.21875 1268.296875 1190.558594 1276.320312 1185.578125 1280.46875 C 1182.8125 1282.40625 1182.535156 1286.277344 1184.472656 1289.042969 C 1186.410156 1291.8125 1190.28125 1292.085938 1193.050781 1290.152344 C 1202.730469 1282.683594 1205.773438 1268.574219 1200.519531 1257.507812 C 1195.539062 1246.167969 1183.089844 1239.804688 1171.195312 1241.464844 Z M 1171.195312 1241.464844 " fill-opacity="1" fill-rule="nonzero"/><path fill="#7ed957" d="M 784.179688 697.871094 C 781.414062 699.808594 781.136719 703.679688 783.074219 706.449219 C 785.011719 709.214844 788.882812 709.492188 791.648438 707.554688 C 801.332031 700.085938 804.375 685.976562 799.117188 674.910156 C 794.140625 664.121094 781.691406 657.761719 769.796875 659.144531 C 758.453125 660.804688 748.21875 669.65625 744.898438 680.996094 C 744.621094 681.550781 744.621094 682.105469 744.34375 682.65625 C 742.132812 693.167969 745.449219 704.789062 753.472656 712.535156 C 755.964844 715.023438 759.835938 714.746094 762.050781 712.535156 C 764.261719 710.042969 764.261719 706.171875 762.050781 703.957031 C 756.792969 698.980469 754.582031 690.957031 756.515625 684.316406 C 758.453125 677.675781 764.539062 672.144531 771.179688 671.316406 C 777.816406 670.484375 785.285156 674.082031 788.054688 680.167969 C 791.097656 685.699219 789.160156 693.722656 784.179688 697.871094 Z M 784.179688 697.871094 " fill-opacity="1" fill-rule="nonzero"/><path fill="#7ed957" d="M 717.511719 295.367188 C 715.019531 297.578125 714.46875 301.453125 716.679688 303.941406 C 717.789062 305.324219 719.722656 306.15625 721.382812 306.15625 C 722.765625 306.15625 724.148438 305.601562 725.257812 304.769531 C 734.109375 297.300781 743.792969 288.449219 743.792969 275.722656 C 743.792969 269.085938 741.023438 262.445312 736.046875 257.191406 C 725.53125 246.675781 707.273438 245.570312 695.933594 255.253906 C 684.589844 264.660156 682.101562 282.917969 690.675781 295.089844 C 692.613281 297.855469 696.484375 298.410156 699.253906 296.472656 C 702.019531 294.535156 702.574219 290.664062 700.636719 287.898438 C 695.65625 280.980469 697.039062 269.914062 703.679688 264.382812 C 710.316406 258.851562 721.382812 259.402344 727.46875 265.488281 C 730.234375 268.253906 731.894531 271.851562 731.621094 275.449219 C 731.621094 283.195312 724.148438 289.832031 717.511719 295.367188 Z M 717.511719 295.367188 " fill-opacity="1" fill-rule="nonzero"/><path fill="#7ed957" d="M 806.3125 1285.171875 C 803.269531 1286.554688 802.160156 1290.429688 803.542969 1293.195312 C 804.652344 1295.40625 806.863281 1296.515625 809.078125 1296.515625 C 809.90625 1296.515625 811.015625 1296.238281 811.84375 1295.960938 C 825.675781 1289.042969 833.421875 1272.171875 829.546875 1256.953125 C 825.953125 1242.292969 812.398438 1230.675781 796.90625 1229.292969 C 781.96875 1227.90625 767.027344 1235.929688 759.28125 1249.210938 C 752.089844 1261.933594 751.8125 1278.53125 759.007812 1291.535156 C 760.667969 1294.578125 764.261719 1295.40625 767.304688 1294.023438 C 770.347656 1292.363281 771.179688 1288.769531 769.796875 1285.726562 C 764.539062 1276.320312 764.539062 1264.425781 769.796875 1255.296875 C 775.050781 1246.167969 785.839844 1240.632812 795.800781 1241.464844 C 806.035156 1242.292969 815.441406 1250.316406 817.652344 1259.996094 C 819.867188 1269.679688 814.886719 1280.746094 806.3125 1285.171875 Z M 806.3125 1285.171875 " fill-opacity="1" fill-rule="nonzero"/><path fill="#7ed957" d="M 176.6875 561.214844 C 177.238281 561.214844 177.515625 561.492188 178.070312 561.492188 C 180.835938 561.492188 183.324219 559.554688 183.878906 556.789062 C 184.707031 553.46875 182.496094 550.148438 179.175781 549.59375 C 171.429688 547.933594 165.34375 540.1875 165.34375 532.167969 C 165.066406 524.144531 170.875 516.121094 178.34375 513.355469 C 186.089844 510.589844 195.496094 512.800781 201.304688 518.886719 C 207.117188 524.972656 209.050781 534.378906 206.007812 542.679688 C 204.902344 545.722656 206.5625 549.316406 209.605469 550.425781 C 212.648438 551.53125 216.246094 549.871094 217.351562 546.828125 C 221.777344 534.65625 218.734375 519.996094 209.882812 510.867188 C 200.753906 501.183594 186.089844 497.585938 173.917969 502.011719 C 161.472656 506.441406 152.617188 519.441406 152.894531 532.445312 C 153.449219 545.722656 163.40625 558.171875 176.6875 561.214844 Z M 176.6875 561.214844 " fill-opacity="1" fill-rule="nonzero"/><path fill="#7ed957" d="M 1459.726562 732.726562 C 1457.515625 719.726562 1447 708.660156 1434.277344 705.894531 C 1421.273438 702.851562 1406.890625 708.9375 1399.972656 720.003906 C 1392.78125 731.621094 1394.71875 747.390625 1403.847656 757.074219 C 1406.058594 759.5625 1409.933594 759.5625 1412.421875 757.074219 C 1414.910156 754.859375 1414.910156 750.988281 1412.421875 748.496094 C 1406.890625 742.964844 1406.058594 733.28125 1410.210938 726.367188 C 1414.359375 719.449219 1423.488281 715.855469 1431.511719 717.789062 C 1439.53125 719.726562 1446.171875 726.640625 1447.554688 734.941406 C 1448.9375 743.242188 1445.617188 752.09375 1438.703125 757.347656 C 1435.9375 759.285156 1435.660156 763.160156 1437.597656 765.925781 C 1438.703125 767.585938 1440.640625 768.136719 1442.300781 768.136719 C 1443.683594 768.136719 1444.789062 767.859375 1445.894531 766.753906 C 1456.683594 759.007812 1461.941406 745.175781 1459.726562 732.726562 Z M 1459.726562 732.726562 " fill-opacity="1" fill-rule="nonzero"/><path fill="#7ed957" d="M 251.101562 1164.003906 C 240.589844 1155.984375 225.652344 1154.875 214.308594 1161.238281 C 202.691406 1167.878906 196.050781 1181.988281 198.539062 1194.710938 C 201.03125 1207.992188 212.925781 1218.503906 226.480469 1219.332031 C 226.480469 1219.332031 226.757812 1219.332031 226.757812 1219.332031 C 230.078125 1219.332031 232.566406 1216.84375 232.84375 1213.523438 C 233.121094 1210.203125 230.351562 1207.4375 227.035156 1207.160156 C 219.289062 1206.605469 211.820312 1200.246094 210.433594 1192.222656 C 209.050781 1184.476562 213.203125 1175.625 220.117188 1171.472656 C 227.308594 1167.324219 236.992188 1168.15625 243.632812 1173.410156 C 250.269531 1178.390625 253.589844 1187.519531 252.207031 1196.09375 C 251.65625 1199.414062 253.867188 1202.457031 257.1875 1203.011719 C 260.507812 1203.5625 263.550781 1201.351562 264.101562 1198.03125 C 266.59375 1185.582031 261.335938 1171.75 251.101562 1164.003906 Z M 251.101562 1164.003906 " fill-opacity="1" fill-rule="nonzero"/></svg>