<svg xmlns="http://www.w3.org/2000/svg" xmlns:xlink="http://www.w3.org/1999/xlink" width="2048" zoomAndPan="magnify" viewBox="0 0 1536 1535.999932" height="2048" preserveAspectRatio="xMidYMid meet" version="1.0"><path fill="#7ed957" d="M 1192.015625 978.589844 C 1188.269531 987.160156 1184.277344 995.617188 1180.042969 1003.957031 C 1175.804688 1012.300781 1171.332031 1020.511719 1166.617188 1028.59375 C 1161.90625 1036.675781 1156.964844 1044.613281 1151.792969 1052.410156 C 1146.625 1060.203125 1141.230469 1067.84375 1135.617188 1075.328125 C 1130.003906 1082.8125 1124.179688 1090.128906 1118.144531 1097.273438 C 1112.109375 1104.421875 1105.871094 1111.386719 1099.429688 1118.171875 C 1092.992188 1124.960938 1086.359375 1131.554688 1079.539062 1137.957031 C 1072.71875 1144.359375 1065.71875 1150.558594 1058.539062 1156.554688 C 1051.359375 1162.554688 1044.011719 1168.339844 1036.5 1173.910156 C 1028.984375 1179.480469 1021.316406 1184.832031 1013.492188 1189.960938 C 1005.667969 1195.089844 997.703125 1199.988281 989.59375 1204.65625 C 981.488281 1209.324219 973.25 1213.753906 964.886719 1217.945312 C 956.523438 1222.132812 948.046875 1226.082031 939.453125 1229.78125 C 930.863281 1233.480469 922.171875 1236.929688 913.378906 1240.128906 C 904.585938 1243.328125 895.710938 1246.265625 886.75 1248.953125 C 877.789062 1251.636719 868.757812 1254.058594 859.65625 1256.21875 C 859.453125 1254.453125 859.207031 1252.691406 858.921875 1250.933594 C 858.632812 1249.179688 858.304688 1247.429688 857.933594 1245.691406 C 857.5625 1243.949219 857.148438 1242.21875 856.695312 1240.5 C 856.242188 1238.777344 855.75 1237.070312 855.214844 1235.375 C 854.675781 1233.675781 854.101562 1231.992188 853.484375 1230.324219 C 852.871094 1228.65625 852.214844 1227 851.519531 1225.363281 C 850.824219 1223.726562 850.089844 1222.105469 849.316406 1220.503906 C 848.542969 1218.898438 847.734375 1217.316406 846.882812 1215.753906 C 846.035156 1214.1875 845.148438 1212.644531 844.226562 1211.125 C 843.304688 1209.601562 842.347656 1208.105469 841.351562 1206.628906 C 840.359375 1205.152344 839.328125 1203.703125 838.265625 1202.277344 C 837.199219 1200.851562 836.105469 1199.449219 834.972656 1198.078125 C 833.84375 1196.703125 832.679688 1195.359375 831.484375 1194.039062 C 830.289062 1192.722656 829.0625 1191.433594 827.804688 1190.171875 C 826.546875 1188.914062 825.261719 1187.6875 823.945312 1186.488281 C 822.628906 1185.289062 821.285156 1184.125 819.914062 1182.992188 C 818.542969 1181.859375 817.144531 1180.757812 815.71875 1179.691406 C 814.296875 1178.625 812.847656 1177.59375 811.371094 1176.597656 C 809.898438 1175.601562 808.402344 1174.640625 806.882812 1173.714844 C 805.363281 1172.789062 803.820312 1171.902344 802.257812 1171.050781 C 800.695312 1170.199219 799.113281 1169.386719 797.511719 1168.609375 C 795.910156 1167.832031 794.292969 1167.097656 792.65625 1166.398438 C 791.019531 1165.699219 789.367188 1165.042969 787.699219 1164.421875 C 786.03125 1163.804688 784.347656 1163.226562 782.652344 1162.6875 C 780.957031 1162.148438 779.25 1161.652344 777.527344 1161.195312 C 775.808594 1160.738281 774.078125 1160.324219 772.339844 1159.949219 C 770.601562 1159.574219 768.851562 1159.242188 767.097656 1158.953125 C 765.34375 1158.664062 763.582031 1158.414062 761.8125 1158.210938 C 760.046875 1158.003906 758.273438 1157.839844 756.5 1157.71875 C 754.722656 1157.601562 752.945312 1157.523438 751.167969 1157.484375 C 749.390625 1157.449219 747.609375 1157.457031 745.832031 1157.507812 C 744.054688 1157.554688 742.277344 1157.648438 740.503906 1157.78125 C 738.726562 1157.917969 736.957031 1158.09375 735.191406 1158.3125 C 733.425781 1158.53125 731.667969 1158.792969 729.914062 1159.097656 C 728.160156 1159.402344 726.417969 1159.746094 724.679688 1160.132812 C 722.941406 1160.519531 721.214844 1160.949219 719.5 1161.417969 C 717.785156 1161.890625 716.082031 1162.398438 714.386719 1162.953125 C 712.695312 1163.503906 711.019531 1164.09375 709.355469 1164.726562 C 707.691406 1165.359375 706.046875 1166.027344 704.414062 1166.738281 C 702.78125 1167.449219 701.167969 1168.199219 699.574219 1168.988281 C 697.980469 1169.777344 696.402344 1170.601562 694.847656 1171.464844 C 693.292969 1172.328125 691.757812 1173.230469 690.246094 1174.164062 C 688.734375 1175.101562 687.242188 1176.074219 685.777344 1177.082031 C 684.3125 1178.09375 682.871094 1179.132812 681.453125 1180.210938 C 680.039062 1181.289062 678.648438 1182.398438 677.285156 1183.542969 C 675.921875 1184.6875 674.585938 1185.863281 673.28125 1187.070312 C 671.972656 1188.277344 670.699219 1189.515625 669.449219 1190.785156 C 668.203125 1192.054688 666.988281 1193.351562 665.800781 1194.679688 C 664.617188 1196.007812 663.464844 1197.363281 662.34375 1198.746094 C 661.222656 1200.125 660.136719 1201.535156 659.085938 1202.96875 C 658.03125 1204.402344 657.011719 1205.863281 656.03125 1207.347656 C 655.046875 1208.828125 654.101562 1210.335938 653.191406 1211.863281 C 652.277344 1213.390625 651.40625 1214.941406 650.570312 1216.511719 C 649.730469 1218.082031 648.933594 1219.671875 648.171875 1221.28125 C 647.414062 1222.890625 646.691406 1224.515625 646.007812 1226.15625 C 645.328125 1227.800781 644.683594 1229.460938 644.082031 1231.132812 C 643.476562 1232.808594 642.914062 1234.496094 642.390625 1236.195312 C 641.871094 1237.898438 641.386719 1239.609375 640.949219 1241.332031 C 640.507812 1243.058594 640.109375 1244.789062 639.75 1246.535156 C 639.394531 1248.277344 639.078125 1250.027344 638.804688 1251.785156 C 638.53125 1253.542969 638.300781 1255.308594 638.113281 1257.078125 C 637.921875 1258.847656 637.777344 1260.617188 637.671875 1262.394531 C 637.570312 1264.171875 637.507812 1265.949219 637.488281 1267.726562 C 637.46875 1269.507812 637.492188 1271.285156 637.558594 1273.0625 C 637.625 1274.84375 637.734375 1276.617188 637.886719 1278.390625 C 638.039062 1280.164062 638.230469 1281.929688 638.464844 1283.695312 C 638.703125 1285.457031 638.980469 1287.214844 639.300781 1288.964844 C 639.621094 1290.714844 639.984375 1292.457031 640.386719 1294.191406 C 640.789062 1295.921875 641.234375 1297.644531 641.722656 1299.355469 C 642.207031 1301.070312 642.734375 1302.769531 643.300781 1304.453125 C 643.867188 1306.140625 644.476562 1307.8125 645.125 1309.46875 C 645.769531 1311.128906 646.457031 1312.769531 647.183594 1314.390625 C 647.910156 1316.015625 648.675781 1317.621094 649.476562 1319.210938 C 650.28125 1320.796875 651.121094 1322.367188 652 1323.914062 C 652.878906 1325.460938 653.792969 1326.988281 654.742188 1328.492188 C 655.695312 1329.996094 656.679688 1331.472656 657.703125 1332.929688 C 658.726562 1334.386719 659.78125 1335.820312 660.871094 1337.222656 C 661.964844 1338.628906 663.085938 1340.007812 664.242188 1341.359375 C 665.398438 1342.714844 666.589844 1344.035156 667.808594 1345.332031 C 669.027344 1346.628906 670.277344 1347.890625 671.558594 1349.128906 C 672.839844 1350.363281 674.148438 1351.566406 675.488281 1352.738281 C 676.828125 1353.910156 678.191406 1355.050781 679.585938 1356.160156 C 680.976562 1357.265625 682.394531 1358.339844 683.839844 1359.378906 C 685.285156 1360.417969 686.753906 1361.421875 688.246094 1362.390625 C 689.738281 1363.359375 691.253906 1364.292969 692.789062 1365.1875 C 694.328125 1366.085938 695.882812 1366.941406 697.460938 1367.765625 C 699.039062 1368.585938 700.636719 1369.371094 702.253906 1370.117188 C 703.871094 1370.859375 705.503906 1371.566406 707.152344 1372.234375 C 708.800781 1372.902344 710.464844 1373.527344 712.144531 1374.113281 C 713.824219 1374.703125 715.519531 1375.25 717.222656 1375.753906 C 718.929688 1376.261719 720.644531 1376.726562 722.375 1377.152344 C 724.101562 1377.574219 725.839844 1377.957031 727.585938 1378.296875 C 729.332031 1378.640625 731.085938 1378.9375 732.847656 1379.195312 C 734.605469 1379.449219 736.371094 1379.664062 738.144531 1379.835938 C 739.914062 1380.011719 741.6875 1380.140625 743.464844 1380.226562 C 745.242188 1380.3125 747.019531 1380.359375 748.800781 1380.359375 C 755.921875 1380.351562 763.039062 1380.21875 770.152344 1379.957031 C 777.269531 1379.691406 784.375 1379.300781 791.476562 1378.785156 C 798.578125 1378.265625 805.667969 1377.621094 812.746094 1376.847656 C 819.824219 1376.074219 826.886719 1375.175781 833.929688 1374.152344 C 840.976562 1373.125 848 1371.972656 855.003906 1370.695312 C 862.007812 1369.414062 868.988281 1368.011719 875.941406 1366.484375 C 882.894531 1364.953125 889.820312 1363.300781 896.714844 1361.523438 C 903.609375 1359.746094 910.46875 1357.847656 917.296875 1355.824219 C 924.121094 1353.796875 930.910156 1351.652344 937.660156 1349.386719 C 944.410156 1347.117188 951.113281 1344.730469 957.777344 1342.222656 C 964.441406 1339.714844 971.058594 1337.085938 977.628906 1334.339844 C 984.195312 1331.59375 990.714844 1328.730469 997.179688 1325.753906 C 1003.648438 1322.773438 1010.058594 1319.675781 1016.414062 1316.46875 C 1022.769531 1313.257812 1029.0625 1309.933594 1035.300781 1306.5 C 1041.535156 1303.0625 1047.707031 1299.515625 1053.816406 1295.859375 C 1059.925781 1292.199219 1065.964844 1288.433594 1071.941406 1284.558594 C 1077.914062 1280.6875 1083.816406 1276.707031 1089.644531 1272.617188 C 1095.476562 1268.53125 1101.230469 1264.34375 1106.910156 1260.050781 C 1112.589844 1255.757812 1118.191406 1251.363281 1123.714844 1246.867188 C 1129.238281 1242.375 1134.675781 1237.78125 1140.035156 1233.09375 C 1145.390625 1228.402344 1150.664062 1223.621094 1155.847656 1218.742188 C 1161.035156 1213.863281 1166.132812 1208.890625 1171.136719 1203.832031 C 1176.144531 1198.769531 1181.058594 1193.617188 1185.882812 1188.378906 C 1190.703125 1183.140625 1195.433594 1177.820312 1200.0625 1172.410156 C 1204.695312 1167.003906 1209.226562 1161.515625 1213.660156 1155.945312 C 1218.09375 1150.375 1222.429688 1144.726562 1226.660156 1139 C 1230.890625 1133.273438 1235.015625 1127.472656 1239.039062 1121.597656 C 1243.0625 1115.722656 1246.980469 1109.777344 1250.789062 1103.765625 C 1254.597656 1097.75 1258.300781 1091.667969 1261.890625 1085.519531 C 1265.484375 1079.371094 1268.960938 1073.160156 1272.332031 1066.890625 C 1275.699219 1060.617188 1278.953125 1054.285156 1282.09375 1047.894531 C 1285.234375 1041.503906 1288.261719 1035.0625 1291.171875 1028.5625 Z M 747.808594 376.332031 C 744.765625 376.335938 741.722656 376.417969 738.683594 376.574219 C 735.644531 376.730469 732.609375 376.960938 729.582031 377.265625 C 726.554688 377.570312 723.535156 377.949219 720.527344 378.402344 C 717.515625 378.855469 714.519531 379.378906 711.535156 379.980469 C 708.550781 380.582031 705.585938 381.253906 702.632812 382 C 699.683594 382.746094 696.753906 383.5625 693.839844 384.453125 C 690.929688 385.339844 688.042969 386.300781 685.179688 387.332031 C 682.316406 388.363281 679.480469 389.464844 676.671875 390.636719 C 673.863281 391.804688 671.082031 393.042969 668.332031 394.351562 C 665.585938 395.660156 662.871094 397.03125 660.1875 398.472656 C 657.507812 399.914062 654.863281 401.417969 652.257812 402.988281 C 649.648438 404.558594 647.082031 406.191406 644.554688 407.886719 C 642.027344 409.582031 639.542969 411.339844 637.101562 413.15625 C 634.660156 414.976562 632.265625 416.851562 629.917969 418.785156 C 627.566406 420.722656 625.269531 422.714844 623.015625 424.761719 C 620.765625 426.8125 618.566406 428.914062 616.417969 431.070312 C 614.269531 433.226562 612.175781 435.433594 610.136719 437.691406 C 608.097656 439.953125 606.113281 442.257812 604.1875 444.617188 C 602.261719 446.972656 600.394531 449.375 598.585938 451.824219 C 596.777344 454.269531 595.03125 456.761719 593.34375 459.296875 C 591.660156 461.828125 590.035156 464.402344 588.476562 467.015625 C 586.917969 469.628906 585.421875 472.28125 583.992188 474.96875 C 582.5625 477.652344 581.199219 480.375 579.902344 483.128906 C 578.609375 485.882812 577.378906 488.664062 576.21875 491.480469 C 575.0625 494.292969 573.972656 497.132812 572.949219 500 C 571.929688 502.871094 570.980469 505.761719 570.105469 508.675781 C 569.226562 511.589844 568.417969 514.523438 567.6875 517.476562 C 566.953125 520.429688 566.289062 523.398438 565.703125 526.386719 C 565.113281 529.371094 564.597656 532.371094 564.15625 535.382812 C 563.714844 538.394531 563.347656 541.414062 563.058594 544.441406 C 562.765625 547.472656 562.546875 550.507812 562.402344 553.546875 C 562.257812 556.585938 562.1875 559.628906 562.195312 562.671875 C 562.199219 565.714844 562.28125 568.757812 562.433594 571.796875 C 562.589844 574.835938 562.816406 577.871094 563.121094 580.898438 C 563.425781 583.929688 563.804688 586.945312 564.253906 589.957031 C 564.707031 592.96875 565.230469 595.964844 565.832031 598.949219 C 566.429688 601.933594 567.101562 604.898438 567.847656 607.851562 C 568.589844 610.800781 569.40625 613.734375 570.296875 616.644531 C 571.183594 619.554688 572.144531 622.441406 573.171875 625.304688 C 574.203125 628.167969 575.304688 631.007812 576.472656 633.816406 C 577.644531 636.625 578.878906 639.40625 580.1875 642.15625 C 581.492188 644.902344 582.863281 647.621094 584.304688 650.300781 C 585.742188 652.984375 587.246094 655.628906 588.816406 658.234375 C 590.386719 660.84375 592.015625 663.410156 593.710938 665.941406 C 595.40625 668.46875 597.164062 670.953125 598.980469 673.394531 C 600.796875 675.835938 602.671875 678.230469 604.609375 680.582031 C 606.542969 682.929688 608.535156 685.230469 610.582031 687.484375 C 612.628906 689.734375 614.730469 691.933594 616.886719 694.082031 C 619.042969 696.230469 621.25 698.328125 623.507812 700.367188 C 625.765625 702.40625 628.070312 704.390625 630.425781 706.316406 C 632.785156 708.246094 635.183594 710.113281 637.632812 711.921875 C 640.078125 713.730469 642.570312 715.480469 645.101562 717.167969 C 647.636719 718.855469 650.210938 720.476562 652.824219 722.039062 C 655.4375 723.597656 658.085938 725.09375 660.773438 726.523438 C 663.457031 727.957031 666.179688 729.320312 668.929688 730.617188 C 671.683594 731.914062 674.46875 733.140625 677.28125 734.304688 C 680.09375 735.464844 682.9375 736.554688 685.800781 737.574219 C 688.667969 738.597656 691.558594 739.546875 694.472656 740.425781 C 697.386719 741.304688 700.320312 742.113281 703.273438 742.847656 C 706.226562 743.582031 709.199219 744.246094 712.183594 744.832031 C 715.167969 745.421875 718.167969 745.9375 721.179688 746.382812 C 724.191406 746.824219 727.210938 747.191406 730.242188 747.484375 C 733.269531 747.777344 736.304688 748 739.34375 748.144531 C 742.382812 748.289062 745.425781 748.359375 748.46875 748.355469 C 751.511719 748.351562 754.554688 748.269531 757.59375 748.117188 C 760.632812 747.964844 763.667969 747.734375 766.695312 747.433594 C 769.726562 747.132812 772.746094 746.753906 775.753906 746.304688 C 778.765625 745.851562 781.761719 745.328125 784.746094 744.730469 C 787.730469 744.132812 790.699219 743.460938 793.648438 742.71875 C 796.601562 741.976562 799.53125 741.160156 802.441406 740.273438 C 805.355469 739.382812 808.242188 738.425781 811.105469 737.398438 C 813.96875 736.367188 816.808594 735.269531 819.617188 734.101562 C 822.429688 732.933594 825.207031 731.695312 827.957031 730.390625 C 830.707031 729.085938 833.421875 727.714844 836.105469 726.277344 C 838.789062 724.835938 841.433594 723.335938 844.042969 721.765625 C 846.652344 720.199219 849.21875 718.566406 851.746094 716.875 C 854.277344 715.179688 856.761719 713.425781 859.203125 711.609375 C 861.644531 709.792969 864.042969 707.917969 866.390625 705.984375 C 868.742188 704.050781 871.042969 702.058594 873.296875 700.011719 C 875.550781 697.964844 877.75 695.863281 879.898438 693.710938 C 882.050781 691.554688 884.144531 689.347656 886.183594 687.089844 C 888.226562 684.832031 890.210938 682.527344 892.140625 680.171875 C 894.066406 677.816406 895.9375 675.417969 897.746094 672.96875 C 899.554688 670.523438 901.304688 668.03125 902.992188 665.5 C 904.679688 662.96875 906.304688 660.394531 907.867188 657.78125 C 909.429688 655.171875 910.925781 652.519531 912.355469 649.835938 C 913.789062 647.148438 915.152344 644.429688 916.453125 641.675781 C 917.75 638.925781 918.980469 636.140625 920.140625 633.328125 C 921.300781 630.515625 922.394531 627.675781 923.414062 624.808594 C 924.4375 621.941406 925.390625 619.050781 926.269531 616.136719 C 927.148438 613.226562 927.957031 610.292969 928.695312 607.339844 C 929.429688 604.386719 930.09375 601.414062 930.683594 598.429688 C 931.273438 595.445312 931.792969 592.445312 932.234375 589.433594 C 932.675781 586.421875 933.046875 583.402344 933.34375 580.375 C 933.636719 577.34375 933.859375 574.308594 934.003906 571.269531 C 934.148438 568.230469 934.222656 565.1875 934.21875 562.144531 C 934.21875 559.101562 934.144531 556.0625 933.992188 553.019531 C 933.84375 549.980469 933.621094 546.949219 933.320312 543.917969 C 933.023438 540.890625 932.652344 537.871094 932.203125 534.863281 C 931.757812 531.851562 931.238281 528.855469 930.644531 525.871094 C 930.050781 522.886719 929.382812 519.917969 928.640625 516.964844 C 927.902344 514.015625 927.089844 511.082031 926.207031 508.171875 C 925.320312 505.257812 924.367188 502.371094 923.339844 499.503906 C 922.316406 496.640625 921.21875 493.800781 920.054688 490.992188 C 918.890625 488.179688 917.65625 485.398438 916.355469 482.648438 C 915.050781 479.898438 913.683594 477.179688 912.25 474.5 C 910.8125 471.816406 909.3125 469.167969 907.746094 466.558594 C 906.183594 463.949219 904.554688 461.378906 902.863281 458.851562 C 901.171875 456.320312 899.417969 453.835938 897.601562 451.390625 C 895.789062 448.949219 893.917969 446.550781 891.984375 444.199219 C 890.054688 441.847656 888.066406 439.542969 886.019531 437.289062 C 883.976562 435.039062 881.878906 432.835938 879.722656 430.683594 C 877.570312 428.535156 875.367188 426.4375 873.109375 424.394531 C 870.855469 422.351562 868.550781 420.367188 866.195312 418.4375 C 863.84375 416.507812 861.445312 414.640625 859 412.828125 C 856.554688 411.015625 854.066406 409.265625 851.535156 407.578125 C 849.003906 405.886719 846.429688 404.261719 843.820312 402.699219 C 841.207031 401.136719 838.5625 399.640625 835.875 398.207031 C 833.191406 396.773438 830.472656 395.410156 827.722656 394.109375 C 824.96875 392.8125 822.1875 391.582031 819.375 390.417969 C 816.5625 389.257812 813.722656 388.164062 810.855469 387.140625 C 807.992188 386.117188 805.101562 385.167969 802.1875 384.285156 C 799.277344 383.40625 796.34375 382.59375 793.390625 381.859375 C 790.4375 381.121094 787.46875 380.457031 784.484375 379.867188 C 781.5 379.277344 778.5 378.757812 775.492188 378.316406 C 772.480469 377.871094 769.460938 377.503906 766.433594 377.207031 C 763.402344 376.914062 760.371094 376.691406 757.328125 376.546875 C 754.289062 376.398438 751.25 376.328125 748.207031 376.332031 Z M 404.9375 1008.335938 C 409.5625 1001.242188 414.402344 994.292969 419.460938 987.5 C 424.519531 980.703125 429.78125 974.074219 435.25 967.605469 C 440.71875 961.136719 446.382812 954.84375 452.246094 948.726562 C 458.105469 942.609375 464.148438 936.679688 470.375 930.9375 C 476.605469 925.199219 483.003906 919.65625 489.574219 914.308594 C 496.148438 908.964844 502.878906 903.832031 509.769531 898.90625 C 516.660156 893.980469 523.699219 889.269531 530.882812 884.78125 C 538.0625 880.292969 545.378906 876.03125 552.828125 871.996094 C 560.273438 867.960938 567.839844 864.160156 575.523438 860.59375 C 583.207031 857.027344 590.996094 853.703125 598.886719 850.621094 C 606.773438 847.539062 614.753906 844.707031 622.820312 842.121094 C 630.886719 839.53125 639.023438 837.199219 647.234375 835.117188 C 655.445312 833.035156 663.714844 831.210938 672.039062 829.644531 C 680.363281 828.074219 688.726562 826.765625 697.132812 825.71875 C 705.539062 824.667969 713.96875 823.882812 722.421875 823.355469 C 730.875 822.832031 739.339844 822.570312 747.808594 822.570312 C 756.28125 822.570312 764.742188 822.832031 773.195312 823.355469 C 781.652344 823.882812 790.082031 824.667969 798.484375 825.71875 C 806.890625 826.765625 815.257812 828.074219 823.582031 829.644531 C 831.90625 831.210938 840.171875 833.035156 848.382812 835.117188 C 856.59375 837.199219 864.734375 839.53125 872.800781 842.121094 C 880.867188 844.707031 888.84375 847.539062 896.734375 850.621094 C 904.625 853.703125 912.410156 857.027344 920.09375 860.59375 C 927.777344 864.160156 935.34375 867.960938 942.792969 871.996094 C 950.238281 876.03125 957.554688 880.292969 964.738281 884.78125 C 971.921875 889.269531 978.957031 893.980469 985.847656 898.90625 C 992.738281 903.832031 999.472656 908.964844 1006.042969 914.3125 C 1012.613281 919.65625 1019.015625 925.199219 1025.242188 930.9375 C 1031.46875 936.679688 1037.515625 942.609375 1043.375 948.726562 C 1049.234375 954.84375 1054.898438 961.136719 1060.367188 967.605469 C 1065.835938 974.074219 1071.101562 980.703125 1076.15625 987.5 C 1081.214844 994.292969 1086.054688 1001.242188 1090.683594 1008.335938 C 1085.011719 1017.023438 1079.023438 1025.488281 1072.714844 1033.722656 C 1066.40625 1041.957031 1059.792969 1049.945312 1052.882812 1057.679688 C 1045.96875 1065.417969 1038.773438 1072.878906 1031.296875 1080.070312 C 1023.816406 1087.261719 1016.078125 1094.160156 1008.078125 1100.769531 C 1000.078125 1107.375 991.839844 1113.667969 983.367188 1119.652344 C 974.890625 1125.632812 966.199219 1131.289062 957.296875 1136.613281 C 948.394531 1141.941406 939.300781 1146.921875 930.023438 1151.5625 C 920.742188 1156.199219 911.300781 1160.480469 901.695312 1164.402344 C 899.578125 1161.273438 897.367188 1158.210938 895.0625 1155.21875 C 892.757812 1152.222656 890.363281 1149.300781 887.878906 1146.453125 C 885.398438 1143.605469 882.828125 1140.835938 880.179688 1138.140625 C 877.527344 1135.449219 874.792969 1132.84375 871.984375 1130.316406 C 869.171875 1127.792969 866.285156 1125.355469 863.328125 1123.003906 C 860.367188 1120.65625 857.339844 1118.398438 854.242188 1116.234375 C 851.144531 1114.070312 847.984375 1112.003906 844.757812 1110.03125 C 841.535156 1108.058594 838.253906 1106.1875 834.917969 1104.414062 C 831.578125 1102.644531 828.191406 1100.976562 824.75 1099.410156 C 821.3125 1097.847656 817.828125 1096.386719 814.296875 1095.035156 C 810.769531 1093.683594 807.203125 1092.441406 803.597656 1091.304688 C 799.996094 1090.171875 796.359375 1089.148438 792.691406 1088.234375 C 789.023438 1087.324219 785.332031 1086.523438 781.617188 1085.835938 C 777.902344 1085.148438 774.167969 1084.574219 770.417969 1084.113281 C 766.667969 1083.652344 762.90625 1083.308594 759.136719 1083.078125 C 755.363281 1082.847656 751.585938 1082.734375 747.808594 1082.734375 C 744.03125 1082.734375 740.253906 1082.847656 736.484375 1083.078125 C 732.710938 1083.308594 728.949219 1083.652344 725.199219 1084.113281 C 721.449219 1084.574219 717.714844 1085.148438 714 1085.835938 C 710.285156 1086.523438 706.59375 1087.324219 702.925781 1088.234375 C 699.257812 1089.148438 695.625 1090.171875 692.019531 1091.304688 C 688.414062 1092.441406 684.847656 1093.683594 681.320312 1095.035156 C 677.789062 1096.386719 674.308594 1097.847656 670.867188 1099.410156 C 667.425781 1100.976562 664.039062 1102.644531 660.699219 1104.417969 C 657.363281 1106.1875 654.082031 1108.058594 650.859375 1110.03125 C 647.636719 1112.003906 644.472656 1114.070312 641.378906 1116.234375 C 638.28125 1118.398438 635.25 1120.65625 632.292969 1123.003906 C 629.332031 1125.355469 626.445312 1127.792969 623.636719 1130.316406 C 620.824219 1132.84375 618.09375 1135.449219 615.441406 1138.140625 C 612.789062 1140.835938 610.222656 1143.605469 607.738281 1146.453125 C 605.253906 1149.300781 602.859375 1152.222656 600.554688 1155.21875 C 598.25 1158.210938 596.039062 1161.273438 593.921875 1164.402344 C 584.320312 1160.480469 574.875 1156.199219 565.597656 1151.5625 C 556.316406 1146.921875 547.222656 1141.941406 538.320312 1136.613281 C 529.417969 1131.289062 520.726562 1125.632812 512.253906 1119.652344 C 503.777344 1113.667969 495.539062 1107.375 487.539062 1100.769531 C 479.539062 1094.160156 471.800781 1087.261719 464.324219 1080.070312 C 456.847656 1072.878906 449.648438 1065.417969 442.738281 1057.679688 C 435.824219 1049.945312 429.210938 1041.957031 422.902344 1033.722656 C 416.59375 1025.488281 410.605469 1017.023438 404.9375 1008.335938 Z M 375.984375 836.800781 C 376.019531 838.5 375.9375 840.191406 375.734375 841.878906 C 375.53125 843.566406 375.214844 845.230469 374.78125 846.871094 C 374.34375 848.511719 373.796875 850.117188 373.136719 851.679688 C 372.476562 853.246094 371.707031 854.757812 370.835938 856.214844 C 369.964844 857.671875 368.992188 859.0625 367.925781 860.382812 C 366.859375 861.703125 365.703125 862.941406 364.460938 864.101562 C 363.21875 865.261719 361.902344 866.328125 360.511719 867.300781 C 359.121094 868.277344 357.667969 869.148438 356.152344 869.917969 L 220.3125 937.9375 C 219.050781 938.582031 217.753906 939.152344 216.425781 939.644531 C 215.097656 940.136719 213.742188 940.550781 212.367188 940.882812 C 210.988281 941.214844 209.597656 941.464844 208.1875 941.632812 C 206.78125 941.796875 205.367188 941.882812 203.953125 941.882812 C 202.535156 941.882812 201.121094 941.796875 199.714844 941.632812 C 198.308594 941.464844 196.914062 941.214844 195.535156 940.882812 C 194.160156 940.550781 192.804688 940.136719 191.476562 939.644531 C 190.148438 939.152344 188.851562 938.582031 187.589844 937.9375 C 186.320312 937.34375 185.089844 936.675781 183.902344 935.933594 C 182.710938 935.195312 181.566406 934.386719 180.472656 933.511719 C 179.378906 932.636719 178.339844 931.699219 177.355469 930.699219 C 176.371094 929.699219 175.449219 928.644531 174.589844 927.539062 C 173.730469 926.429688 172.941406 925.273438 172.21875 924.074219 C 171.496094 922.871094 170.847656 921.632812 170.273438 920.351562 C 169.699219 919.074219 169.199219 917.765625 168.78125 916.429688 C 168.359375 915.089844 168.019531 913.734375 167.761719 912.355469 C 165.398438 901.542969 163.34375 890.667969 161.589844 879.742188 C 159.835938 868.8125 158.390625 857.839844 157.246094 846.832031 C 156.105469 835.820312 155.273438 824.789062 154.746094 813.730469 C 154.222656 802.675781 154.003906 791.613281 154.097656 780.542969 C 154.191406 769.476562 154.589844 758.417969 155.300781 747.371094 C 156.007812 736.324219 157.027344 725.308594 158.351562 714.320312 C 159.675781 703.328125 161.304688 692.386719 163.238281 681.488281 C 165.175781 670.589844 167.414062 659.753906 169.953125 648.980469 C 172.492188 638.207031 175.332031 627.511719 178.46875 616.894531 C 181.605469 606.28125 185.035156 595.761719 188.757812 585.335938 C 192.484375 574.914062 196.496094 564.601562 200.792969 554.402344 C 205.09375 544.203125 209.675781 534.128906 214.535156 524.1875 C 219.398438 514.242188 224.535156 504.441406 229.941406 494.785156 C 235.351562 485.128906 241.027344 475.628906 246.964844 466.289062 C 252.902344 456.945312 259.097656 447.777344 265.550781 438.785156 C 272 429.789062 278.695312 420.980469 285.640625 412.359375 C 292.582031 403.738281 299.757812 395.316406 307.171875 387.097656 C 314.585938 378.875 322.21875 370.871094 330.078125 363.074219 C 337.9375 355.28125 346.011719 347.710938 354.292969 340.367188 C 362.574219 333.023438 371.054688 325.917969 379.734375 319.046875 C 388.410156 312.175781 397.273438 305.554688 406.324219 299.175781 C 415.371094 292.800781 424.589844 286.683594 433.980469 280.820312 C 443.371094 274.960938 452.914062 269.367188 462.617188 264.039062 C 472.320312 258.710938 482.164062 253.65625 492.148438 248.875 C 502.132812 244.097656 512.242188 239.601562 522.476562 235.386719 C 532.710938 231.171875 543.054688 227.246094 553.511719 223.609375 C 563.964844 219.972656 574.511719 216.628906 585.152344 213.582031 C 595.792969 210.53125 606.511719 207.78125 617.304688 205.332031 C 628.101562 202.882812 638.953125 200.734375 649.867188 198.890625 C 660.785156 197.046875 671.742188 195.507812 682.742188 194.273438 C 693.742188 193.042969 704.765625 192.117188 715.816406 191.5 C 726.871094 190.882812 737.929688 190.574219 749 190.574219 C 760.066406 190.574219 771.128906 190.882812 782.179688 191.5 C 793.230469 192.117188 804.257812 193.042969 815.257812 194.273438 C 826.257812 195.507812 837.214844 197.046875 848.128906 198.890625 C 859.042969 200.734375 869.898438 202.882812 880.691406 205.332031 C 891.488281 207.78125 902.203125 210.53125 912.84375 213.582031 C 923.484375 216.628906 934.035156 219.972656 944.488281 223.609375 C 954.941406 227.246094 965.285156 231.171875 975.523438 235.386719 C 985.757812 239.601562 995.867188 244.097656 1005.851562 248.875 C 1015.835938 253.65625 1025.679688 258.710938 1035.378906 264.039062 C 1045.082031 269.367188 1054.628906 274.960938 1064.019531 280.820312 C 1073.40625 286.683594 1082.625 292.800781 1091.675781 299.175781 C 1100.722656 305.554688 1109.585938 312.175781 1118.265625 319.046875 C 1126.945312 325.917969 1135.425781 333.023438 1143.707031 340.367188 C 1151.988281 347.710938 1160.058594 355.28125 1167.917969 363.074219 C 1175.777344 370.871094 1183.414062 378.875 1190.824219 387.097656 C 1198.238281 395.316406 1205.417969 403.738281 1212.359375 412.359375 C 1219.300781 420.980469 1225.996094 429.789062 1232.449219 438.785156 C 1238.898438 447.777344 1245.09375 456.945312 1251.03125 466.289062 C 1256.972656 475.628906 1262.644531 485.128906 1268.054688 494.785156 C 1273.464844 504.441406 1278.597656 514.242188 1283.460938 524.1875 C 1288.324219 534.128906 1292.902344 544.203125 1297.203125 554.402344 C 1301.503906 564.601562 1305.515625 574.914062 1309.238281 585.335938 C 1312.964844 595.761719 1316.394531 606.28125 1319.53125 616.894531 C 1322.667969 627.511719 1325.503906 638.203125 1328.046875 648.980469 C 1330.585938 659.753906 1332.824219 670.589844 1334.757812 681.488281 C 1336.695312 692.386719 1338.324219 703.328125 1339.648438 714.320312 C 1340.972656 725.308594 1341.988281 736.324219 1342.699219 747.371094 C 1343.40625 758.417969 1343.808594 769.476562 1343.898438 780.542969 C 1343.992188 791.613281 1343.777344 802.675781 1343.25 813.730469 C 1342.726562 824.789062 1341.890625 835.820312 1340.75 846.832031 C 1339.609375 857.839844 1338.160156 868.8125 1336.410156 879.738281 C 1334.65625 890.667969 1332.597656 901.542969 1330.238281 912.355469 C 1329.976562 913.734375 1329.636719 915.089844 1329.21875 916.429688 C 1328.796875 917.765625 1328.300781 919.074219 1327.726562 920.351562 C 1327.148438 921.632812 1326.5 922.871094 1325.78125 924.074219 C 1325.058594 925.273438 1324.265625 926.429688 1323.40625 927.539062 C 1322.550781 928.644531 1321.628906 929.699219 1320.644531 930.699219 C 1319.660156 931.699219 1318.621094 932.636719 1317.527344 933.511719 C 1316.429688 934.386719 1315.289062 935.195312 1314.097656 935.933594 C 1312.90625 936.675781 1311.675781 937.34375 1310.40625 937.9375 C 1309.144531 938.582031 1307.851562 939.152344 1306.519531 939.644531 C 1305.191406 940.136719 1303.839844 940.550781 1302.460938 940.882812 C 1301.082031 941.214844 1299.691406 941.464844 1298.285156 941.632812 C 1296.875 941.796875 1295.464844 941.882812 1294.046875 941.882812 C 1292.628906 941.882812 1291.21875 941.796875 1289.808594 941.632812 C 1288.402344 941.464844 1287.007812 941.214844 1285.632812 940.882812 C 1284.253906 940.550781 1282.902344 940.136719 1281.570312 939.644531 C 1280.242188 939.152344 1278.949219 938.582031 1277.6875 937.9375 L 1141.847656 869.917969 C 1140.332031 869.148438 1138.878906 868.277344 1137.488281 867.300781 C 1136.097656 866.328125 1134.777344 865.261719 1133.535156 864.101562 C 1132.296875 862.941406 1131.140625 861.703125 1130.074219 860.382812 C 1129.003906 859.0625 1128.035156 857.671875 1127.160156 856.214844 C 1126.289062 854.757812 1125.523438 853.246094 1124.863281 851.679688 C 1124.203125 850.117188 1123.652344 848.511719 1123.21875 846.871094 C 1122.785156 845.230469 1122.464844 843.566406 1122.261719 841.878906 C 1122.0625 840.191406 1121.980469 838.5 1122.015625 836.800781 L 1122.015625 622.429688 C 1121.980469 620.726562 1122.066406 619.027344 1122.269531 617.335938 C 1122.472656 615.640625 1122.792969 613.972656 1123.226562 612.324219 C 1123.664062 610.675781 1124.210938 609.066406 1124.871094 607.492188 C 1125.53125 605.921875 1126.296875 604.402344 1127.167969 602.9375 C 1128.042969 601.472656 1129.011719 600.078125 1130.078125 598.746094 C 1131.144531 597.417969 1132.296875 596.167969 1133.539062 595 C 1134.78125 593.828125 1136.097656 592.753906 1137.488281 591.765625 C 1138.878906 590.78125 1140.332031 589.898438 1141.847656 589.113281 L 1181.507812 569.285156 C 1179.011719 564.300781 1176.429688 559.359375 1173.765625 554.464844 C 1171.097656 549.570312 1168.347656 544.726562 1165.515625 539.925781 C 1162.679688 535.125 1159.765625 530.378906 1156.765625 525.679688 C 1153.769531 520.980469 1150.691406 516.335938 1147.53125 511.742188 C 1144.375 507.152344 1141.136719 502.613281 1137.820312 498.136719 C 1134.503906 493.65625 1131.113281 489.234375 1127.644531 484.871094 C 1124.175781 480.507812 1120.632812 476.207031 1117.015625 471.964844 C 1113.398438 467.726562 1109.710938 463.550781 1105.949219 459.4375 C 1102.1875 455.324219 1098.355469 451.277344 1094.453125 447.296875 C 1090.550781 443.316406 1086.582031 439.40625 1082.546875 435.5625 C 1078.507812 431.71875 1074.40625 427.949219 1070.238281 424.246094 C 1066.070312 420.546875 1061.839844 416.917969 1057.546875 413.363281 C 1053.253906 409.808594 1048.902344 406.328125 1044.488281 402.925781 C 1040.074219 399.523438 1035.605469 396.195312 1031.078125 392.945312 C 1026.550781 389.695312 1021.964844 386.523438 1017.328125 383.433594 C 1012.691406 380.34375 1008 377.332031 1003.257812 374.40625 C 998.515625 371.476562 993.726562 368.628906 988.886719 365.867188 C 984.042969 363.101562 979.15625 360.425781 974.226562 357.832031 C 969.292969 355.238281 964.316406 352.726562 959.296875 350.304688 C 954.277344 347.882812 949.214844 345.550781 944.117188 343.304688 C 939.015625 341.054688 933.878906 338.898438 928.703125 336.828125 C 923.527344 334.757812 918.316406 332.78125 913.074219 330.890625 C 907.832031 329 902.554688 327.203125 897.25 325.496094 C 891.945312 323.789062 886.609375 322.175781 881.25 320.652344 C 875.886719 319.128906 870.5 317.703125 865.089844 316.367188 C 859.679688 315.03125 854.246094 313.789062 848.792969 312.640625 C 843.339844 311.492188 837.867188 310.4375 832.375 309.480469 C 826.886719 308.519531 821.378906 307.65625 815.859375 306.886719 C 810.339844 306.117188 804.808594 305.445312 799.265625 304.867188 C 793.71875 304.292969 788.167969 303.8125 782.609375 303.425781 C 777.046875 303.039062 771.484375 302.75 765.914062 302.558594 C 760.34375 302.367188 754.769531 302.269531 749.199219 302.269531 C 743.625 302.269531 738.050781 302.367188 732.480469 302.558594 C 726.910156 302.75 721.347656 303.039062 715.785156 303.425781 C 710.226562 303.8125 704.675781 304.292969 699.128906 304.867188 C 693.585938 305.445312 688.054688 306.117188 682.535156 306.886719 C 677.015625 307.65625 671.507812 308.519531 666.019531 309.480469 C 660.527344 310.4375 655.054688 311.492188 649.601562 312.640625 C 644.148438 313.789062 638.714844 315.03125 633.304688 316.367188 C 627.894531 317.703125 622.507812 319.128906 617.144531 320.652344 C 611.785156 322.175781 606.449219 323.789062 601.144531 325.496094 C 595.839844 327.203125 590.5625 329 585.320312 330.890625 C 580.078125 332.78125 574.867188 334.757812 569.691406 336.828125 C 564.515625 338.898438 559.378906 341.054688 554.277344 343.304688 C 549.179688 345.550781 544.117188 347.882812 539.097656 350.304688 C 534.078125 352.726562 529.101562 355.238281 524.167969 357.832031 C 519.238281 360.425781 514.351562 363.101562 509.507812 365.867188 C 504.667969 368.628906 499.878906 371.476562 495.136719 374.40625 C 490.394531 377.332031 485.703125 380.34375 481.066406 383.433594 C 476.429688 386.527344 471.84375 389.695312 467.316406 392.945312 C 462.789062 396.195312 458.316406 399.523438 453.90625 402.925781 C 449.492188 406.328125 445.140625 409.808594 440.847656 413.363281 C 436.554688 416.917969 432.324219 420.546875 428.15625 424.246094 C 423.988281 427.949219 419.886719 431.71875 415.851562 435.5625 C 411.8125 439.40625 407.84375 443.316406 403.941406 447.296875 C 400.039062 451.277344 396.207031 455.324219 392.445312 459.4375 C 388.683594 463.550781 384.996094 467.726562 381.378906 471.964844 C 377.761719 476.207031 374.21875 480.507812 370.75 484.871094 C 367.28125 489.234375 363.890625 493.65625 360.574219 498.136719 C 357.257812 502.617188 354.019531 507.152344 350.863281 511.742188 C 347.703125 516.335938 344.625 520.980469 341.628906 525.679688 C 338.628906 530.378906 335.714844 535.125 332.878906 539.925781 C 330.046875 544.726562 327.296875 549.570312 324.628906 554.464844 C 321.964844 559.359375 319.382812 564.300781 316.886719 569.285156 L 356.550781 589.113281 C 358.0625 589.898438 359.515625 590.78125 360.90625 591.765625 C 362.296875 592.753906 363.613281 593.828125 364.855469 595 C 366.097656 596.167969 367.25 597.417969 368.316406 598.746094 C 369.382812 600.078125 370.351562 601.472656 371.226562 602.9375 C 372.097656 604.402344 372.863281 605.921875 373.523438 607.492188 C 374.183594 609.066406 374.730469 610.675781 375.167969 612.324219 C 375.601562 613.972656 375.921875 615.640625 376.125 617.335938 C 376.328125 619.027344 376.414062 620.726562 376.378906 622.429688 Z M 375.984375 836.800781 " fill-opacity="1" fill-rule="evenodd"/></svg>