<svg xmlns="http://www.w3.org/2000/svg" xmlns:xlink="http://www.w3.org/1999/xlink" width="2048" zoomAndPan="magnify" viewBox="0 0 1536 1535.999932" height="2048" preserveAspectRatio="xMidYMid meet" version="1.0"><defs><clipPath id="bc4927a094"><path d="M 110 105.316406 L 1426 105.316406 L 1426 1421 L 110 1421 Z M 110 105.316406 " clip-rule="nonzero"/></clipPath><clipPath id="e6d14dd41d"><path d="M 152 147 L 1384 147 L 1384 1379 L 152 1379 Z M 152 147 " clip-rule="nonzero"/></clipPath><clipPath id="597d14d72b"><path d="M 768.003906 147.394531 C 752.757812 147.394531 737.507812 153.039062 725.652344 165.183594 L 586.167969 304.683594 C 582.78125 308.074219 577.980469 310.050781 572.898438 310.050781 L 375.25 310.050781 C 341.648438 310.050781 315.109375 336.59375 315.109375 370.199219 L 315.109375 567.585938 C 315.109375 572.671875 313.132812 577.472656 309.742188 580.859375 L 170.261719 720.359375 C 146.542969 744.082031 146.542969 781.636719 170.261719 805.359375 L 309.742188 944.859375 C 313.132812 948.246094 315.109375 953.046875 315.109375 958.132812 L 315.109375 1155.519531 C 315.109375 1189.125 341.648438 1215.667969 375.25 1215.667969 L 572.613281 1215.667969 C 577.695312 1215.667969 582.496094 1217.644531 585.886719 1221.035156 L 725.367188 1360.535156 C 749.085938 1384.253906 786.640625 1384.253906 810.355469 1360.535156 L 949.839844 1221.035156 C 953.226562 1217.644531 958.027344 1215.667969 963.109375 1215.667969 L 1160.476562 1215.667969 C 1194.078125 1215.667969 1220.617188 1189.125 1220.617188 1155.519531 L 1220.617188 958.132812 C 1220.617188 953.046875 1222.59375 948.246094 1225.980469 944.859375 L 1365.464844 805.359375 C 1389.183594 781.636719 1389.183594 744.082031 1365.464844 720.359375 L 1225.980469 580.859375 C 1222.59375 577.472656 1220.617188 572.671875 1220.617188 567.585938 L 1220.617188 369.914062 C 1220.617188 336.3125 1194.078125 309.765625 1160.476562 309.765625 L 963.394531 309.765625 C 958.308594 309.765625 953.511719 307.789062 950.121094 304.402344 L 810.640625 164.902344 C 798.78125 153.039062 783.535156 147.394531 768.003906 147.394531 Z M 768.003906 147.394531 " clip-rule="nonzero"/></clipPath><linearGradient x1="3390.188065" gradientTransform="matrix(0.819392, 0, 0, -0.819492, -2628.41835, -635.560272)" y1="-951.834153" x2="4903.1102" gradientUnits="userSpaceOnUse" y2="-2464.755797" id="8410180b3c"><stop stop-opacity="1" stop-color="rgb(68.199158%, 83.499146%, 50.59967%)" offset="0"/><stop stop-opacity="1" stop-color="rgb(68.199158%, 83.499146%, 50.59967%)" offset="0.125"/><stop stop-opacity="1" stop-color="rgb(68.199158%, 83.499146%, 50.59967%)" offset="0.1875"/><stop stop-opacity="1" stop-color="rgb(68.199158%, 83.499146%, 50.59967%)" offset="0.21875"/><stop stop-opacity="1" stop-color="rgb(67.791748%, 83.351135%, 50.614929%)" offset="0.222656"/><stop stop-opacity="1" stop-color="rgb(67.385864%, 83.204651%, 50.631714%)" offset="0.226562"/><stop stop-opacity="1" stop-color="rgb(66.918945%, 83.035278%, 50.650024%)" offset="0.230469"/><stop stop-opacity="1" stop-color="rgb(66.452026%, 82.865906%, 50.668335%)" offset="0.234375"/><stop stop-opacity="1" stop-color="rgb(65.983582%, 82.696533%, 50.686646%)" offset="0.238281"/><stop stop-opacity="1" stop-color="rgb(65.516663%, 82.527161%, 50.704956%)" offset="0.242187"/><stop stop-opacity="1" stop-color="rgb(65.048218%, 82.357788%, 50.723267%)" offset="0.246094"/><stop stop-opacity="1" stop-color="rgb(64.581299%, 82.188416%, 50.743103%)" offset="0.25"/><stop stop-opacity="1" stop-color="rgb(64.112854%, 82.019043%, 50.761414%)" offset="0.253906"/><stop stop-opacity="1" stop-color="rgb(63.645935%, 81.84967%, 50.779724%)" offset="0.257812"/><stop stop-opacity="1" stop-color="rgb(63.17749%, 81.680298%, 50.798035%)" offset="0.261719"/><stop stop-opacity="1" stop-color="rgb(62.710571%, 81.510925%, 50.816345%)" offset="0.265625"/><stop stop-opacity="1" stop-color="rgb(62.242126%, 81.341553%, 50.834656%)" offset="0.269531"/><stop stop-opacity="1" stop-color="rgb(61.775208%, 81.17218%, 50.852966%)" offset="0.273437"/><stop stop-opacity="1" stop-color="rgb(61.306763%, 81.002808%, 50.871277%)" offset="0.277344"/><stop stop-opacity="1" stop-color="rgb(60.839844%, 80.833435%, 50.891113%)" offset="0.28125"/><stop stop-opacity="1" stop-color="rgb(60.372925%, 80.664062%, 50.909424%)" offset="0.285156"/><stop stop-opacity="1" stop-color="rgb(59.906006%, 80.496216%, 50.927734%)" offset="0.289062"/><stop stop-opacity="1" stop-color="rgb(59.437561%, 80.326843%, 50.946045%)" offset="0.292969"/><stop stop-opacity="1" stop-color="rgb(58.970642%, 80.157471%, 50.964355%)" offset="0.296875"/><stop stop-opacity="1" stop-color="rgb(58.502197%, 79.988098%, 50.982666%)" offset="0.300781"/><stop stop-opacity="1" stop-color="rgb(58.035278%, 79.818726%, 51.000977%)" offset="0.304688"/><stop stop-opacity="1" stop-color="rgb(57.566833%, 79.649353%, 51.019287%)" offset="0.308594"/><stop stop-opacity="1" stop-color="rgb(57.099915%, 79.47998%, 51.039124%)" offset="0.3125"/><stop stop-opacity="1" stop-color="rgb(56.63147%, 79.310608%, 51.057434%)" offset="0.316406"/><stop stop-opacity="1" stop-color="rgb(56.164551%, 79.141235%, 51.075745%)" offset="0.320312"/><stop stop-opacity="1" stop-color="rgb(55.696106%, 78.971863%, 51.094055%)" offset="0.324219"/><stop stop-opacity="1" stop-color="rgb(55.229187%, 78.80249%, 51.112366%)" offset="0.328125"/><stop stop-opacity="1" stop-color="rgb(54.762268%, 78.633118%, 51.130676%)" offset="0.332031"/><stop stop-opacity="1" stop-color="rgb(54.295349%, 78.463745%, 51.148987%)" offset="0.335938"/><stop stop-opacity="1" stop-color="rgb(53.826904%, 78.294373%, 51.167297%)" offset="0.339844"/><stop stop-opacity="1" stop-color="rgb(53.359985%, 78.125%, 51.187134%)" offset="0.34375"/><stop stop-opacity="1" stop-color="rgb(52.891541%, 77.955627%, 51.205444%)" offset="0.347656"/><stop stop-opacity="1" stop-color="rgb(52.424622%, 77.786255%, 51.223755%)" offset="0.351562"/><stop stop-opacity="1" stop-color="rgb(51.956177%, 77.616882%, 51.242065%)" offset="0.355469"/><stop stop-opacity="1" stop-color="rgb(51.489258%, 77.44751%, 51.260376%)" offset="0.359375"/><stop stop-opacity="1" stop-color="rgb(51.020813%, 77.278137%, 51.278687%)" offset="0.363281"/><stop stop-opacity="1" stop-color="rgb(50.553894%, 77.108765%, 51.298523%)" offset="0.367188"/><stop stop-opacity="1" stop-color="rgb(50.085449%, 76.939392%, 51.316833%)" offset="0.371094"/><stop stop-opacity="1" stop-color="rgb(49.61853%, 76.77002%, 51.335144%)" offset="0.375"/><stop stop-opacity="1" stop-color="rgb(49.150085%, 76.600647%, 51.353455%)" offset="0.378906"/><stop stop-opacity="1" stop-color="rgb(48.683167%, 76.431274%, 51.371765%)" offset="0.382812"/><stop stop-opacity="1" stop-color="rgb(48.216248%, 76.261902%, 51.390076%)" offset="0.386719"/><stop stop-opacity="1" stop-color="rgb(47.749329%, 76.092529%, 51.408386%)" offset="0.390625"/><stop stop-opacity="1" stop-color="rgb(47.280884%, 75.923157%, 51.426697%)" offset="0.394531"/><stop stop-opacity="1" stop-color="rgb(46.813965%, 75.753784%, 51.446533%)" offset="0.398438"/><stop stop-opacity="1" stop-color="rgb(46.34552%, 75.584412%, 51.464844%)" offset="0.402344"/><stop stop-opacity="1" stop-color="rgb(45.878601%, 75.415039%, 51.483154%)" offset="0.40625"/><stop stop-opacity="1" stop-color="rgb(45.410156%, 75.245667%, 51.501465%)" offset="0.410156"/><stop stop-opacity="1" stop-color="rgb(44.943237%, 75.076294%, 51.519775%)" offset="0.414062"/><stop stop-opacity="1" stop-color="rgb(44.474792%, 74.906921%, 51.538086%)" offset="0.417969"/><stop stop-opacity="1" stop-color="rgb(44.007874%, 74.737549%, 51.556396%)" offset="0.421875"/><stop stop-opacity="1" stop-color="rgb(43.539429%, 74.568176%, 51.574707%)" offset="0.425781"/><stop stop-opacity="1" stop-color="rgb(43.07251%, 74.398804%, 51.594543%)" offset="0.429688"/><stop stop-opacity="1" stop-color="rgb(42.604065%, 74.229431%, 51.612854%)" offset="0.433594"/><stop stop-opacity="1" stop-color="rgb(42.137146%, 74.060059%, 51.631165%)" offset="0.4375"/><stop stop-opacity="1" stop-color="rgb(41.670227%, 73.890686%, 51.649475%)" offset="0.441406"/><stop stop-opacity="1" stop-color="rgb(41.203308%, 73.721313%, 51.667786%)" offset="0.445312"/><stop stop-opacity="1" stop-color="rgb(40.734863%, 73.551941%, 51.686096%)" offset="0.449219"/><stop stop-opacity="1" stop-color="rgb(40.267944%, 73.382568%, 51.704407%)" offset="0.453125"/><stop stop-opacity="1" stop-color="rgb(39.7995%, 73.213196%, 51.722717%)" offset="0.457031"/><stop stop-opacity="1" stop-color="rgb(39.332581%, 73.043823%, 51.742554%)" offset="0.460938"/><stop stop-opacity="1" stop-color="rgb(38.864136%, 72.874451%, 51.760864%)" offset="0.464844"/><stop stop-opacity="1" stop-color="rgb(38.397217%, 72.705078%, 51.779175%)" offset="0.46875"/><stop stop-opacity="1" stop-color="rgb(37.928772%, 72.535706%, 51.797485%)" offset="0.472656"/><stop stop-opacity="1" stop-color="rgb(37.461853%, 72.367859%, 51.815796%)" offset="0.476562"/><stop stop-opacity="1" stop-color="rgb(36.993408%, 72.198486%, 51.834106%)" offset="0.480469"/><stop stop-opacity="1" stop-color="rgb(36.526489%, 72.029114%, 51.852417%)" offset="0.484375"/><stop stop-opacity="1" stop-color="rgb(36.058044%, 71.859741%, 51.870728%)" offset="0.488281"/><stop stop-opacity="1" stop-color="rgb(35.591125%, 71.690369%, 51.890564%)" offset="0.492188"/><stop stop-opacity="1" stop-color="rgb(35.124207%, 71.520996%, 51.908875%)" offset="0.496094"/><stop stop-opacity="1" stop-color="rgb(34.657288%, 71.351624%, 51.927185%)" offset="0.5"/><stop stop-opacity="1" stop-color="rgb(34.188843%, 71.182251%, 51.945496%)" offset="0.503906"/><stop stop-opacity="1" stop-color="rgb(33.721924%, 71.012878%, 51.963806%)" offset="0.507812"/><stop stop-opacity="1" stop-color="rgb(33.253479%, 70.843506%, 51.982117%)" offset="0.511719"/><stop stop-opacity="1" stop-color="rgb(32.78656%, 70.674133%, 52.001953%)" offset="0.515625"/><stop stop-opacity="1" stop-color="rgb(32.318115%, 70.504761%, 52.020264%)" offset="0.519531"/><stop stop-opacity="1" stop-color="rgb(31.851196%, 70.335388%, 52.038574%)" offset="0.523438"/><stop stop-opacity="1" stop-color="rgb(31.382751%, 70.166016%, 52.056885%)" offset="0.527344"/><stop stop-opacity="1" stop-color="rgb(30.915833%, 69.996643%, 52.075195%)" offset="0.53125"/><stop stop-opacity="1" stop-color="rgb(30.447388%, 69.827271%, 52.093506%)" offset="0.535156"/><stop stop-opacity="1" stop-color="rgb(29.980469%, 69.657898%, 52.111816%)" offset="0.539062"/><stop stop-opacity="1" stop-color="rgb(29.512024%, 69.488525%, 52.130127%)" offset="0.542969"/><stop stop-opacity="1" stop-color="rgb(29.045105%, 69.319153%, 52.149963%)" offset="0.546875"/><stop stop-opacity="1" stop-color="rgb(28.578186%, 69.14978%, 52.168274%)" offset="0.550781"/><stop stop-opacity="1" stop-color="rgb(28.111267%, 68.980408%, 52.186584%)" offset="0.554688"/><stop stop-opacity="1" stop-color="rgb(27.642822%, 68.811035%, 52.204895%)" offset="0.558594"/><stop stop-opacity="1" stop-color="rgb(27.175903%, 68.641663%, 52.223206%)" offset="0.5625"/><stop stop-opacity="1" stop-color="rgb(26.707458%, 68.47229%, 52.241516%)" offset="0.566406"/><stop stop-opacity="1" stop-color="rgb(26.24054%, 68.302917%, 52.259827%)" offset="0.570312"/><stop stop-opacity="1" stop-color="rgb(25.772095%, 68.133545%, 52.278137%)" offset="0.574219"/><stop stop-opacity="1" stop-color="rgb(25.305176%, 67.964172%, 52.297974%)" offset="0.578125"/><stop stop-opacity="1" stop-color="rgb(24.836731%, 67.7948%, 52.316284%)" offset="0.582031"/><stop stop-opacity="1" stop-color="rgb(24.369812%, 67.625427%, 52.334595%)" offset="0.585938"/><stop stop-opacity="1" stop-color="rgb(23.901367%, 67.456055%, 52.352905%)" offset="0.589844"/><stop stop-opacity="1" stop-color="rgb(23.434448%, 67.286682%, 52.371216%)" offset="0.59375"/><stop stop-opacity="1" stop-color="rgb(22.966003%, 67.11731%, 52.389526%)" offset="0.597656"/><stop stop-opacity="1" stop-color="rgb(22.499084%, 66.947937%, 52.407837%)" offset="0.601562"/><stop stop-opacity="1" stop-color="rgb(22.032166%, 66.778564%, 52.426147%)" offset="0.605469"/><stop stop-opacity="1" stop-color="rgb(21.565247%, 66.609192%, 52.445984%)" offset="0.609375"/><stop stop-opacity="1" stop-color="rgb(21.096802%, 66.439819%, 52.464294%)" offset="0.613281"/><stop stop-opacity="1" stop-color="rgb(20.629883%, 66.270447%, 52.482605%)" offset="0.617188"/><stop stop-opacity="1" stop-color="rgb(20.161438%, 66.101074%, 52.500916%)" offset="0.621094"/><stop stop-opacity="1" stop-color="rgb(19.694519%, 65.931702%, 52.519226%)" offset="0.625"/><stop stop-opacity="1" stop-color="rgb(19.226074%, 65.762329%, 52.537537%)" offset="0.628906"/><stop stop-opacity="1" stop-color="rgb(18.759155%, 65.592957%, 52.555847%)" offset="0.632812"/><stop stop-opacity="1" stop-color="rgb(18.29071%, 65.423584%, 52.574158%)" offset="0.636719"/><stop stop-opacity="1" stop-color="rgb(17.823792%, 65.254211%, 52.593994%)" offset="0.640625"/><stop stop-opacity="1" stop-color="rgb(17.355347%, 65.084839%, 52.612305%)" offset="0.644531"/><stop stop-opacity="1" stop-color="rgb(16.888428%, 64.915466%, 52.630615%)" offset="0.648438"/><stop stop-opacity="1" stop-color="rgb(16.421509%, 64.746094%, 52.648926%)" offset="0.652344"/><stop stop-opacity="1" stop-color="rgb(15.95459%, 64.578247%, 52.667236%)" offset="0.65625"/><stop stop-opacity="1" stop-color="rgb(15.486145%, 64.408875%, 52.685547%)" offset="0.660156"/><stop stop-opacity="1" stop-color="rgb(15.019226%, 64.239502%, 52.705383%)" offset="0.664062"/><stop stop-opacity="1" stop-color="rgb(14.550781%, 64.070129%, 52.723694%)" offset="0.667969"/><stop stop-opacity="1" stop-color="rgb(14.083862%, 63.900757%, 52.742004%)" offset="0.671875"/><stop stop-opacity="1" stop-color="rgb(13.615417%, 63.731384%, 52.760315%)" offset="0.675781"/><stop stop-opacity="1" stop-color="rgb(13.148499%, 63.562012%, 52.778625%)" offset="0.679688"/><stop stop-opacity="1" stop-color="rgb(12.680054%, 63.392639%, 52.796936%)" offset="0.683594"/><stop stop-opacity="1" stop-color="rgb(12.213135%, 63.223267%, 52.815247%)" offset="0.6875"/><stop stop-opacity="1" stop-color="rgb(11.74469%, 63.053894%, 52.833557%)" offset="0.691406"/><stop stop-opacity="1" stop-color="rgb(11.277771%, 62.884521%, 52.853394%)" offset="0.695312"/><stop stop-opacity="1" stop-color="rgb(10.809326%, 62.715149%, 52.871704%)" offset="0.699219"/><stop stop-opacity="1" stop-color="rgb(10.342407%, 62.545776%, 52.890015%)" offset="0.703125"/><stop stop-opacity="1" stop-color="rgb(9.875488%, 62.376404%, 52.908325%)" offset="0.707031"/><stop stop-opacity="1" stop-color="rgb(9.408569%, 62.207031%, 52.926636%)" offset="0.710938"/><stop stop-opacity="1" stop-color="rgb(8.940125%, 62.037659%, 52.944946%)" offset="0.714844"/><stop stop-opacity="1" stop-color="rgb(8.473206%, 61.868286%, 52.963257%)" offset="0.71875"/><stop stop-opacity="1" stop-color="rgb(8.004761%, 61.698914%, 52.981567%)" offset="0.722656"/><stop stop-opacity="1" stop-color="rgb(7.537842%, 61.529541%, 53.001404%)" offset="0.726562"/><stop stop-opacity="1" stop-color="rgb(7.069397%, 61.360168%, 53.019714%)" offset="0.730469"/><stop stop-opacity="1" stop-color="rgb(6.602478%, 61.190796%, 53.038025%)" offset="0.734375"/><stop stop-opacity="1" stop-color="rgb(6.134033%, 61.021423%, 53.056335%)" offset="0.738281"/><stop stop-opacity="1" stop-color="rgb(5.667114%, 60.852051%, 53.074646%)" offset="0.742188"/><stop stop-opacity="1" stop-color="rgb(5.198669%, 60.682678%, 53.092957%)" offset="0.746094"/><stop stop-opacity="1" stop-color="rgb(4.73175%, 60.513306%, 53.111267%)" offset="0.75"/><stop stop-opacity="1" stop-color="rgb(4.263306%, 60.343933%, 53.129578%)" offset="0.753906"/><stop stop-opacity="1" stop-color="rgb(3.796387%, 60.174561%, 53.149414%)" offset="0.757812"/><stop stop-opacity="1" stop-color="rgb(3.329468%, 60.005188%, 53.167725%)" offset="0.761719"/><stop stop-opacity="1" stop-color="rgb(2.862549%, 59.835815%, 53.186035%)" offset="0.765625"/><stop stop-opacity="1" stop-color="rgb(2.394104%, 59.666443%, 53.204346%)" offset="0.769531"/><stop stop-opacity="1" stop-color="rgb(1.927185%, 59.49707%, 53.222656%)" offset="0.773438"/><stop stop-opacity="1" stop-color="rgb(1.45874%, 59.327698%, 53.240967%)" offset="0.777344"/><stop stop-opacity="1" stop-color="rgb(0.991821%, 59.158325%, 53.259277%)" offset="0.78125"/><stop stop-opacity="1" stop-color="rgb(0.523376%, 58.988953%, 53.277588%)" offset="0.785156"/><stop stop-opacity="1" stop-color="rgb(0.0564575%, 58.81958%, 53.297424%)" offset="0.789062"/><stop stop-opacity="1" stop-color="rgb(0.0274658%, 58.808899%, 53.297424%)" offset="0.796875"/><stop stop-opacity="1" stop-color="rgb(0%, 58.799744%, 53.29895%)" offset="0.8125"/><stop stop-opacity="1" stop-color="rgb(0%, 58.799744%, 53.29895%)" offset="0.875"/><stop stop-opacity="1" stop-color="rgb(0%, 58.799744%, 53.29895%)" offset="1"/></linearGradient></defs><g clip-path="url(#bc4927a094)"><path fill="#e6f2d8" d="M 768.003906 105.316406 C 742.027344 105.316406 715.769531 115.484375 695.722656 135.25 L 563.015625 267.972656 L 375.25 267.972656 C 319.058594 267.972656 273.035156 314.003906 273.035156 370.199219 L 273.035156 557.984375 L 140.332031 690.707031 C 100.519531 730.527344 100.519531 795.476562 140.332031 835.007812 L 273.035156 967.730469 L 273.035156 1155.804688 C 273.035156 1212 319.058594 1258.027344 375.25 1258.027344 L 563.015625 1258.027344 L 695.722656 1390.75 C 735.53125 1430.566406 800.472656 1430.566406 840.003906 1390.75 L 972.710938 1258.027344 L 1160.476562 1258.027344 C 1216.664062 1258.027344 1262.6875 1212 1262.6875 1155.804688 L 1262.6875 968.015625 L 1395.394531 835.292969 C 1435.207031 795.476562 1435.207031 730.527344 1395.394531 690.992188 L 1262.6875 558.269531 L 1262.6875 370.199219 C 1262.6875 314.003906 1216.664062 267.972656 1160.476562 267.972656 L 972.710938 267.972656 L 840.003906 135.25 C 820.523438 115.484375 794.261719 105.316406 768.003906 105.316406 Z M 768.003906 105.316406 " fill-opacity="1" fill-rule="nonzero"/></g><g clip-path="url(#e6d14dd41d)"><g clip-path="url(#597d14d72b)"><path fill="url(#8410180b3c)" d="M 146.542969 1384.253906 L 146.542969 147.394531 L 1389.183594 147.394531 L 1389.183594 1384.253906 Z M 146.542969 1384.253906 " fill-rule="nonzero"/></g></g><path fill="#00988a" d="M 767.722656 381.210938 C 762.640625 385.730469 744.851562 406.0625 748.804688 419.050781 L 753.886719 424.132812 C 753.886719 424.132812 754.167969 424.417969 754.167969 424.417969 C 754.167969 424.699219 754.449219 424.699219 754.734375 424.980469 C 755.015625 425.261719 755.296875 425.546875 755.296875 425.828125 C 755.296875 426.109375 755.582031 426.109375 755.863281 426.394531 C 756.144531 426.675781 756.425781 426.957031 756.425781 427.242188 C 756.425781 427.523438 756.710938 427.523438 756.710938 427.804688 C 756.992188 428.085938 756.992188 428.371094 757.273438 428.371094 C 757.558594 428.652344 757.558594 428.652344 757.839844 428.933594 C 758.121094 429.21875 758.121094 429.5 758.402344 429.5 C 758.6875 429.78125 758.6875 430.0625 758.96875 430.347656 C 758.96875 430.628906 759.25 430.628906 759.25 430.910156 C 759.53125 431.195312 759.53125 431.476562 759.816406 431.757812 C 760.097656 432.039062 760.097656 432.324219 760.378906 432.605469 C 760.664062 432.886719 760.664062 433.171875 760.945312 433.453125 C 761.226562 433.734375 761.226562 434.019531 761.507812 434.300781 C 761.792969 434.582031 761.792969 434.863281 762.074219 435.148438 C 762.355469 435.429688 762.355469 435.710938 762.640625 435.996094 C 762.921875 436.277344 762.921875 436.558594 763.203125 436.839844 C 763.203125 437.125 763.484375 437.40625 763.484375 437.6875 C 763.769531 437.972656 763.769531 438.253906 764.050781 438.816406 C 764.050781 439.101562 764.332031 439.382812 764.332031 439.664062 C 764.617188 439.949219 764.617188 440.511719 764.898438 440.796875 C 764.898438 441.078125 765.179688 441.359375 765.179688 441.640625 C 765.460938 441.925781 765.460938 442.488281 765.746094 442.773438 C 765.746094 443.054688 766.027344 443.335938 766.027344 443.617188 C 766.308594 443.902344 766.308594 444.464844 766.59375 444.75 C 766.59375 445.03125 766.875 445.3125 766.875 445.597656 C 767.15625 446.160156 767.15625 446.441406 767.4375 447.007812 C 767.4375 447.289062 767.722656 447.574219 767.722656 447.855469 C 768.003906 448.417969 768.003906 448.984375 768.285156 449.550781 C 768.285156 449.832031 768.285156 450.113281 768.570312 450.113281 C 768.851562 450.960938 768.851562 451.808594 769.132812 452.371094 C 769.132812 452.371094 769.132812 452.65625 769.132812 452.65625 C 769.414062 453.503906 769.414062 454.066406 769.699219 454.914062 C 769.699219 455.195312 769.699219 455.480469 769.980469 455.761719 C 769.980469 456.328125 770.261719 456.890625 770.261719 457.457031 C 770.261719 457.738281 770.261719 458.304688 770.546875 458.585938 C 770.546875 459.148438 770.828125 459.714844 770.828125 460.28125 C 770.828125 460.5625 770.828125 461.128906 771.109375 461.410156 C 771.109375 461.972656 771.109375 462.539062 771.390625 463.105469 C 771.390625 463.667969 771.390625 463.949219 771.390625 464.515625 C 771.390625 465.082031 771.390625 465.644531 771.390625 465.925781 C 771.390625 466.492188 771.390625 467.058594 771.390625 467.339844 C 771.390625 467.90625 771.390625 468.46875 771.390625 469.035156 C 771.390625 469.597656 771.390625 469.882812 771.390625 470.445312 C 771.390625 471.011719 771.390625 471.574219 771.390625 472.421875 C 771.390625 472.988281 771.390625 473.269531 771.390625 473.835938 C 771.390625 474.398438 771.390625 475.246094 771.390625 475.8125 C 771.390625 476.375 771.390625 476.660156 771.390625 477.222656 C 771.390625 478.070312 771.390625 478.636719 771.390625 479.480469 C 771.390625 480.046875 771.390625 480.328125 771.390625 480.894531 C 771.390625 481.742188 771.390625 482.304688 771.390625 483.152344 C 771.390625 483.71875 771.390625 484 771.390625 484.566406 C 771.390625 485.414062 771.390625 486.257812 771.109375 487.105469 C 771.109375 487.671875 771.109375 487.953125 771.109375 488.519531 C 771.109375 489.929688 770.828125 491.058594 770.828125 492.472656 L 825.886719 547.539062 C 824.757812 550.363281 823.34375 552.621094 821.367188 554.878906 C 821.085938 555.164062 821.085938 555.445312 820.804688 555.445312 L 793.414062 528.054688 C 793.414062 528.054688 793.132812 527.769531 793.132812 527.769531 C 793.132812 527.769531 793.132812 527.769531 792.851562 527.769531 C 792.851562 527.769531 792.570312 527.769531 792.570312 527.769531 C 792.570312 527.769531 792.570312 527.769531 792.285156 527.769531 C 792.285156 527.769531 792.003906 527.769531 792.003906 527.769531 C 792.003906 527.769531 791.722656 527.769531 791.722656 527.769531 C 791.722656 527.769531 791.4375 527.769531 791.4375 527.769531 L 776.472656 530.03125 C 775.34375 530.3125 774.496094 531.160156 774.214844 532.289062 C 772.804688 540.195312 771.109375 549.515625 768.285156 557.703125 L 741.460938 530.878906 C 741.460938 530.878906 741.460938 530.878906 741.179688 530.59375 C 741.179688 530.59375 741.179688 530.59375 740.898438 530.3125 C 740.617188 530.3125 740.617188 530.03125 740.332031 530.03125 C 740.050781 530.03125 740.050781 530.03125 739.769531 530.03125 C 739.769531 530.03125 739.769531 530.03125 739.484375 530.03125 C 739.484375 530.03125 739.203125 530.03125 739.203125 530.03125 C 734.96875 530.59375 717.746094 537.65625 716.898438 541.042969 C 713.792969 554.597656 712.945312 561.65625 714.355469 574.363281 C 714.355469 575.210938 714.640625 576.058594 714.640625 576.90625 C 714.640625 577.1875 714.640625 577.472656 714.640625 577.753906 C 714.640625 578.316406 714.921875 578.882812 714.921875 579.164062 C 714.921875 579.449219 714.921875 579.730469 715.203125 580.011719 C 715.203125 580.578125 715.484375 580.859375 715.484375 581.425781 C 715.484375 581.707031 715.484375 581.988281 715.769531 582.273438 C 715.769531 582.835938 716.050781 583.117188 716.050781 583.683594 C 716.050781 583.964844 716.050781 584.25 716.332031 584.53125 C 716.332031 584.8125 716.617188 585.378906 716.617188 585.660156 C 716.617188 585.941406 716.617188 586.226562 716.898438 586.507812 C 716.898438 587.074219 717.179688 587.355469 717.179688 587.917969 C 717.179688 588.203125 717.179688 588.203125 717.460938 588.484375 C 717.746094 589.050781 717.746094 589.613281 718.027344 590.179688 C 718.027344 590.179688 718.027344 590.460938 718.027344 590.460938 C 718.308594 591.027344 718.308594 591.308594 718.59375 591.871094 C 718.59375 592.15625 718.875 592.15625 718.875 592.4375 C 719.15625 592.71875 719.15625 593.285156 719.4375 593.566406 C 719.4375 593.851562 719.722656 593.851562 719.722656 594.132812 C 720.003906 594.414062 720.003906 594.695312 720.285156 594.980469 C 720.285156 595.261719 720.566406 595.261719 720.566406 595.542969 C 720.851562 595.828125 720.851562 596.109375 721.132812 596.390625 C 721.132812 596.671875 721.414062 596.671875 721.414062 596.957031 C 721.699219 597.238281 721.699219 597.519531 721.980469 597.804688 C 721.980469 598.085938 722.261719 598.085938 722.261719 598.367188 C 722.542969 598.648438 722.828125 598.933594 722.828125 599.214844 C 722.828125 599.214844 723.109375 599.496094 723.109375 599.496094 C 723.390625 599.78125 723.675781 600.0625 723.957031 600.628906 L 788.898438 665.578125 C 788.332031 665.859375 787.769531 666.140625 787.203125 666.421875 C 784.945312 667.835938 782.96875 669.8125 780.992188 672.070312 C 777.039062 676.589844 773.652344 682.519531 770.261719 688.449219 C 767.15625 694.664062 764.332031 700.875 762.355469 706.242188 C 761.507812 708.78125 760.664062 711.324219 760.097656 713.300781 C 759.535156 715.277344 759.25 716.6875 758.96875 718.382812 C 759.25 729.113281 759.816406 739.84375 761.226562 750.292969 C 761.507812 753.398438 762.074219 756.222656 762.355469 759.328125 C 762.640625 762.4375 763.203125 765.257812 763.769531 768.367188 C 764.332031 771.191406 764.617188 774.296875 765.179688 777.121094 C 766.875 787.285156 769.132812 797.453125 771.390625 807.617188 C 771.957031 809.59375 772.238281 811.570312 772.804688 813.546875 L 648.851562 689.863281 C 648.851562 687.320312 646.875 685.34375 644.332031 685.34375 C 643.203125 685.34375 642.355469 685.34375 641.226562 685.625 C 639.53125 685.910156 638.121094 686.753906 636.710938 687.601562 C 636.144531 687.886719 635.578125 688.449219 635.015625 688.730469 C 634.449219 689.015625 633.886719 689.578125 633.320312 690.144531 C 632.191406 690.992188 631.0625 692.121094 630.214844 693.25 C 629.085938 694.378906 627.957031 695.507812 627.109375 696.640625 C 625.414062 698.332031 624.003906 700.308594 622.589844 702.285156 C 621.460938 703.699219 620.613281 705.109375 619.769531 706.242188 C 619.203125 706.804688 618.921875 707.652344 618.355469 708.21875 C 614.683594 713.863281 611.296875 719.511719 608.753906 724.59375 C 608.472656 725.160156 608.191406 725.726562 607.910156 726.289062 C 607.0625 727.984375 606.496094 729.679688 605.933594 731.089844 C 605.648438 731.9375 605.367188 732.785156 605.085938 733.632812 C 605.085938 733.914062 605.085938 734.195312 604.804688 734.480469 C 598.589844 737.867188 592.097656 741.257812 585.601562 744.925781 C 582.496094 746.621094 579.109375 748.597656 576.003906 750.292969 C 566.402344 755.660156 557.085938 761.304688 548.050781 766.953125 C 544.945312 768.929688 542.121094 770.625 539.015625 772.601562 C 512.472656 789.542969 489.601562 806.769531 476.050781 822.019531 C 469.554688 829.644531 464.191406 836.984375 459.390625 844.328125 C 457.980469 846.304688 456.847656 848.5625 455.4375 850.539062 C 450.917969 857.882812 447.25 864.941406 443.859375 872.285156 C 443.578125 872.851562 443.578125 873.132812 443.578125 873.695312 C 443.578125 874.261719 443.578125 875.109375 443.296875 875.671875 C 443.296875 875.957031 443.296875 875.957031 443.296875 876.238281 C 443.296875 876.804688 443.296875 877.648438 443.296875 878.214844 C 443.296875 878.214844 443.296875 878.496094 443.296875 878.496094 C 443.296875 879.0625 443.296875 879.628906 443.296875 880.191406 C 443.296875 880.191406 443.296875 880.472656 443.296875 880.472656 C 443.296875 881.039062 443.296875 881.605469 443.578125 882.167969 C 443.578125 882.167969 443.578125 882.449219 443.578125 882.449219 C 443.578125 883.015625 443.578125 883.582031 443.859375 884.144531 C 443.859375 884.144531 443.859375 884.429688 443.859375 884.429688 C 443.859375 884.992188 444.144531 885.558594 444.144531 886.121094 C 444.144531 886.121094 444.144531 886.40625 444.144531 886.40625 C 444.144531 886.96875 444.425781 887.535156 444.707031 888.097656 C 444.707031 888.097656 444.707031 888.382812 444.707031 888.382812 C 444.992188 888.945312 444.992188 889.511719 445.273438 890.074219 C 445.273438 890.074219 445.273438 890.359375 445.273438 890.359375 C 445.554688 890.921875 445.554688 891.207031 445.835938 891.769531 C 445.835938 891.769531 445.835938 892.050781 445.835938 892.050781 C 446.121094 892.617188 446.402344 893.183594 446.683594 893.464844 C 446.683594 893.464844 446.683594 893.746094 446.96875 893.746094 C 447.25 894.3125 447.53125 894.875 447.8125 895.160156 C 448.097656 895.722656 448.378906 896.289062 448.660156 896.570312 C 448.660156 896.570312 448.660156 896.851562 448.945312 896.851562 C 449.226562 897.417969 449.507812 897.699219 450.074219 898.265625 C 450.074219 898.265625 450.074219 898.265625 450.074219 898.546875 C 450.355469 898.828125 450.636719 899.394531 450.917969 899.675781 C 450.917969 899.675781 451.203125 899.960938 451.203125 899.960938 C 451.484375 900.523438 452.050781 900.804688 452.332031 901.371094 C 452.332031 901.371094 452.332031 901.371094 452.613281 901.652344 C 452.894531 901.9375 453.460938 902.5 453.742188 902.785156 C 453.742188 902.785156 453.742188 902.785156 454.027344 903.066406 L 861.460938 1310.550781 L 950.6875 1221.316406 C 954.074219 1217.929688 958.875 1215.953125 963.957031 1215.953125 L 1161.039062 1215.953125 C 1194.640625 1215.953125 1221.183594 1189.40625 1221.183594 1155.804688 L 1221.183594 958.132812 C 1221.183594 953.046875 1223.160156 948.246094 1226.546875 944.859375 L 1320.007812 851.386719 L 1059.109375 590.460938 C 1058.828125 589.050781 1057.417969 587.636719 1056.003906 587.355469 C 1055.441406 587.074219 1054.875 587.074219 1054.3125 587.074219 C 1053.746094 587.074219 1053.179688 587.074219 1052.617188 587.074219 C 1047.253906 587.355469 1043.300781 590.742188 1039.347656 594.695312 C 1035.675781 598.648438 1032.003906 603.734375 1028.898438 609.097656 C 1025.792969 614.464844 1023.25 619.828125 1021.273438 624.628906 C 1020.429688 626.890625 1019.582031 628.867188 1019.015625 630.84375 L 775.0625 386.859375 C 775.0625 386.859375 774.78125 386.578125 774.78125 386.578125 C 774.496094 386.292969 774.496094 386.292969 774.214844 386.011719 C 773.933594 385.730469 773.933594 385.730469 773.652344 385.445312 C 773.652344 385.445312 773.367188 385.164062 773.367188 385.164062 C 773.085938 384.882812 773.085938 384.882812 772.804688 384.601562 C 772.519531 384.316406 772.519531 384.316406 772.238281 384.316406 C 771.957031 384.035156 771.957031 384.035156 771.675781 383.753906 C 771.675781 383.753906 771.390625 383.46875 771.390625 383.46875 C 771.109375 383.1875 771.109375 383.1875 770.828125 382.90625 C 770.828125 382.90625 770.542969 382.621094 770.542969 382.621094 C 770.261719 382.621094 770.261719 382.339844 769.980469 382.339844 C 769.980469 382.339844 769.699219 382.058594 769.699219 382.058594 C 769.414062 382.058594 769.414062 381.777344 769.132812 381.777344 C 769.132812 381.777344 768.851562 381.492188 768.851562 381.492188 C 768.570312 381.492188 768.285156 381.210938 767.722656 381.210938 Z M 767.722656 381.210938 " fill-opacity="1" fill-rule="evenodd"/><path fill="#f1f8e9" d="M 767.722656 379.515625 C 767.4375 379.515625 766.875 379.800781 766.59375 379.800781 C 763.769531 382.339844 758.121094 388.554688 753.320312 395.894531 C 748.804688 403.238281 744.851562 411.992188 747.109375 419.332031 C 747.109375 419.617188 747.390625 419.898438 747.675781 420.179688 C 753.886719 425.828125 759.816406 432.605469 764.050781 443.335938 C 768.285156 454.066406 770.546875 469.316406 768.285156 491.90625 C 768.285156 492.753906 768.851562 493.601562 769.699219 493.601562 C 769.699219 493.601562 774.78125 493.882812 780.144531 493.882812 C 782.6875 493.882812 785.226562 493.882812 787.484375 493.882812 C 788.617188 493.882812 789.460938 493.882812 790.027344 493.601562 C 790.308594 493.601562 790.875 493.320312 791.15625 493.320312 C 791.4375 493.035156 792.003906 493.035156 792.285156 492.191406 C 801.605469 469.597656 801.039062 444.464844 795.675781 423.570312 C 790.308594 402.671875 779.863281 385.730469 768.003906 379.515625 C 768.285156 379.515625 768.003906 379.515625 767.722656 379.515625 Z M 854.121094 513.367188 C 854.121094 513.367188 853.839844 513.367188 853.839844 513.367188 C 852.144531 513.933594 846.5 515.0625 841.414062 516.476562 C 838.875 517.324219 836.332031 517.886719 834.355469 519.015625 C 833.226562 519.582031 832.378906 519.863281 831.816406 520.429688 C 830.96875 520.992188 830.402344 521.558594 830.121094 522.40625 C 830.121094 522.40625 830.121094 522.6875 830.121094 522.6875 C 828.710938 533.136719 826.734375 542.171875 823.34375 548.667969 C 819.675781 555.445312 814.875 559.679688 806.6875 561.375 C 804.144531 561.65625 802.167969 561.375 800.757812 560.808594 C 799.34375 560.246094 798.214844 559.117188 797.085938 557.140625 C 795.109375 553.1875 793.699219 544.433594 795.675781 530.03125 C 795.957031 527.207031 793.414062 524.664062 790.59375 525.230469 L 775.628906 527.488281 C 773.652344 527.769531 772.238281 529.183594 771.957031 531.160156 C 770.542969 540.195312 768.285156 551.492188 764.332031 559.964844 C 762.355469 564.199219 759.816406 567.585938 757.273438 569.5625 C 754.449219 571.824219 751.34375 572.671875 747.109375 572.386719 C 744.285156 572.105469 743.4375 571.257812 742.027344 569.28125 C 740.898438 567.304688 740.050781 564.199219 739.769531 560.246094 C 739.203125 552.339844 741.179688 541.890625 742.875 532.570312 C 743.4375 529.746094 740.898438 526.921875 738.074219 527.488281 C 736.664062 527.769531 734.96875 528.335938 732.425781 528.898438 C 730.167969 529.746094 727.628906 530.875 725.085938 532.007812 C 722.542969 533.136719 720.003906 534.546875 718.308594 535.675781 C 717.460938 536.242188 716.613281 536.808594 715.769531 537.652344 C 715.203125 538.21875 714.640625 539.066406 714.355469 539.914062 C 710.96875 553.46875 710.121094 561.09375 711.53125 573.800781 C 713.226562 588.484375 717.460938 597.804688 724.238281 602.886719 C 731.015625 607.96875 740.332031 607.96875 751.34375 605.144531 C 760.378906 602.605469 770.546875 596.957031 777.320312 585.09375 C 780.144531 588.484375 783.816406 591.589844 788.617188 593.851562 C 802.167969 599.214844 815.722656 597.238281 827.015625 590.742188 C 838.308594 584.25 847.34375 573.234375 852.144531 560.246094 C 856.664062 547.820312 857.226562 529.746094 858.355469 518.167969 C 858.640625 515.628906 856.664062 513.367188 854.121094 513.367188 Z M 1052.617188 585.09375 C 1046.6875 585.378906 1042.167969 589.050781 1038.214844 593.285156 C 1034.265625 597.519531 1030.875 602.605469 1027.769531 607.96875 C 1024.664062 613.335938 1021.839844 618.980469 1019.863281 623.78125 C 1017.886719 628.582031 1016.476562 631.972656 1016.476562 635.925781 C 1016.757812 742.386719 1041.324219 864.660156 1035.109375 956.152344 C 1035.109375 958.132812 1035.675781 959.824219 1037.085938 961.238281 C 1038.5 962.367188 1040.476562 962.929688 1042.167969 962.648438 C 1055.15625 960.390625 1063.628906 949.941406 1068.429688 938.082031 C 1073.230469 926.222656 1075.207031 912.667969 1075.488281 900.804688 C 1075.488281 900.523438 1075.488281 900.523438 1075.488281 900.242188 C 1073.230469 855.90625 1076.335938 807.898438 1070.6875 748.035156 C 1065.605469 693.816406 1060.523438 623.5 1060.523438 591.308594 C 1060.523438 588.765625 1058.546875 586.226562 1056.003906 585.378906 C 1055.15625 585.378906 1053.746094 585.09375 1052.617188 585.09375 Z M 920.476562 645.246094 C 913.980469 645.246094 909.746094 649.761719 905.792969 654.5625 C 902.121094 659.363281 898.453125 665.292969 895.628906 671.222656 C 892.523438 677.15625 889.980469 683.367188 888.003906 688.449219 C 887.15625 690.992188 886.308594 693.25 885.746094 695.226562 C 885.179688 697.203125 884.898438 698.617188 884.617188 700.59375 C 884.898438 772.035156 911.722656 835.292969 915.957031 898.828125 C 906.074219 908.714844 889.417969 910.691406 872.191406 904.195312 C 854.121094 897.417969 836.050781 882.167969 826.734375 860.140625 C 823.910156 834.164062 819.109375 809.59375 812.617188 773.449219 C 806.121094 738.996094 799.34375 693.816406 799.34375 668.398438 C 799.34375 665.578125 797.367188 663.035156 794.546875 662.46875 C 791.15625 661.621094 787.769531 662.753906 785.226562 664.164062 C 782.6875 665.578125 780.425781 667.835938 778.449219 670.09375 C 774.496094 674.613281 770.828125 680.824219 767.722656 687.039062 C 764.617188 693.25 761.792969 699.746094 759.816406 705.109375 C 758.6875 707.652344 758.121094 710.195312 757.554688 712.171875 C 756.992188 714.148438 756.425781 715.839844 756.425781 717.816406 C 756.425781 717.816406 756.425781 717.816406 756.425781 718.101562 C 757.273438 767.800781 770.828125 813.832031 779.863281 858.730469 C 780.425781 879.625 773.367188 892.617188 761.507812 901.371094 C 749.652344 910.40625 731.863281 914.925781 711.25 916.335938 C 699.390625 917.46875 686.96875 915.773438 676.238281 910.125 C 665.792969 904.757812 657.039062 896.003906 651.671875 881.320312 C 650.542969 865.507812 649.980469 847.152344 648.285156 818.632812 C 646.027344 784.179688 649.414062 716.6875 650.261719 690.425781 C 650.261719 688.730469 649.699219 687.039062 648.566406 685.910156 C 647.4375 684.777344 645.746094 683.929688 644.332031 683.929688 C 638.121094 683.929688 633.320312 687.886719 629.085938 692.121094 C 624.566406 696.355469 620.613281 702.003906 616.660156 707.652344 C 612.992188 713.300781 609.601562 719.230469 607.0625 724.03125 C 605.933594 726.570312 604.804688 728.832031 603.957031 730.808594 C 603.671875 731.65625 603.390625 732.785156 603.109375 733.632812 C 552.566406 760.457031 498.921875 793.5 474.636719 820.890625 C 459.671875 838.117188 450.074219 855.058594 442.167969 871.4375 C 441.882812 872.003906 441.601562 872.566406 441.601562 873.414062 C 439.625 889.511719 447.8125 902.21875 460.238281 910.691406 C 472.660156 918.878906 489.039062 923.679688 506.261719 926.222656 C 523.484375 929.042969 541.554688 929.609375 556.804688 929.042969 C 572.050781 928.480469 584.472656 927.066406 591.816406 924.246094 C 592.378906 923.960938 592.660156 923.960938 593.226562 923.679688 C 598.875 920.007812 603.390625 915.773438 607.34375 911.535156 C 607.34375 912.667969 607.625 913.796875 607.625 914.925781 L 607.625 914.644531 C 607.625 915.207031 607.625 915.488281 607.625 916.054688 C 612.707031 938.644531 623.15625 955.308594 638.402344 966.320312 C 653.648438 977.332031 672.851562 982.417969 695.15625 982.980469 C 695.15625 982.980469 695.15625 982.980469 695.4375 982.980469 C 727.910156 982.980469 751.910156 973.378906 768.285156 958.976562 C 780.992188 947.964844 789.179688 934.410156 794.546875 921.136719 C 802.734375 933.28125 811.769531 945.140625 823.628906 954.742188 C 838.875 966.886719 858.640625 974.507812 885.464844 973.664062 C 914.828125 973.378906 932.617188 959.824219 942.214844 940.339844 C 951.816406 920.855469 954.359375 896.570312 957.746094 872.285156 C 957.746094 871.15625 957.746094 870.308594 957.464844 869.460938 C 957.464844 869.179688 957.464844 869.179688 957.464844 868.894531 C 955.203125 832.183594 949.839844 804.511719 941.085938 756.789062 C 934.59375 722.335938 927.816406 677.152344 927.816406 651.738281 C 927.816406 648.914062 925.839844 646.375 923.015625 645.808594 C 922.453125 645.246094 921.320312 645.246094 920.476562 645.246094 Z M 602.542969 788.699219 C 602.542969 811.570312 602.542969 831.339844 603.109375 849.695312 C 585.886719 858.730469 559.910156 862.402344 538.167969 861.554688 C 526.589844 861.273438 516.144531 859.578125 508.800781 857.601562 C 505.132812 856.472656 502.308594 855.339844 500.898438 854.210938 C 500.613281 853.929688 500.332031 853.929688 500.050781 853.648438 C 500.332031 853.363281 500.332031 853.082031 500.898438 852.519531 C 502.308594 850.824219 504.847656 848.5625 507.957031 846.023438 C 514.449219 840.941406 524.050781 835.007812 534.496094 828.796875 C 555.671875 816.371094 581.367188 802.816406 598.589844 792.085938 C 598.875 792.085938 598.875 791.804688 599.15625 791.804688 C 600.285156 790.957031 601.414062 789.828125 602.542969 788.699219 Z M 602.542969 788.699219 " fill-opacity="1" fill-rule="evenodd"/></svg>