<svg xmlns="http://www.w3.org/2000/svg" xmlns:xlink="http://www.w3.org/1999/xlink" width="2048" zoomAndPan="magnify" viewBox="0 0 1536 1535.999932" height="2048" preserveAspectRatio="xMidYMid meet" version="1.0"><defs><clipPath id="3ac3880424"><path d="M 108 103.714844 L 1427 103.714844 L 1427 1422 L 108 1422 Z M 108 103.714844 " clip-rule="nonzero"/></clipPath><clipPath id="6ae852466e"><path d="M 150 145 L 1386 145 L 1386 1380 L 150 1380 Z M 150 145 " clip-rule="nonzero"/></clipPath><clipPath id="154357e0e1"><path d="M 767.875 145.765625 C 752.480469 145.765625 737.226562 151.550781 725.339844 163.46875 L 585.386719 303.421875 C 581.851562 306.957031 577.0625 308.925781 572.070312 308.925781 L 374.1875 308.925781 C 340.515625 308.925781 314.03125 335.4375 314.03125 369.078125 L 314.03125 566.992188 C 314.03125 571.980469 312.035156 576.769531 308.527344 580.304688 L 168.574219 720.257812 C 144.769531 744.0625 144.769531 781.550781 168.574219 805.328125 L 308.527344 945.28125 C 312.0625 948.816406 314.03125 953.605469 314.03125 958.59375 L 314.03125 1156.507812 C 314.03125 1190.175781 340.542969 1216.660156 374.1875 1216.660156 L 572.101562 1216.660156 C 577.089844 1216.660156 581.878906 1218.65625 585.414062 1222.164062 L 725.367188 1362.117188 C 749.171875 1385.921875 786.664062 1385.921875 810.441406 1362.117188 L 950.394531 1222.164062 C 953.929688 1218.628906 958.71875 1216.660156 963.707031 1216.660156 L 1161.621094 1216.660156 C 1195.292969 1216.660156 1221.777344 1190.148438 1221.777344 1156.507812 L 1221.777344 958.59375 C 1221.777344 953.605469 1223.773438 948.816406 1227.28125 945.28125 L 1367.234375 805.328125 C 1391.039062 781.523438 1391.039062 744.035156 1367.234375 720.257812 L 1227.28125 580.304688 C 1223.746094 576.769531 1221.777344 571.980469 1221.777344 566.992188 L 1221.777344 369.078125 C 1221.777344 335.410156 1195.265625 308.925781 1161.621094 308.925781 L 963.707031 308.925781 C 958.71875 308.925781 953.929688 306.929688 950.394531 303.421875 L 810.441406 163.46875 C 798.523438 151.550781 783.269531 145.765625 767.875 145.765625 Z M 767.875 145.765625 " clip-rule="nonzero"/></clipPath><linearGradient x1="3491.585634" gradientTransform="matrix(3.278038, 0, 0, -3.278004, -11297.566868, -1971.651813)" y1="-644.966612" x2="3870.842862" gradientUnits="userSpaceOnUse" y2="-1024.223893" id="7b2e1654fb"><stop stop-opacity="1" stop-color="rgb(67.498779%, 83.099365%, 50.59967%)" offset="0"/><stop stop-opacity="1" stop-color="rgb(67.498779%, 83.099365%, 50.59967%)" offset="0.125"/><stop stop-opacity="1" stop-color="rgb(67.498779%, 83.099365%, 50.59967%)" offset="0.1875"/><stop stop-opacity="1" stop-color="rgb(67.498779%, 83.099365%, 50.59967%)" offset="0.21875"/><stop stop-opacity="1" stop-color="rgb(67.152405%, 82.975769%, 50.611877%)" offset="0.222656"/><stop stop-opacity="1" stop-color="rgb(66.807556%, 82.853699%, 50.62561%)" offset="0.226562"/><stop stop-opacity="1" stop-color="rgb(66.381836%, 82.702637%, 50.640869%)" offset="0.230469"/><stop stop-opacity="1" stop-color="rgb(65.956116%, 82.551575%, 50.656128%)" offset="0.234375"/><stop stop-opacity="1" stop-color="rgb(65.530396%, 82.398987%, 50.671387%)" offset="0.238281"/><stop stop-opacity="1" stop-color="rgb(65.106201%, 82.247925%, 50.688171%)" offset="0.242187"/><stop stop-opacity="1" stop-color="rgb(64.680481%, 82.096863%, 50.70343%)" offset="0.246094"/><stop stop-opacity="1" stop-color="rgb(64.254761%, 81.945801%, 50.720215%)" offset="0.25"/><stop stop-opacity="1" stop-color="rgb(63.829041%, 81.794739%, 50.735474%)" offset="0.253906"/><stop stop-opacity="1" stop-color="rgb(63.40332%, 81.643677%, 50.752258%)" offset="0.257812"/><stop stop-opacity="1" stop-color="rgb(62.9776%, 81.491089%, 50.767517%)" offset="0.261719"/><stop stop-opacity="1" stop-color="rgb(62.55188%, 81.340027%, 50.784302%)" offset="0.265625"/><stop stop-opacity="1" stop-color="rgb(62.12616%, 81.188965%, 50.799561%)" offset="0.269531"/><stop stop-opacity="1" stop-color="rgb(61.701965%, 81.037903%, 50.816345%)" offset="0.273438"/><stop stop-opacity="1" stop-color="rgb(61.276245%, 80.886841%, 50.831604%)" offset="0.277344"/><stop stop-opacity="1" stop-color="rgb(60.850525%, 80.735779%, 50.846863%)" offset="0.28125"/><stop stop-opacity="1" stop-color="rgb(60.424805%, 80.583191%, 50.862122%)" offset="0.285156"/><stop stop-opacity="1" stop-color="rgb(59.999084%, 80.432129%, 50.878906%)" offset="0.289062"/><stop stop-opacity="1" stop-color="rgb(59.573364%, 80.281067%, 50.894165%)" offset="0.292969"/><stop stop-opacity="1" stop-color="rgb(59.147644%, 80.130005%, 50.91095%)" offset="0.296875"/><stop stop-opacity="1" stop-color="rgb(58.721924%, 79.978943%, 50.926208%)" offset="0.300781"/><stop stop-opacity="1" stop-color="rgb(58.296204%, 79.827881%, 50.942993%)" offset="0.304687"/><stop stop-opacity="1" stop-color="rgb(57.870483%, 79.676819%, 50.958252%)" offset="0.308594"/><stop stop-opacity="1" stop-color="rgb(57.446289%, 79.525757%, 50.975037%)" offset="0.3125"/><stop stop-opacity="1" stop-color="rgb(57.020569%, 79.373169%, 50.990295%)" offset="0.316406"/><stop stop-opacity="1" stop-color="rgb(56.594849%, 79.222107%, 51.00708%)" offset="0.320312"/><stop stop-opacity="1" stop-color="rgb(56.169128%, 79.071045%, 51.022339%)" offset="0.324219"/><stop stop-opacity="1" stop-color="rgb(55.743408%, 78.919983%, 51.037598%)" offset="0.328125"/><stop stop-opacity="1" stop-color="rgb(55.317688%, 78.768921%, 51.052856%)" offset="0.332031"/><stop stop-opacity="1" stop-color="rgb(54.891968%, 78.617859%, 51.069641%)" offset="0.335937"/><stop stop-opacity="1" stop-color="rgb(54.466248%, 78.465271%, 51.0849%)" offset="0.339844"/><stop stop-opacity="1" stop-color="rgb(54.042053%, 78.314209%, 51.101685%)" offset="0.34375"/><stop stop-opacity="1" stop-color="rgb(53.616333%, 78.163147%, 51.116943%)" offset="0.347656"/><stop stop-opacity="1" stop-color="rgb(53.190613%, 78.012085%, 51.133728%)" offset="0.351562"/><stop stop-opacity="1" stop-color="rgb(52.764893%, 77.861023%, 51.148987%)" offset="0.355469"/><stop stop-opacity="1" stop-color="rgb(52.339172%, 77.709961%, 51.165771%)" offset="0.359375"/><stop stop-opacity="1" stop-color="rgb(51.913452%, 77.557373%, 51.18103%)" offset="0.363281"/><stop stop-opacity="1" stop-color="rgb(51.487732%, 77.406311%, 51.197815%)" offset="0.367187"/><stop stop-opacity="1" stop-color="rgb(51.062012%, 77.255249%, 51.213074%)" offset="0.371094"/><stop stop-opacity="1" stop-color="rgb(50.636292%, 77.104187%, 51.228333%)" offset="0.375"/><stop stop-opacity="1" stop-color="rgb(50.210571%, 76.953125%, 51.243591%)" offset="0.378906"/><stop stop-opacity="1" stop-color="rgb(49.786377%, 76.802063%, 51.260376%)" offset="0.382812"/><stop stop-opacity="1" stop-color="rgb(49.360657%, 76.651001%, 51.275635%)" offset="0.386719"/><stop stop-opacity="1" stop-color="rgb(48.934937%, 76.499939%, 51.292419%)" offset="0.390625"/><stop stop-opacity="1" stop-color="rgb(48.509216%, 76.347351%, 51.307678%)" offset="0.394531"/><stop stop-opacity="1" stop-color="rgb(48.083496%, 76.196289%, 51.324463%)" offset="0.398437"/><stop stop-opacity="1" stop-color="rgb(47.657776%, 76.045227%, 51.339722%)" offset="0.402344"/><stop stop-opacity="1" stop-color="rgb(47.232056%, 75.894165%, 51.356506%)" offset="0.40625"/><stop stop-opacity="1" stop-color="rgb(46.806335%, 75.743103%, 51.371765%)" offset="0.410156"/><stop stop-opacity="1" stop-color="rgb(46.382141%, 75.592041%, 51.387024%)" offset="0.414062"/><stop stop-opacity="1" stop-color="rgb(45.956421%, 75.439453%, 51.402283%)" offset="0.417969"/><stop stop-opacity="1" stop-color="rgb(45.530701%, 75.288391%, 51.419067%)" offset="0.421875"/><stop stop-opacity="1" stop-color="rgb(45.10498%, 75.137329%, 51.434326%)" offset="0.425781"/><stop stop-opacity="1" stop-color="rgb(44.67926%, 74.986267%, 51.451111%)" offset="0.429687"/><stop stop-opacity="1" stop-color="rgb(44.25354%, 74.835205%, 51.46637%)" offset="0.433594"/><stop stop-opacity="1" stop-color="rgb(43.82782%, 74.684143%, 51.483154%)" offset="0.4375"/><stop stop-opacity="1" stop-color="rgb(43.4021%, 74.531555%, 51.498413%)" offset="0.441406"/><stop stop-opacity="1" stop-color="rgb(42.976379%, 74.380493%, 51.515198%)" offset="0.445312"/><stop stop-opacity="1" stop-color="rgb(42.550659%, 74.229431%, 51.530457%)" offset="0.449219"/><stop stop-opacity="1" stop-color="rgb(42.126465%, 74.078369%, 51.547241%)" offset="0.453125"/><stop stop-opacity="1" stop-color="rgb(41.700745%, 73.927307%, 51.5625%)" offset="0.457031"/><stop stop-opacity="1" stop-color="rgb(41.275024%, 73.776245%, 51.577759%)" offset="0.460937"/><stop stop-opacity="1" stop-color="rgb(40.849304%, 73.623657%, 51.593018%)" offset="0.464844"/><stop stop-opacity="1" stop-color="rgb(40.423584%, 73.472595%, 51.609802%)" offset="0.46875"/><stop stop-opacity="1" stop-color="rgb(39.997864%, 73.321533%, 51.625061%)" offset="0.472656"/><stop stop-opacity="1" stop-color="rgb(39.572144%, 73.170471%, 51.641846%)" offset="0.476562"/><stop stop-opacity="1" stop-color="rgb(39.146423%, 73.019409%, 51.657104%)" offset="0.480469"/><stop stop-opacity="1" stop-color="rgb(38.722229%, 72.868347%, 51.673889%)" offset="0.484375"/><stop stop-opacity="1" stop-color="rgb(38.296509%, 72.717285%, 51.689148%)" offset="0.488281"/><stop stop-opacity="1" stop-color="rgb(37.870789%, 72.566223%, 51.705933%)" offset="0.492187"/><stop stop-opacity="1" stop-color="rgb(37.445068%, 72.413635%, 51.721191%)" offset="0.496094"/><stop stop-opacity="1" stop-color="rgb(37.019348%, 72.262573%, 51.737976%)" offset="0.5"/><stop stop-opacity="1" stop-color="rgb(36.593628%, 72.111511%, 51.753235%)" offset="0.503906"/><stop stop-opacity="1" stop-color="rgb(36.167908%, 71.960449%, 51.768494%)" offset="0.507812"/><stop stop-opacity="1" stop-color="rgb(35.742188%, 71.809387%, 51.783752%)" offset="0.511719"/><stop stop-opacity="1" stop-color="rgb(35.316467%, 71.658325%, 51.800537%)" offset="0.515625"/><stop stop-opacity="1" stop-color="rgb(34.890747%, 71.505737%, 51.815796%)" offset="0.519531"/><stop stop-opacity="1" stop-color="rgb(34.466553%, 71.354675%, 51.832581%)" offset="0.523438"/><stop stop-opacity="1" stop-color="rgb(34.040833%, 71.203613%, 51.847839%)" offset="0.527344"/><stop stop-opacity="1" stop-color="rgb(33.615112%, 71.052551%, 51.864624%)" offset="0.53125"/><stop stop-opacity="1" stop-color="rgb(33.189392%, 70.901489%, 51.879883%)" offset="0.535156"/><stop stop-opacity="1" stop-color="rgb(32.763672%, 70.750427%, 51.896667%)" offset="0.539062"/><stop stop-opacity="1" stop-color="rgb(32.337952%, 70.597839%, 51.911926%)" offset="0.542969"/><stop stop-opacity="1" stop-color="rgb(31.912231%, 70.446777%, 51.928711%)" offset="0.546875"/><stop stop-opacity="1" stop-color="rgb(31.486511%, 70.295715%, 51.94397%)" offset="0.550781"/><stop stop-opacity="1" stop-color="rgb(31.062317%, 70.144653%, 51.959229%)" offset="0.554688"/><stop stop-opacity="1" stop-color="rgb(30.636597%, 69.993591%, 51.974487%)" offset="0.558594"/><stop stop-opacity="1" stop-color="rgb(30.210876%, 69.842529%, 51.991272%)" offset="0.5625"/><stop stop-opacity="1" stop-color="rgb(29.785156%, 69.691467%, 52.006531%)" offset="0.566406"/><stop stop-opacity="1" stop-color="rgb(29.359436%, 69.540405%, 52.023315%)" offset="0.570312"/><stop stop-opacity="1" stop-color="rgb(28.933716%, 69.387817%, 52.038574%)" offset="0.574219"/><stop stop-opacity="1" stop-color="rgb(28.507996%, 69.236755%, 52.055359%)" offset="0.578125"/><stop stop-opacity="1" stop-color="rgb(28.082275%, 69.085693%, 52.070618%)" offset="0.582031"/><stop stop-opacity="1" stop-color="rgb(27.656555%, 68.934631%, 52.087402%)" offset="0.585938"/><stop stop-opacity="1" stop-color="rgb(27.230835%, 68.783569%, 52.102661%)" offset="0.589844"/><stop stop-opacity="1" stop-color="rgb(26.806641%, 68.632507%, 52.11792%)" offset="0.59375"/><stop stop-opacity="1" stop-color="rgb(26.38092%, 68.479919%, 52.133179%)" offset="0.597656"/><stop stop-opacity="1" stop-color="rgb(25.9552%, 68.328857%, 52.149963%)" offset="0.601562"/><stop stop-opacity="1" stop-color="rgb(25.52948%, 68.177795%, 52.165222%)" offset="0.605469"/><stop stop-opacity="1" stop-color="rgb(25.10376%, 68.026733%, 52.182007%)" offset="0.609375"/><stop stop-opacity="1" stop-color="rgb(24.67804%, 67.875671%, 52.197266%)" offset="0.613281"/><stop stop-opacity="1" stop-color="rgb(24.252319%, 67.724609%, 52.21405%)" offset="0.617188"/><stop stop-opacity="1" stop-color="rgb(23.826599%, 67.572021%, 52.229309%)" offset="0.621094"/><stop stop-opacity="1" stop-color="rgb(23.402405%, 67.420959%, 52.246094%)" offset="0.625"/><stop stop-opacity="1" stop-color="rgb(22.976685%, 67.269897%, 52.261353%)" offset="0.628906"/><stop stop-opacity="1" stop-color="rgb(22.550964%, 67.118835%, 52.278137%)" offset="0.632812"/><stop stop-opacity="1" stop-color="rgb(22.125244%, 66.967773%, 52.293396%)" offset="0.636719"/><stop stop-opacity="1" stop-color="rgb(21.699524%, 66.816711%, 52.308655%)" offset="0.640625"/><stop stop-opacity="1" stop-color="rgb(21.273804%, 66.665649%, 52.323914%)" offset="0.644531"/><stop stop-opacity="1" stop-color="rgb(20.848083%, 66.514587%, 52.340698%)" offset="0.648437"/><stop stop-opacity="1" stop-color="rgb(20.422363%, 66.362%, 52.355957%)" offset="0.652344"/><stop stop-opacity="1" stop-color="rgb(19.996643%, 66.210938%, 52.372742%)" offset="0.65625"/><stop stop-opacity="1" stop-color="rgb(19.570923%, 66.059875%, 52.388%)" offset="0.660156"/><stop stop-opacity="1" stop-color="rgb(19.146729%, 65.908813%, 52.404785%)" offset="0.664062"/><stop stop-opacity="1" stop-color="rgb(18.721008%, 65.757751%, 52.420044%)" offset="0.667969"/><stop stop-opacity="1" stop-color="rgb(18.295288%, 65.606689%, 52.436829%)" offset="0.671875"/><stop stop-opacity="1" stop-color="rgb(17.869568%, 65.454102%, 52.452087%)" offset="0.675781"/><stop stop-opacity="1" stop-color="rgb(17.443848%, 65.30304%, 52.468872%)" offset="0.679688"/><stop stop-opacity="1" stop-color="rgb(17.018127%, 65.151978%, 52.484131%)" offset="0.683594"/><stop stop-opacity="1" stop-color="rgb(16.592407%, 65.000916%, 52.49939%)" offset="0.6875"/><stop stop-opacity="1" stop-color="rgb(16.166687%, 64.849854%, 52.514648%)" offset="0.691406"/><stop stop-opacity="1" stop-color="rgb(15.742493%, 64.698792%, 52.531433%)" offset="0.695312"/><stop stop-opacity="1" stop-color="rgb(15.316772%, 64.546204%, 52.546692%)" offset="0.699219"/><stop stop-opacity="1" stop-color="rgb(14.891052%, 64.395142%, 52.563477%)" offset="0.703125"/><stop stop-opacity="1" stop-color="rgb(14.465332%, 64.24408%, 52.578735%)" offset="0.707031"/><stop stop-opacity="1" stop-color="rgb(14.039612%, 64.093018%, 52.59552%)" offset="0.710938"/><stop stop-opacity="1" stop-color="rgb(13.613892%, 63.941956%, 52.610779%)" offset="0.714844"/><stop stop-opacity="1" stop-color="rgb(13.188171%, 63.790894%, 52.627563%)" offset="0.71875"/><stop stop-opacity="1" stop-color="rgb(12.762451%, 63.639832%, 52.642822%)" offset="0.722656"/><stop stop-opacity="1" stop-color="rgb(12.336731%, 63.48877%, 52.659607%)" offset="0.726562"/><stop stop-opacity="1" stop-color="rgb(11.911011%, 63.336182%, 52.674866%)" offset="0.730469"/><stop stop-opacity="1" stop-color="rgb(11.486816%, 63.18512%, 52.690125%)" offset="0.734375"/><stop stop-opacity="1" stop-color="rgb(11.061096%, 63.034058%, 52.705383%)" offset="0.738281"/><stop stop-opacity="1" stop-color="rgb(10.635376%, 62.882996%, 52.722168%)" offset="0.742188"/><stop stop-opacity="1" stop-color="rgb(10.209656%, 62.731934%, 52.737427%)" offset="0.746094"/><stop stop-opacity="1" stop-color="rgb(9.783936%, 62.580872%, 52.754211%)" offset="0.75"/><stop stop-opacity="1" stop-color="rgb(9.358215%, 62.428284%, 52.76947%)" offset="0.753906"/><stop stop-opacity="1" stop-color="rgb(8.932495%, 62.277222%, 52.786255%)" offset="0.757812"/><stop stop-opacity="1" stop-color="rgb(8.506775%, 62.12616%, 52.801514%)" offset="0.761719"/><stop stop-opacity="1" stop-color="rgb(8.082581%, 61.975098%, 52.818298%)" offset="0.765625"/><stop stop-opacity="1" stop-color="rgb(7.65686%, 61.824036%, 52.833557%)" offset="0.769531"/><stop stop-opacity="1" stop-color="rgb(7.23114%, 61.672974%, 52.848816%)" offset="0.773437"/><stop stop-opacity="1" stop-color="rgb(6.80542%, 61.520386%, 52.864075%)" offset="0.777344"/><stop stop-opacity="1" stop-color="rgb(6.3797%, 61.369324%, 52.880859%)" offset="0.78125"/><stop stop-opacity="1" stop-color="rgb(6.138611%, 61.283875%, 52.890015%)" offset="0.785156"/><stop stop-opacity="1" stop-color="rgb(5.899048%, 61.199951%, 52.89917%)" offset="0.789062"/><stop stop-opacity="1" stop-color="rgb(5.899048%, 61.199951%, 52.89917%)" offset="0.796875"/><stop stop-opacity="1" stop-color="rgb(5.899048%, 61.199951%, 52.89917%)" offset="0.8125"/><stop stop-opacity="1" stop-color="rgb(5.899048%, 61.199951%, 52.89917%)" offset="0.875"/><stop stop-opacity="1" stop-color="rgb(5.899048%, 61.199951%, 52.89917%)" offset="1"/></linearGradient><clipPath id="9bcc0ab39f"><path d="M 462 469 L 1074 469 L 1074 998 L 462 998 Z M 462 469 " clip-rule="nonzero"/></clipPath><clipPath id="2510369a20"><path d="M 766.023438 543.585938 C 838.007812 491.695312 937.050781 423.390625 1018.929688 514.304688 C 1139.183594 675.609375 1035.980469 769.464844 959.289062 850.828125 C 902.214844 910.300781 849.128906 955.742188 793.875 997.679688 L 738.851562 997.679688 C 675.648438 956.511719 627.464844 901.320312 578.085938 847.265625 C 474.367188 755.695312 413.699219 653.34375 514.113281 510.742188 C 590.800781 431.800781 678.15625 484.285156 766.023438 543.585938 Z M 766.023438 543.585938 " clip-rule="evenodd"/></clipPath><linearGradient x1="13266.752547" gradientTransform="matrix(2.850963, 0, 0, -2.850934, -37346.74832, -17146.821344)" y1="-6141.017451" x2="13494.706075" gradientUnits="userSpaceOnUse" y2="-6368.973631" id="e6829faea6"><stop stop-opacity="1" stop-color="rgb(46.299744%, 75.698853%, 51.399231%)" offset="0"/><stop stop-opacity="1" stop-color="rgb(46.299744%, 75.698853%, 51.399231%)" offset="0.25"/><stop stop-opacity="1" stop-color="rgb(46.176147%, 75.654602%, 51.403809%)" offset="0.265625"/><stop stop-opacity="1" stop-color="rgb(45.756531%, 75.506592%, 51.419067%)" offset="0.269531"/><stop stop-opacity="1" stop-color="rgb(45.458984%, 75.401306%, 51.431274%)" offset="0.273438"/><stop stop-opacity="1" stop-color="rgb(45.161438%, 75.294495%, 51.441956%)" offset="0.277344"/><stop stop-opacity="1" stop-color="rgb(44.865417%, 75.189209%, 51.454163%)" offset="0.28125"/><stop stop-opacity="1" stop-color="rgb(44.567871%, 75.083923%, 51.464844%)" offset="0.285156"/><stop stop-opacity="1" stop-color="rgb(44.270325%, 74.978638%, 51.477051%)" offset="0.289062"/><stop stop-opacity="1" stop-color="rgb(43.972778%, 74.871826%, 51.487732%)" offset="0.292969"/><stop stop-opacity="1" stop-color="rgb(43.675232%, 74.766541%, 51.499939%)" offset="0.296875"/><stop stop-opacity="1" stop-color="rgb(43.377686%, 74.661255%, 51.51062%)" offset="0.300781"/><stop stop-opacity="1" stop-color="rgb(43.081665%, 74.555969%, 51.522827%)" offset="0.304688"/><stop stop-opacity="1" stop-color="rgb(42.784119%, 74.449158%, 51.533508%)" offset="0.308594"/><stop stop-opacity="1" stop-color="rgb(42.486572%, 74.343872%, 51.545715%)" offset="0.3125"/><stop stop-opacity="1" stop-color="rgb(42.189026%, 74.238586%, 51.556396%)" offset="0.316406"/><stop stop-opacity="1" stop-color="rgb(41.891479%, 74.133301%, 51.568604%)" offset="0.320312"/><stop stop-opacity="1" stop-color="rgb(41.593933%, 74.026489%, 51.579285%)" offset="0.324219"/><stop stop-opacity="1" stop-color="rgb(41.297913%, 73.921204%, 51.591492%)" offset="0.328125"/><stop stop-opacity="1" stop-color="rgb(41.000366%, 73.815918%, 51.602173%)" offset="0.332031"/><stop stop-opacity="1" stop-color="rgb(40.70282%, 73.710632%, 51.61438%)" offset="0.335937"/><stop stop-opacity="1" stop-color="rgb(40.405273%, 73.603821%, 51.625061%)" offset="0.339844"/><stop stop-opacity="1" stop-color="rgb(40.107727%, 73.498535%, 51.637268%)" offset="0.34375"/><stop stop-opacity="1" stop-color="rgb(39.810181%, 73.39325%, 51.647949%)" offset="0.347656"/><stop stop-opacity="1" stop-color="rgb(39.51416%, 73.287964%, 51.65863%)" offset="0.351562"/><stop stop-opacity="1" stop-color="rgb(39.216614%, 73.181152%, 51.669312%)" offset="0.355469"/><stop stop-opacity="1" stop-color="rgb(38.919067%, 73.075867%, 51.681519%)" offset="0.359375"/><stop stop-opacity="1" stop-color="rgb(38.621521%, 72.970581%, 51.6922%)" offset="0.363281"/><stop stop-opacity="1" stop-color="rgb(38.323975%, 72.865295%, 51.704407%)" offset="0.367188"/><stop stop-opacity="1" stop-color="rgb(38.026428%, 72.758484%, 51.715088%)" offset="0.371094"/><stop stop-opacity="1" stop-color="rgb(37.730408%, 72.653198%, 51.727295%)" offset="0.375"/><stop stop-opacity="1" stop-color="rgb(37.432861%, 72.547913%, 51.737976%)" offset="0.378906"/><stop stop-opacity="1" stop-color="rgb(37.135315%, 72.442627%, 51.750183%)" offset="0.382812"/><stop stop-opacity="1" stop-color="rgb(36.837769%, 72.335815%, 51.760864%)" offset="0.386719"/><stop stop-opacity="1" stop-color="rgb(36.541748%, 72.23053%, 51.773071%)" offset="0.390625"/><stop stop-opacity="1" stop-color="rgb(36.244202%, 72.125244%, 51.783752%)" offset="0.394531"/><stop stop-opacity="1" stop-color="rgb(35.946655%, 72.019958%, 51.795959%)" offset="0.398437"/><stop stop-opacity="1" stop-color="rgb(35.649109%, 71.913147%, 51.806641%)" offset="0.402344"/><stop stop-opacity="1" stop-color="rgb(35.351562%, 71.807861%, 51.818848%)" offset="0.40625"/><stop stop-opacity="1" stop-color="rgb(35.054016%, 71.702576%, 51.829529%)" offset="0.410156"/><stop stop-opacity="1" stop-color="rgb(34.757996%, 71.59729%, 51.841736%)" offset="0.414062"/><stop stop-opacity="1" stop-color="rgb(34.460449%, 71.492004%, 51.852417%)" offset="0.417969"/><stop stop-opacity="1" stop-color="rgb(34.162903%, 71.386719%, 51.864624%)" offset="0.421875"/><stop stop-opacity="1" stop-color="rgb(33.865356%, 71.279907%, 51.875305%)" offset="0.425781"/><stop stop-opacity="1" stop-color="rgb(33.56781%, 71.174622%, 51.887512%)" offset="0.429688"/><stop stop-opacity="1" stop-color="rgb(33.270264%, 71.069336%, 51.898193%)" offset="0.433594"/><stop stop-opacity="1" stop-color="rgb(32.974243%, 70.96405%, 51.9104%)" offset="0.4375"/><stop stop-opacity="1" stop-color="rgb(32.676697%, 70.857239%, 51.921082%)" offset="0.441406"/><stop stop-opacity="1" stop-color="rgb(32.37915%, 70.751953%, 51.933289%)" offset="0.445312"/><stop stop-opacity="1" stop-color="rgb(32.081604%, 70.646667%, 51.94397%)" offset="0.449219"/><stop stop-opacity="1" stop-color="rgb(31.784058%, 70.541382%, 51.956177%)" offset="0.453125"/><stop stop-opacity="1" stop-color="rgb(31.486511%, 70.43457%, 51.966858%)" offset="0.457031"/><stop stop-opacity="1" stop-color="rgb(31.190491%, 70.329285%, 51.979065%)" offset="0.460938"/><stop stop-opacity="1" stop-color="rgb(30.892944%, 70.223999%, 51.989746%)" offset="0.464844"/><stop stop-opacity="1" stop-color="rgb(30.595398%, 70.118713%, 52.000427%)" offset="0.46875"/><stop stop-opacity="1" stop-color="rgb(30.297852%, 70.011902%, 52.011108%)" offset="0.472656"/><stop stop-opacity="1" stop-color="rgb(30.001831%, 69.906616%, 52.023315%)" offset="0.476562"/><stop stop-opacity="1" stop-color="rgb(29.704285%, 69.801331%, 52.033997%)" offset="0.480469"/><stop stop-opacity="1" stop-color="rgb(29.406738%, 69.696045%, 52.046204%)" offset="0.484375"/><stop stop-opacity="1" stop-color="rgb(29.109192%, 69.589233%, 52.056885%)" offset="0.488281"/><stop stop-opacity="1" stop-color="rgb(28.811646%, 69.483948%, 52.069092%)" offset="0.492188"/><stop stop-opacity="1" stop-color="rgb(28.514099%, 69.378662%, 52.079773%)" offset="0.496094"/><stop stop-opacity="1" stop-color="rgb(28.218079%, 69.273376%, 52.09198%)" offset="0.5"/><stop stop-opacity="1" stop-color="rgb(27.920532%, 69.166565%, 52.102661%)" offset="0.503906"/><stop stop-opacity="1" stop-color="rgb(27.622986%, 69.061279%, 52.114868%)" offset="0.507812"/><stop stop-opacity="1" stop-color="rgb(27.325439%, 68.955994%, 52.125549%)" offset="0.511719"/><stop stop-opacity="1" stop-color="rgb(27.027893%, 68.850708%, 52.137756%)" offset="0.515625"/><stop stop-opacity="1" stop-color="rgb(26.730347%, 68.743896%, 52.148438%)" offset="0.519531"/><stop stop-opacity="1" stop-color="rgb(26.434326%, 68.638611%, 52.160645%)" offset="0.523438"/><stop stop-opacity="1" stop-color="rgb(26.13678%, 68.533325%, 52.171326%)" offset="0.527344"/><stop stop-opacity="1" stop-color="rgb(25.839233%, 68.42804%, 52.183533%)" offset="0.53125"/><stop stop-opacity="1" stop-color="rgb(25.541687%, 68.321228%, 52.194214%)" offset="0.535156"/><stop stop-opacity="1" stop-color="rgb(25.244141%, 68.215942%, 52.206421%)" offset="0.539062"/><stop stop-opacity="1" stop-color="rgb(24.946594%, 68.110657%, 52.217102%)" offset="0.542969"/><stop stop-opacity="1" stop-color="rgb(24.650574%, 68.005371%, 52.229309%)" offset="0.546875"/><stop stop-opacity="1" stop-color="rgb(24.353027%, 67.89856%, 52.23999%)" offset="0.550781"/><stop stop-opacity="1" stop-color="rgb(24.055481%, 67.793274%, 52.252197%)" offset="0.554688"/><stop stop-opacity="1" stop-color="rgb(23.757935%, 67.687988%, 52.262878%)" offset="0.558594"/><stop stop-opacity="1" stop-color="rgb(23.461914%, 67.582703%, 52.275085%)" offset="0.5625"/><stop stop-opacity="1" stop-color="rgb(23.164368%, 67.475891%, 52.285767%)" offset="0.566406"/><stop stop-opacity="1" stop-color="rgb(22.866821%, 67.370605%, 52.297974%)" offset="0.570312"/><stop stop-opacity="1" stop-color="rgb(22.569275%, 67.26532%, 52.308655%)" offset="0.574219"/><stop stop-opacity="1" stop-color="rgb(22.271729%, 67.160034%, 52.320862%)" offset="0.578125"/><stop stop-opacity="1" stop-color="rgb(21.974182%, 67.053223%, 52.331543%)" offset="0.582031"/><stop stop-opacity="1" stop-color="rgb(21.678162%, 66.947937%, 52.342224%)" offset="0.585937"/><stop stop-opacity="1" stop-color="rgb(21.380615%, 66.842651%, 52.352905%)" offset="0.589844"/><stop stop-opacity="1" stop-color="rgb(21.083069%, 66.737366%, 52.365112%)" offset="0.59375"/><stop stop-opacity="1" stop-color="rgb(20.785522%, 66.63208%, 52.375793%)" offset="0.597656"/><stop stop-opacity="1" stop-color="rgb(20.487976%, 66.526794%, 52.388%)" offset="0.601562"/><stop stop-opacity="1" stop-color="rgb(20.19043%, 66.419983%, 52.398682%)" offset="0.605469"/><stop stop-opacity="1" stop-color="rgb(19.894409%, 66.314697%, 52.410889%)" offset="0.609375"/><stop stop-opacity="1" stop-color="rgb(19.596863%, 66.209412%, 52.42157%)" offset="0.613281"/><stop stop-opacity="1" stop-color="rgb(19.299316%, 66.104126%, 52.433777%)" offset="0.617187"/><stop stop-opacity="1" stop-color="rgb(19.00177%, 65.997314%, 52.444458%)" offset="0.621094"/><stop stop-opacity="1" stop-color="rgb(18.704224%, 65.892029%, 52.456665%)" offset="0.625"/><stop stop-opacity="1" stop-color="rgb(18.406677%, 65.786743%, 52.467346%)" offset="0.628906"/><stop stop-opacity="1" stop-color="rgb(18.110657%, 65.681458%, 52.479553%)" offset="0.632813"/><stop stop-opacity="1" stop-color="rgb(17.854309%, 65.589905%, 52.488708%)" offset="0.636719"/><stop stop-opacity="1" stop-color="rgb(17.599487%, 65.499878%, 52.49939%)" offset="0.640625"/><stop stop-opacity="1" stop-color="rgb(17.599487%, 65.499878%, 52.49939%)" offset="0.65625"/><stop stop-opacity="1" stop-color="rgb(17.599487%, 65.499878%, 52.49939%)" offset="0.6875"/><stop stop-opacity="1" stop-color="rgb(17.599487%, 65.499878%, 52.49939%)" offset="0.75"/><stop stop-opacity="1" stop-color="rgb(17.599487%, 65.499878%, 52.49939%)" offset="1"/></linearGradient></defs><g clip-path="url(#3ac3880424)"><path fill="#e6f2d8" d="M 767.875 103.714844 C 741.703125 103.714844 715.417969 113.863281 695.488281 133.761719 L 562.40625 266.871094 L 374.1875 266.871094 C 317.851562 266.871094 271.835938 312.886719 271.835938 369.222656 L 271.835938 557.441406 L 138.753906 690.550781 C 98.925781 730.378906 98.925781 795.464844 138.753906 835.292969 L 271.835938 968.402344 L 271.835938 1156.621094 C 271.835938 1212.953125 317.851562 1258.96875 374.1875 1258.96875 L 562.40625 1258.96875 L 695.488281 1392.050781 C 735.316406 1431.878906 800.40625 1431.878906 840.234375 1392.050781 L 973.316406 1258.96875 L 1161.535156 1258.96875 C 1217.871094 1258.96875 1263.886719 1212.953125 1263.886719 1156.621094 L 1263.886719 968.402344 L 1396.96875 835.292969 C 1436.796875 795.464844 1436.796875 730.378906 1396.96875 690.550781 L 1263.886719 557.441406 L 1263.886719 369.222656 C 1263.886719 312.886719 1217.871094 266.871094 1161.535156 266.871094 L 973.316406 266.871094 L 840.234375 133.761719 C 820.332031 113.863281 794.046875 103.714844 767.875 103.714844 Z M 767.875 103.714844 " fill-opacity="1" fill-rule="nonzero"/></g><g clip-path="url(#6ae852466e)"><g clip-path="url(#154357e0e1)"><path fill="url(#7b2e1654fb)" d="M 144.769531 1385.921875 L 144.769531 145.765625 L 1391.039062 145.765625 L 1391.039062 1385.921875 Z M 144.769531 1385.921875 " fill-rule="nonzero"/></g></g><g clip-path="url(#9bcc0ab39f)"><g clip-path="url(#2510369a20)"><path fill="url(#e6829faea6)" d="M 413.699219 997.679688 L 413.699219 423.390625 L 1139.183594 423.390625 L 1139.183594 997.679688 Z M 413.699219 997.679688 " fill-rule="nonzero"/></g></g><path fill="#139e87" d="M 1032.300781 497.457031 L 1010.007812 513.363281 L 1053.34375 562.628906 L 1066.628906 615.171875 L 1065.460938 670.394531 L 1056.964844 709.566406 L 1031.617188 762.820312 L 992.703125 805.898438 L 956.78125 847.523438 L 883.027344 927.121094 L 842.171875 962.414062 L 800.433594 991.894531 L 740.933594 994.261719 L 695.488281 962.042969 L 653.953125 926.265625 L 619.167969 887.265625 L 580.566406 848.148438 L 514.054688 774.253906 L 493.355469 781.835938 L 524.945312 813.425781 L 526.828125 822.40625 L 566 861.578125 L 563.289062 861.464844 L 641.121094 939.292969 L 638.441406 941.601562 L 751.113281 1055.78125 L 755.1875 1046.175781 L 765.425781 1048.257812 L 748.117188 1087.882812 L 720.605469 1119.074219 L 886.988281 1285.453125 L 950.308594 1222.136719 C 953.84375 1218.601562 958.632812 1216.632812 963.621094 1216.632812 L 1161.535156 1216.632812 C 1195.207031 1216.632812 1221.691406 1190.117188 1221.691406 1156.476562 L 1221.691406 958.566406 C 1221.691406 953.578125 1223.6875 948.789062 1227.195312 945.253906 L 1353.605469 818.84375 Z M 1032.300781 497.457031 " fill-opacity="1" fill-rule="nonzero"/><path fill="#ffffff" d="M 616.402344 450.53125 C 604.058594 450.53125 594.050781 460.535156 594.050781 472.882812 C 594.050781 485.226562 604.058594 495.234375 616.402344 495.234375 C 628.75 495.234375 638.753906 485.226562 638.753906 472.882812 C 638.753906 460.535156 628.75 450.53125 616.402344 450.53125 Z M 919.347656 450.53125 C 907.003906 450.53125 896.996094 460.535156 896.996094 472.882812 C 896.996094 485.226562 907.003906 495.234375 919.347656 495.234375 C 931.691406 495.234375 941.699219 485.226562 941.699219 472.882812 C 941.699219 460.535156 931.691406 450.53125 919.347656 450.53125 Z M 562.292969 460.449219 C 549.949219 460.449219 539.941406 470.457031 539.941406 482.800781 C 539.941406 495.148438 549.949219 505.152344 562.292969 505.152344 C 574.636719 505.152344 584.644531 495.148438 584.644531 482.800781 C 584.644531 470.457031 574.636719 460.449219 562.292969 460.449219 Z M 973.457031 460.449219 C 961.113281 460.449219 951.105469 470.457031 951.105469 482.800781 C 951.105469 495.148438 961.113281 505.152344 973.457031 505.152344 C 985.804688 505.152344 995.808594 495.148438 995.808594 482.800781 C 995.808594 470.457031 985.804688 460.449219 973.457031 460.449219 Z M 670.6875 465.042969 C 658.339844 465.042969 648.335938 475.046875 648.335938 487.390625 C 648.335938 499.738281 658.339844 509.742188 670.6875 509.742188 C 683.03125 509.742188 693.039062 499.738281 693.039062 487.390625 C 693.039062 475.046875 683.03125 465.042969 670.6875 465.042969 Z M 865.066406 465.042969 C 852.71875 465.042969 842.714844 475.046875 842.714844 487.390625 C 842.714844 499.738281 852.71875 509.742188 865.066406 509.742188 C 877.410156 509.742188 887.417969 499.738281 887.417969 487.390625 C 887.417969 475.046875 877.410156 465.042969 865.066406 465.042969 Z M 723.199219 486.878906 C 710.855469 486.878906 700.847656 496.886719 700.847656 509.230469 C 700.847656 521.574219 710.855469 531.582031 723.199219 531.582031 C 735.546875 531.582031 745.550781 521.574219 745.550781 509.230469 C 745.550781 496.886719 735.546875 486.878906 723.199219 486.878906 Z M 812.550781 486.878906 C 800.207031 486.878906 790.199219 496.886719 790.199219 509.230469 C 790.199219 521.574219 800.207031 531.582031 812.550781 531.582031 C 824.894531 531.582031 834.902344 521.574219 834.902344 509.230469 C 834.902344 496.886719 824.894531 486.878906 812.550781 486.878906 Z M 517.648438 492.382812 C 505.300781 492.382812 495.296875 502.386719 495.296875 514.734375 C 495.296875 527.078125 505.300781 537.085938 517.648438 537.085938 C 529.992188 537.085938 540 527.078125 540 514.734375 C 540 502.386719 529.992188 492.382812 517.648438 492.382812 Z M 1018.132812 492.382812 C 1005.789062 492.382812 995.78125 502.386719 995.78125 514.734375 C 995.78125 527.078125 1005.789062 537.085938 1018.132812 537.085938 C 1030.476562 537.085938 1040.484375 527.078125 1040.484375 514.734375 C 1040.457031 502.386719 1030.449219 492.382812 1018.132812 492.382812 Z M 768.757812 520.832031 C 756.414062 520.832031 746.40625 530.839844 746.40625 543.183594 C 746.40625 555.53125 756.414062 565.535156 768.757812 565.535156 C 781.105469 565.535156 791.109375 555.53125 791.109375 543.183594 C 791.082031 530.839844 781.105469 520.832031 768.757812 520.832031 Z M 485.203125 537.824219 C 472.859375 537.824219 462.851562 547.832031 462.851562 560.175781 C 462.851562 572.519531 472.859375 582.527344 485.203125 582.527344 C 497.546875 582.527344 507.554688 572.519531 507.554688 560.175781 C 507.554688 547.832031 497.546875 537.824219 485.203125 537.824219 Z M 1050.578125 537.824219 C 1038.234375 537.824219 1028.226562 547.832031 1028.226562 560.175781 C 1028.226562 572.519531 1038.234375 582.527344 1050.578125 582.527344 C 1062.921875 582.527344 1072.929688 572.519531 1072.929688 560.175781 C 1072.898438 547.832031 1062.894531 537.824219 1050.578125 537.824219 Z M 470.464844 590.28125 C 458.117188 590.28125 448.113281 600.289062 448.113281 612.632812 C 448.113281 624.976562 458.117188 634.984375 470.464844 634.984375 C 482.808594 634.984375 492.816406 624.976562 492.816406 612.632812 C 492.816406 600.289062 482.808594 590.28125 470.464844 590.28125 Z M 1065.289062 590.28125 C 1052.945312 590.28125 1042.9375 600.289062 1042.9375 612.632812 C 1042.9375 624.976562 1052.945312 634.984375 1065.289062 634.984375 C 1077.632812 634.984375 1087.640625 624.976562 1087.640625 612.632812 C 1087.640625 600.289062 1077.632812 590.28125 1065.289062 590.28125 Z M 469.039062 643.425781 C 456.691406 643.425781 446.6875 653.429688 446.6875 665.773438 C 446.6875 678.121094 456.691406 688.125 469.039062 688.125 C 481.382812 688.125 491.390625 678.121094 491.390625 665.773438 C 491.390625 653.429688 481.382812 643.425781 469.039062 643.425781 Z M 1066.742188 643.425781 C 1054.398438 643.425781 1044.390625 653.429688 1044.390625 665.773438 C 1044.390625 678.121094 1054.398438 688.125 1066.742188 688.125 C 1079.085938 688.125 1089.09375 678.121094 1089.09375 665.773438 C 1089.066406 653.429688 1079.058594 643.425781 1066.742188 643.425781 Z M 480.953125 696.792969 C 468.609375 696.792969 458.601562 706.800781 458.601562 719.144531 C 458.601562 731.488281 468.609375 741.496094 480.953125 741.496094 C 493.300781 741.496094 503.304688 731.488281 503.304688 719.144531 C 503.304688 706.800781 493.300781 696.792969 480.953125 696.792969 Z M 1054.796875 696.792969 C 1042.453125 696.792969 1032.445312 706.800781 1032.445312 719.144531 C 1032.445312 731.488281 1042.453125 741.496094 1054.796875 741.496094 C 1067.140625 741.496094 1077.148438 731.488281 1077.148438 719.144531 C 1077.148438 706.800781 1067.140625 696.792969 1054.796875 696.792969 Z M 508.011719 742.777344 C 495.664062 742.777344 485.660156 752.785156 485.660156 765.128906 C 485.660156 777.476562 495.664062 787.480469 508.011719 787.480469 C 520.355469 787.480469 530.363281 777.476562 530.363281 765.128906 C 530.363281 752.785156 520.355469 742.777344 508.011719 742.777344 Z M 1027.742188 742.777344 C 1015.394531 742.777344 1005.390625 752.785156 1005.390625 765.128906 C 1005.390625 777.476562 1015.394531 787.480469 1027.742188 787.480469 C 1040.085938 787.480469 1050.09375 777.476562 1050.09375 765.128906 C 1050.09375 752.785156 1040.085938 742.777344 1027.742188 742.777344 Z M 542.847656 784.746094 C 530.503906 784.746094 520.496094 794.75 520.496094 807.097656 C 520.496094 819.441406 530.503906 829.449219 542.847656 829.449219 C 555.195312 829.449219 565.199219 819.441406 565.199219 807.097656 C 565.199219 794.75 555.195312 784.746094 542.847656 784.746094 Z M 992.929688 784.746094 C 980.585938 784.746094 970.578125 794.75 970.578125 807.097656 C 970.578125 819.441406 980.585938 829.449219 992.929688 829.449219 C 1005.273438 829.449219 1015.28125 819.441406 1015.28125 807.097656 C 1015.28125 794.75 1005.273438 784.746094 992.929688 784.746094 Z M 580.996094 825.398438 C 568.648438 825.398438 558.644531 835.40625 558.644531 847.75 C 558.644531 860.09375 568.648438 870.101562 580.996094 870.101562 C 593.339844 870.101562 603.347656 860.09375 603.347656 847.75 C 603.347656 835.40625 593.339844 825.398438 580.996094 825.398438 Z M 954.757812 825.398438 C 942.410156 825.398438 932.40625 835.40625 932.40625 847.75 C 932.40625 860.09375 942.410156 870.101562 954.757812 870.101562 C 967.101562 870.101562 977.109375 860.09375 977.109375 847.75 C 977.109375 835.40625 967.101562 825.398438 954.757812 825.398438 Z M 618.683594 863.886719 C 606.339844 863.886719 596.332031 873.894531 596.332031 886.238281 C 596.332031 898.582031 606.339844 908.589844 618.683594 908.589844 C 631.03125 908.589844 641.035156 898.582031 641.035156 886.238281 C 641.035156 873.894531 631.03125 863.886719 618.683594 863.886719 Z M 917.066406 863.886719 C 904.722656 863.886719 894.714844 873.894531 894.714844 886.238281 C 894.714844 898.582031 904.722656 908.589844 917.066406 908.589844 C 929.410156 908.589844 939.417969 898.582031 939.417969 886.238281 C 939.417969 873.894531 929.410156 863.886719 917.066406 863.886719 Z M 654.519531 904.027344 C 642.175781 904.027344 632.167969 914.035156 632.167969 926.378906 C 632.167969 938.722656 642.175781 948.730469 654.519531 948.730469 C 666.867188 948.730469 676.871094 938.722656 676.871094 926.378906 C 676.871094 914.035156 666.867188 904.027344 654.519531 904.027344 Z M 881.230469 904.027344 C 868.886719 904.027344 858.878906 914.035156 858.878906 926.378906 C 858.878906 938.722656 868.886719 948.730469 881.230469 948.730469 C 893.574219 948.730469 903.582031 938.722656 903.582031 926.378906 C 903.582031 914.035156 893.574219 904.027344 881.230469 904.027344 Z M 695.773438 940.007812 C 683.429688 940.007812 673.421875 950.011719 673.421875 962.359375 C 673.421875 974.703125 683.429688 984.710938 695.773438 984.710938 C 708.121094 984.710938 718.125 974.703125 718.125 962.359375 C 718.125 950.011719 708.121094 940.007812 695.773438 940.007812 Z M 839.976562 940.007812 C 827.632812 940.007812 817.625 950.011719 817.625 962.359375 C 817.625 974.703125 827.632812 984.710938 839.976562 984.710938 C 852.320312 984.710938 862.328125 974.703125 862.328125 962.359375 C 862.328125 950.011719 852.320312 940.007812 839.976562 940.007812 Z M 740.960938 971.054688 C 728.617188 971.054688 718.609375 981.058594 718.609375 993.40625 C 718.609375 1005.75 728.617188 1015.757812 740.960938 1015.757812 C 753.308594 1015.757812 763.3125 1005.75 763.3125 993.40625 C 763.3125 981.058594 753.308594 971.054688 740.960938 971.054688 Z M 794.789062 971.054688 C 782.445312 971.054688 772.4375 981.058594 772.4375 993.40625 C 772.4375 1005.75 782.445312 1015.757812 794.789062 1015.757812 C 807.132812 1015.757812 817.140625 1005.75 817.140625 993.40625 C 817.140625 981.058594 807.132812 971.054688 794.789062 971.054688 Z M 768.617188 1015.957031 C 767.789062 1015.984375 767.019531 1016.410156 766.394531 1017.238281 C 762.714844 1021.972656 761.832031 1026.761719 755.160156 1030.125 C 746.722656 1034.601562 751.226562 1059.03125 749.03125 1069.382812 C 744.46875 1090.734375 728.730469 1101.570312 720.664062 1119.128906 C 724.769531 1123.152344 729.160156 1126.628906 733.722656 1129.566406 C 736.773438 1118.359375 746.464844 1104.105469 751.683594 1095.070312 C 748.0625 1105.105469 740.277344 1122.4375 739.023438 1132.558594 C 748.972656 1139.085938 760.75 1144.875 773.40625 1144.847656 C 778.339844 1144.761719 785.039062 1139.03125 790.054688 1137.492188 C 779.90625 1127.941406 774.804688 1117.789062 772.75 1107.355469 C 770.984375 1096.066406 775.660156 1085.890625 776.257812 1072.234375 C 777.453125 1087.941406 774.148438 1095.269531 777.140625 1105.84375 C 779.765625 1114.769531 784.753906 1122.980469 798.125 1134.46875 C 802.085938 1132.730469 806.050781 1130.648438 810.011719 1128.140625 C 803.285156 1123.722656 797.925781 1116.480469 795.957031 1112.230469 C 800.089844 1116.507812 806.960938 1124.492188 812.949219 1126.199219 C 817.167969 1123.320312 821.359375 1120.015625 825.492188 1116.222656 C 786.71875 1105.617188 804.398438 1051.308594 783.726562 1028.785156 C 776.484375 1027.730469 774.859375 1021.65625 771.070312 1017.210938 C 770.269531 1016.324219 769.445312 1015.925781 768.617188 1015.957031 Z M 768.617188 1015.957031 " fill-opacity="1" fill-rule="nonzero"/></svg>