<svg xmlns="http://www.w3.org/2000/svg" xmlns:xlink="http://www.w3.org/1999/xlink" width="2048" zoomAndPan="magnify" viewBox="0 0 1536 1535.999932" height="2048" preserveAspectRatio="xMidYMid meet" version="1.0"><defs><clipPath id="f9b2b9a8ef"><path d="M 135 130.890625 L 1400 130.890625 L 1400 1396 L 135 1396 Z M 135 130.890625 " clip-rule="nonzero"/></clipPath><clipPath id="9d38394c9d"><path d="M 175 171 L 1360 171 L 1360 1356 L 175 1356 Z M 175 171 " clip-rule="nonzero"/></clipPath><clipPath id="1fea437e13"><path d="M 767.875 171.238281 C 753.113281 171.238281 738.492188 176.785156 727.066406 188.214844 L 592.839844 322.476562 C 589.449219 325.867188 584.855469 327.773438 580.066406 327.773438 L 390.265625 327.773438 C 357.96875 327.773438 332.5625 353.210938 332.5625 385.488281 L 332.5625 575.367188 C 332.5625 580.15625 330.660156 584.75 327.269531 588.140625 L 193.070312 722.347656 C 170.242188 745.179688 170.242188 781.128906 193.070312 803.964844 L 327.296875 938.222656 C 330.6875 941.613281 332.589844 946.210938 332.589844 951 L 332.589844 1140.878906 C 332.589844 1173.152344 358.023438 1198.59375 390.292969 1198.59375 L 580.121094 1198.59375 C 584.910156 1198.59375 589.503906 1200.5 592.894531 1203.890625 L 727.121094 1338.152344 C 749.949219 1360.984375 785.886719 1360.984375 808.714844 1338.152344 L 942.941406 1203.890625 C 946.332031 1200.5 950.925781 1198.59375 955.714844 1198.59375 L 1145.542969 1198.59375 C 1177.8125 1198.59375 1203.246094 1173.152344 1203.246094 1140.878906 L 1203.246094 951 C 1203.246094 946.210938 1205.152344 941.613281 1208.539062 938.222656 L 1342.765625 803.964844 C 1365.59375 781.128906 1365.59375 745.183594 1342.765625 722.347656 L 1208.539062 588.085938 C 1205.152344 584.695312 1203.246094 580.101562 1203.246094 575.308594 L 1203.246094 385.460938 C 1203.246094 353.183594 1177.8125 327.746094 1145.542969 327.746094 L 955.714844 327.746094 C 950.925781 327.746094 946.332031 325.839844 942.941406 322.449219 L 808.714844 188.1875 C 797.257812 176.785156 782.636719 171.238281 767.875 171.238281 Z M 767.875 171.238281 " clip-rule="nonzero"/></clipPath><linearGradient x1="1728.126248" gradientTransform="matrix(3.220664, 0, 0, -3.221488, -5392.570528, -7012.779991)" y1="-2229.12946" x2="2098.360873" gradientUnits="userSpaceOnUse" y2="-2599.36267" id="4e3da293e8"><stop stop-opacity="1" stop-color="rgb(67.498779%, 83.099365%, 50.59967%)" offset="0"/><stop stop-opacity="1" stop-color="rgb(67.498779%, 83.099365%, 50.59967%)" offset="0.125"/><stop stop-opacity="1" stop-color="rgb(67.498779%, 83.099365%, 50.59967%)" offset="0.1875"/><stop stop-opacity="1" stop-color="rgb(67.498779%, 83.099365%, 50.59967%)" offset="0.21875"/><stop stop-opacity="1" stop-color="rgb(67.152405%, 82.975769%, 50.611877%)" offset="0.222656"/><stop stop-opacity="1" stop-color="rgb(66.807556%, 82.853699%, 50.62561%)" offset="0.226562"/><stop stop-opacity="1" stop-color="rgb(66.381836%, 82.701111%, 50.640869%)" offset="0.230469"/><stop stop-opacity="1" stop-color="rgb(65.956116%, 82.550049%, 50.656128%)" offset="0.234375"/><stop stop-opacity="1" stop-color="rgb(65.530396%, 82.398987%, 50.671387%)" offset="0.238281"/><stop stop-opacity="1" stop-color="rgb(65.104675%, 82.247925%, 50.688171%)" offset="0.242187"/><stop stop-opacity="1" stop-color="rgb(64.678955%, 82.096863%, 50.70343%)" offset="0.246094"/><stop stop-opacity="1" stop-color="rgb(64.254761%, 81.945801%, 50.720215%)" offset="0.25"/><stop stop-opacity="1" stop-color="rgb(63.829041%, 81.794739%, 50.735474%)" offset="0.253906"/><stop stop-opacity="1" stop-color="rgb(63.40332%, 81.643677%, 50.752258%)" offset="0.257812"/><stop stop-opacity="1" stop-color="rgb(62.9776%, 81.491089%, 50.767517%)" offset="0.261719"/><stop stop-opacity="1" stop-color="rgb(62.55188%, 81.340027%, 50.784302%)" offset="0.265625"/><stop stop-opacity="1" stop-color="rgb(62.12616%, 81.188965%, 50.799561%)" offset="0.269531"/><stop stop-opacity="1" stop-color="rgb(61.700439%, 81.037903%, 50.816345%)" offset="0.273438"/><stop stop-opacity="1" stop-color="rgb(61.274719%, 80.886841%, 50.831604%)" offset="0.277344"/><stop stop-opacity="1" stop-color="rgb(60.850525%, 80.735779%, 50.846863%)" offset="0.28125"/><stop stop-opacity="1" stop-color="rgb(60.424805%, 80.583191%, 50.862122%)" offset="0.285156"/><stop stop-opacity="1" stop-color="rgb(59.999084%, 80.432129%, 50.878906%)" offset="0.289062"/><stop stop-opacity="1" stop-color="rgb(59.573364%, 80.281067%, 50.894165%)" offset="0.292969"/><stop stop-opacity="1" stop-color="rgb(59.147644%, 80.130005%, 50.91095%)" offset="0.296875"/><stop stop-opacity="1" stop-color="rgb(58.721924%, 79.978943%, 50.926208%)" offset="0.300781"/><stop stop-opacity="1" stop-color="rgb(58.296204%, 79.827881%, 50.942993%)" offset="0.304687"/><stop stop-opacity="1" stop-color="rgb(57.870483%, 79.675293%, 50.958252%)" offset="0.308594"/><stop stop-opacity="1" stop-color="rgb(57.446289%, 79.524231%, 50.975037%)" offset="0.3125"/><stop stop-opacity="1" stop-color="rgb(57.020569%, 79.373169%, 50.990295%)" offset="0.316406"/><stop stop-opacity="1" stop-color="rgb(56.594849%, 79.222107%, 51.00708%)" offset="0.320312"/><stop stop-opacity="1" stop-color="rgb(56.169128%, 79.071045%, 51.022339%)" offset="0.324219"/><stop stop-opacity="1" stop-color="rgb(55.743408%, 78.919983%, 51.037598%)" offset="0.328125"/><stop stop-opacity="1" stop-color="rgb(55.317688%, 78.768921%, 51.052856%)" offset="0.332031"/><stop stop-opacity="1" stop-color="rgb(54.891968%, 78.617859%, 51.069641%)" offset="0.335937"/><stop stop-opacity="1" stop-color="rgb(54.466248%, 78.465271%, 51.0849%)" offset="0.339844"/><stop stop-opacity="1" stop-color="rgb(54.040527%, 78.314209%, 51.101685%)" offset="0.34375"/><stop stop-opacity="1" stop-color="rgb(53.614807%, 78.163147%, 51.116943%)" offset="0.347656"/><stop stop-opacity="1" stop-color="rgb(53.190613%, 78.012085%, 51.133728%)" offset="0.351562"/><stop stop-opacity="1" stop-color="rgb(52.764893%, 77.861023%, 51.148987%)" offset="0.355469"/><stop stop-opacity="1" stop-color="rgb(52.339172%, 77.709961%, 51.165771%)" offset="0.359375"/><stop stop-opacity="1" stop-color="rgb(51.913452%, 77.557373%, 51.18103%)" offset="0.363281"/><stop stop-opacity="1" stop-color="rgb(51.487732%, 77.406311%, 51.197815%)" offset="0.367188"/><stop stop-opacity="1" stop-color="rgb(51.062012%, 77.255249%, 51.213074%)" offset="0.371094"/><stop stop-opacity="1" stop-color="rgb(50.636292%, 77.104187%, 51.228333%)" offset="0.375"/><stop stop-opacity="1" stop-color="rgb(50.210571%, 76.953125%, 51.243591%)" offset="0.378906"/><stop stop-opacity="1" stop-color="rgb(49.786377%, 76.802063%, 51.260376%)" offset="0.382812"/><stop stop-opacity="1" stop-color="rgb(49.360657%, 76.649475%, 51.275635%)" offset="0.386719"/><stop stop-opacity="1" stop-color="rgb(48.934937%, 76.498413%, 51.292419%)" offset="0.390625"/><stop stop-opacity="1" stop-color="rgb(48.509216%, 76.347351%, 51.307678%)" offset="0.394531"/><stop stop-opacity="1" stop-color="rgb(48.083496%, 76.196289%, 51.324463%)" offset="0.398437"/><stop stop-opacity="1" stop-color="rgb(47.657776%, 76.045227%, 51.339722%)" offset="0.402344"/><stop stop-opacity="1" stop-color="rgb(47.232056%, 75.894165%, 51.356506%)" offset="0.40625"/><stop stop-opacity="1" stop-color="rgb(46.806335%, 75.743103%, 51.371765%)" offset="0.410156"/><stop stop-opacity="1" stop-color="rgb(46.380615%, 75.592041%, 51.387024%)" offset="0.414062"/><stop stop-opacity="1" stop-color="rgb(45.954895%, 75.439453%, 51.402283%)" offset="0.417969"/><stop stop-opacity="1" stop-color="rgb(45.530701%, 75.288391%, 51.419067%)" offset="0.421875"/><stop stop-opacity="1" stop-color="rgb(45.10498%, 75.137329%, 51.434326%)" offset="0.425781"/><stop stop-opacity="1" stop-color="rgb(44.67926%, 74.986267%, 51.451111%)" offset="0.429687"/><stop stop-opacity="1" stop-color="rgb(44.25354%, 74.835205%, 51.46637%)" offset="0.433594"/><stop stop-opacity="1" stop-color="rgb(43.82782%, 74.684143%, 51.483154%)" offset="0.4375"/><stop stop-opacity="1" stop-color="rgb(43.4021%, 74.531555%, 51.498413%)" offset="0.441406"/><stop stop-opacity="1" stop-color="rgb(42.976379%, 74.380493%, 51.515198%)" offset="0.445312"/><stop stop-opacity="1" stop-color="rgb(42.550659%, 74.229431%, 51.530457%)" offset="0.449219"/><stop stop-opacity="1" stop-color="rgb(42.126465%, 74.078369%, 51.547241%)" offset="0.453125"/><stop stop-opacity="1" stop-color="rgb(41.700745%, 73.927307%, 51.5625%)" offset="0.457031"/><stop stop-opacity="1" stop-color="rgb(41.275024%, 73.776245%, 51.577759%)" offset="0.460937"/><stop stop-opacity="1" stop-color="rgb(40.849304%, 73.623657%, 51.593018%)" offset="0.464844"/><stop stop-opacity="1" stop-color="rgb(40.423584%, 73.472595%, 51.609802%)" offset="0.46875"/><stop stop-opacity="1" stop-color="rgb(39.997864%, 73.321533%, 51.625061%)" offset="0.472656"/><stop stop-opacity="1" stop-color="rgb(39.572144%, 73.170471%, 51.641846%)" offset="0.476562"/><stop stop-opacity="1" stop-color="rgb(39.146423%, 73.019409%, 51.657104%)" offset="0.480469"/><stop stop-opacity="1" stop-color="rgb(38.720703%, 72.868347%, 51.673889%)" offset="0.484375"/><stop stop-opacity="1" stop-color="rgb(38.294983%, 72.717285%, 51.689148%)" offset="0.488281"/><stop stop-opacity="1" stop-color="rgb(37.870789%, 72.566223%, 51.705933%)" offset="0.492188"/><stop stop-opacity="1" stop-color="rgb(37.445068%, 72.413635%, 51.721191%)" offset="0.496094"/><stop stop-opacity="1" stop-color="rgb(37.019348%, 72.262573%, 51.737976%)" offset="0.5"/><stop stop-opacity="1" stop-color="rgb(36.593628%, 72.111511%, 51.753235%)" offset="0.503906"/><stop stop-opacity="1" stop-color="rgb(36.167908%, 71.960449%, 51.768494%)" offset="0.507812"/><stop stop-opacity="1" stop-color="rgb(35.742188%, 71.809387%, 51.783752%)" offset="0.511719"/><stop stop-opacity="1" stop-color="rgb(35.316467%, 71.658325%, 51.800537%)" offset="0.515625"/><stop stop-opacity="1" stop-color="rgb(34.890747%, 71.505737%, 51.815796%)" offset="0.519531"/><stop stop-opacity="1" stop-color="rgb(34.466553%, 71.354675%, 51.832581%)" offset="0.523437"/><stop stop-opacity="1" stop-color="rgb(34.040833%, 71.203613%, 51.847839%)" offset="0.527344"/><stop stop-opacity="1" stop-color="rgb(33.615112%, 71.052551%, 51.864624%)" offset="0.53125"/><stop stop-opacity="1" stop-color="rgb(33.189392%, 70.901489%, 51.879883%)" offset="0.535156"/><stop stop-opacity="1" stop-color="rgb(32.763672%, 70.750427%, 51.896667%)" offset="0.539062"/><stop stop-opacity="1" stop-color="rgb(32.337952%, 70.597839%, 51.911926%)" offset="0.542969"/><stop stop-opacity="1" stop-color="rgb(31.912231%, 70.446777%, 51.928711%)" offset="0.546875"/><stop stop-opacity="1" stop-color="rgb(31.486511%, 70.295715%, 51.94397%)" offset="0.550781"/><stop stop-opacity="1" stop-color="rgb(31.060791%, 70.144653%, 51.959229%)" offset="0.554688"/><stop stop-opacity="1" stop-color="rgb(30.635071%, 69.993591%, 51.974487%)" offset="0.558594"/><stop stop-opacity="1" stop-color="rgb(30.210876%, 69.842529%, 51.991272%)" offset="0.5625"/><stop stop-opacity="1" stop-color="rgb(29.785156%, 69.691467%, 52.006531%)" offset="0.566406"/><stop stop-opacity="1" stop-color="rgb(29.359436%, 69.540405%, 52.023315%)" offset="0.570312"/><stop stop-opacity="1" stop-color="rgb(28.933716%, 69.387817%, 52.038574%)" offset="0.574219"/><stop stop-opacity="1" stop-color="rgb(28.507996%, 69.236755%, 52.055359%)" offset="0.578125"/><stop stop-opacity="1" stop-color="rgb(28.082275%, 69.085693%, 52.070618%)" offset="0.582031"/><stop stop-opacity="1" stop-color="rgb(27.656555%, 68.934631%, 52.087402%)" offset="0.585937"/><stop stop-opacity="1" stop-color="rgb(27.230835%, 68.783569%, 52.102661%)" offset="0.589844"/><stop stop-opacity="1" stop-color="rgb(26.806641%, 68.632507%, 52.11792%)" offset="0.59375"/><stop stop-opacity="1" stop-color="rgb(26.38092%, 68.479919%, 52.133179%)" offset="0.597656"/><stop stop-opacity="1" stop-color="rgb(25.9552%, 68.328857%, 52.149963%)" offset="0.601562"/><stop stop-opacity="1" stop-color="rgb(25.52948%, 68.177795%, 52.165222%)" offset="0.605469"/><stop stop-opacity="1" stop-color="rgb(25.10376%, 68.026733%, 52.182007%)" offset="0.609375"/><stop stop-opacity="1" stop-color="rgb(24.67804%, 67.875671%, 52.197266%)" offset="0.613281"/><stop stop-opacity="1" stop-color="rgb(24.252319%, 67.724609%, 52.21405%)" offset="0.617188"/><stop stop-opacity="1" stop-color="rgb(23.826599%, 67.572021%, 52.229309%)" offset="0.621094"/><stop stop-opacity="1" stop-color="rgb(23.402405%, 67.420959%, 52.246094%)" offset="0.625"/><stop stop-opacity="1" stop-color="rgb(22.976685%, 67.269897%, 52.261353%)" offset="0.628906"/><stop stop-opacity="1" stop-color="rgb(22.550964%, 67.118835%, 52.278137%)" offset="0.632812"/><stop stop-opacity="1" stop-color="rgb(22.125244%, 66.967773%, 52.293396%)" offset="0.636719"/><stop stop-opacity="1" stop-color="rgb(21.699524%, 66.816711%, 52.308655%)" offset="0.640625"/><stop stop-opacity="1" stop-color="rgb(21.273804%, 66.665649%, 52.323914%)" offset="0.644531"/><stop stop-opacity="1" stop-color="rgb(20.848083%, 66.514587%, 52.340698%)" offset="0.648437"/><stop stop-opacity="1" stop-color="rgb(20.422363%, 66.362%, 52.355957%)" offset="0.652344"/><stop stop-opacity="1" stop-color="rgb(19.996643%, 66.210938%, 52.372742%)" offset="0.65625"/><stop stop-opacity="1" stop-color="rgb(19.570923%, 66.059875%, 52.388%)" offset="0.660156"/><stop stop-opacity="1" stop-color="rgb(19.146729%, 65.908813%, 52.404785%)" offset="0.664062"/><stop stop-opacity="1" stop-color="rgb(18.721008%, 65.757751%, 52.420044%)" offset="0.667969"/><stop stop-opacity="1" stop-color="rgb(18.295288%, 65.606689%, 52.436829%)" offset="0.671875"/><stop stop-opacity="1" stop-color="rgb(17.869568%, 65.454102%, 52.452087%)" offset="0.675781"/><stop stop-opacity="1" stop-color="rgb(17.443848%, 65.30304%, 52.468872%)" offset="0.679687"/><stop stop-opacity="1" stop-color="rgb(17.018127%, 65.151978%, 52.484131%)" offset="0.683594"/><stop stop-opacity="1" stop-color="rgb(16.592407%, 65.000916%, 52.49939%)" offset="0.6875"/><stop stop-opacity="1" stop-color="rgb(16.166687%, 64.849854%, 52.514648%)" offset="0.691406"/><stop stop-opacity="1" stop-color="rgb(15.742493%, 64.698792%, 52.531433%)" offset="0.695312"/><stop stop-opacity="1" stop-color="rgb(15.316772%, 64.546204%, 52.546692%)" offset="0.699219"/><stop stop-opacity="1" stop-color="rgb(14.891052%, 64.395142%, 52.563477%)" offset="0.703125"/><stop stop-opacity="1" stop-color="rgb(14.465332%, 64.24408%, 52.578735%)" offset="0.707031"/><stop stop-opacity="1" stop-color="rgb(14.039612%, 64.093018%, 52.59552%)" offset="0.710938"/><stop stop-opacity="1" stop-color="rgb(13.613892%, 63.941956%, 52.610779%)" offset="0.714844"/><stop stop-opacity="1" stop-color="rgb(13.188171%, 63.790894%, 52.627563%)" offset="0.71875"/><stop stop-opacity="1" stop-color="rgb(12.762451%, 63.639832%, 52.642822%)" offset="0.722656"/><stop stop-opacity="1" stop-color="rgb(12.336731%, 63.48877%, 52.659607%)" offset="0.726562"/><stop stop-opacity="1" stop-color="rgb(11.911011%, 63.336182%, 52.674866%)" offset="0.730469"/><stop stop-opacity="1" stop-color="rgb(11.486816%, 63.18512%, 52.690125%)" offset="0.734375"/><stop stop-opacity="1" stop-color="rgb(11.061096%, 63.034058%, 52.705383%)" offset="0.738281"/><stop stop-opacity="1" stop-color="rgb(10.635376%, 62.882996%, 52.722168%)" offset="0.742187"/><stop stop-opacity="1" stop-color="rgb(10.209656%, 62.731934%, 52.737427%)" offset="0.746094"/><stop stop-opacity="1" stop-color="rgb(9.783936%, 62.580872%, 52.754211%)" offset="0.75"/><stop stop-opacity="1" stop-color="rgb(9.358215%, 62.428284%, 52.76947%)" offset="0.753906"/><stop stop-opacity="1" stop-color="rgb(8.932495%, 62.277222%, 52.786255%)" offset="0.757812"/><stop stop-opacity="1" stop-color="rgb(8.506775%, 62.12616%, 52.801514%)" offset="0.761719"/><stop stop-opacity="1" stop-color="rgb(8.082581%, 61.975098%, 52.818298%)" offset="0.765625"/><stop stop-opacity="1" stop-color="rgb(7.65686%, 61.824036%, 52.833557%)" offset="0.769531"/><stop stop-opacity="1" stop-color="rgb(7.23114%, 61.672974%, 52.848816%)" offset="0.773437"/><stop stop-opacity="1" stop-color="rgb(6.80542%, 61.520386%, 52.864075%)" offset="0.777344"/><stop stop-opacity="1" stop-color="rgb(6.3797%, 61.369324%, 52.880859%)" offset="0.78125"/><stop stop-opacity="1" stop-color="rgb(6.138611%, 61.283875%, 52.890015%)" offset="0.785156"/><stop stop-opacity="1" stop-color="rgb(5.899048%, 61.199951%, 52.89917%)" offset="0.789062"/><stop stop-opacity="1" stop-color="rgb(5.899048%, 61.199951%, 52.89917%)" offset="0.796875"/><stop stop-opacity="1" stop-color="rgb(5.899048%, 61.199951%, 52.89917%)" offset="0.8125"/><stop stop-opacity="1" stop-color="rgb(5.899048%, 61.199951%, 52.89917%)" offset="0.875"/><stop stop-opacity="1" stop-color="rgb(5.899048%, 61.199951%, 52.89917%)" offset="1"/></linearGradient><clipPath id="9f5ac23983"><path d="M 817 539 L 1275 539 L 1275 1009 L 817 1009 Z M 817 539 " clip-rule="nonzero"/></clipPath><clipPath id="b94d41669d"><path d="M 942.859375 539.949219 L 817.625 597.554688 L 817.988281 622.882812 L 1203.191406 1008.183594 L 1203.191406 951 C 1203.191406 946.210938 1205.09375 941.613281 1208.484375 938.222656 L 1274.757812 871.933594 Z M 942.859375 539.949219 " clip-rule="nonzero"/></clipPath><linearGradient x1="2944.440284" gradientTransform="matrix(2.801064, 0, 0, -2.801781, -7419.269639, -15583.669413)" y1="-5750.964525" x2="3109.600381" gradientUnits="userSpaceOnUse" y2="-5916.12444" id="bda6aea3a9"><stop stop-opacity="1" stop-color="rgb(19.198608%, 65.899658%, 52.49939%)" offset="0"/><stop stop-opacity="1" stop-color="rgb(19.052124%, 65.843201%, 52.49939%)" offset="0.25"/><stop stop-opacity="1" stop-color="rgb(18.80188%, 65.748596%, 52.49939%)" offset="0.265625"/><stop stop-opacity="1" stop-color="rgb(18.592834%, 65.66925%, 52.49939%)" offset="0.28125"/><stop stop-opacity="1" stop-color="rgb(18.382263%, 65.589905%, 52.49939%)" offset="0.296875"/><stop stop-opacity="1" stop-color="rgb(18.171692%, 65.510559%, 52.49939%)" offset="0.3125"/><stop stop-opacity="1" stop-color="rgb(17.961121%, 65.431213%, 52.49939%)" offset="0.328125"/><stop stop-opacity="1" stop-color="rgb(17.750549%, 65.350342%, 52.49939%)" offset="0.34375"/><stop stop-opacity="1" stop-color="rgb(17.539978%, 65.270996%, 52.49939%)" offset="0.359375"/><stop stop-opacity="1" stop-color="rgb(17.329407%, 65.19165%, 52.49939%)" offset="0.375"/><stop stop-opacity="1" stop-color="rgb(17.118835%, 65.112305%, 52.49939%)" offset="0.390625"/><stop stop-opacity="1" stop-color="rgb(16.90979%, 65.032959%, 52.49939%)" offset="0.40625"/><stop stop-opacity="1" stop-color="rgb(16.699219%, 64.953613%, 52.49939%)" offset="0.421875"/><stop stop-opacity="1" stop-color="rgb(16.488647%, 64.872742%, 52.49939%)" offset="0.4375"/><stop stop-opacity="1" stop-color="rgb(16.278076%, 64.793396%, 52.49939%)" offset="0.453125"/><stop stop-opacity="1" stop-color="rgb(16.067505%, 64.71405%, 52.49939%)" offset="0.46875"/><stop stop-opacity="1" stop-color="rgb(15.856934%, 64.634705%, 52.49939%)" offset="0.484375"/><stop stop-opacity="1" stop-color="rgb(15.646362%, 64.555359%, 52.49939%)" offset="0.494067"/><stop stop-opacity="1" stop-color="rgb(15.541077%, 64.515686%, 52.49939%)" offset="0.5"/><stop stop-opacity="1" stop-color="rgb(15.435791%, 64.476013%, 52.49939%)" offset="0.505933"/><stop stop-opacity="1" stop-color="rgb(15.332031%, 64.43634%, 52.49939%)" offset="0.515625"/><stop stop-opacity="1" stop-color="rgb(15.226746%, 64.395142%, 52.49939%)" offset="0.53125"/><stop stop-opacity="1" stop-color="rgb(15.016174%, 64.315796%, 52.49939%)" offset="0.546875"/><stop stop-opacity="1" stop-color="rgb(14.805603%, 64.23645%, 52.49939%)" offset="0.5625"/><stop stop-opacity="1" stop-color="rgb(14.595032%, 64.157104%, 52.49939%)" offset="0.578125"/><stop stop-opacity="1" stop-color="rgb(14.38446%, 64.077759%, 52.49939%)" offset="0.59375"/><stop stop-opacity="1" stop-color="rgb(14.173889%, 63.998413%, 52.49939%)" offset="0.609375"/><stop stop-opacity="1" stop-color="rgb(13.963318%, 63.917542%, 52.49939%)" offset="0.625"/><stop stop-opacity="1" stop-color="rgb(13.752747%, 63.838196%, 52.49939%)" offset="0.640625"/><stop stop-opacity="1" stop-color="rgb(13.543701%, 63.75885%, 52.49939%)" offset="0.65625"/><stop stop-opacity="1" stop-color="rgb(13.33313%, 63.679504%, 52.49939%)" offset="0.671875"/><stop stop-opacity="1" stop-color="rgb(13.122559%, 63.600159%, 52.49939%)" offset="0.6875"/><stop stop-opacity="1" stop-color="rgb(12.911987%, 63.520813%, 52.49939%)" offset="0.703125"/><stop stop-opacity="1" stop-color="rgb(12.701416%, 63.439941%, 52.49939%)" offset="0.71875"/><stop stop-opacity="1" stop-color="rgb(12.490845%, 63.360596%, 52.49939%)" offset="0.734375"/><stop stop-opacity="1" stop-color="rgb(12.280273%, 63.28125%, 52.49939%)" offset="0.75"/><stop stop-opacity="1" stop-color="rgb(11.987305%, 63.169861%, 52.49939%)" offset="1"/></linearGradient><clipPath id="1cd9a91e36"><path d="M 706 659 L 1229 659 L 1229 1199 L 706 1199 Z M 706 659 " clip-rule="nonzero"/></clipPath><clipPath id="d60be8ee65"><path d="M 970.140625 659.308594 L 797.597656 669.925781 L 706.476562 770.902344 L 706.839844 796.230469 L 1109.101562 1198.59375 L 1145.515625 1198.59375 C 1177.785156 1198.59375 1203.21875 1173.152344 1203.21875 1140.878906 L 1203.21875 951 C 1203.21875 946.210938 1205.121094 941.613281 1208.511719 938.222656 L 1228.765625 917.96875 Z M 970.140625 659.308594 " clip-rule="nonzero"/></clipPath><linearGradient x1="2912.292978" gradientTransform="matrix(2.801064, 0, 0, -2.801781, -7419.269639, -15583.669413)" y1="-5786.031504" x2="3101.765606" gradientUnits="userSpaceOnUse" y2="-5975.498785" id="414e5032b6"><stop stop-opacity="1" stop-color="rgb(6.698608%, 61.599731%, 52.89917%)" offset="0"/><stop stop-opacity="1" stop-color="rgb(6.698608%, 61.599731%, 52.89917%)" offset="0.25"/><stop stop-opacity="1" stop-color="rgb(6.698608%, 61.599731%, 52.89917%)" offset="0.375"/><stop stop-opacity="1" stop-color="rgb(6.698608%, 61.599731%, 52.89917%)" offset="0.40625"/><stop stop-opacity="1" stop-color="rgb(6.75354%, 61.61499%, 52.894592%)" offset="0.421875"/><stop stop-opacity="1" stop-color="rgb(6.959534%, 61.676025%, 52.877808%)" offset="0.4375"/><stop stop-opacity="1" stop-color="rgb(7.264709%, 61.764526%, 52.854919%)" offset="0.453125"/><stop stop-opacity="1" stop-color="rgb(7.568359%, 61.854553%, 52.830505%)" offset="0.46875"/><stop stop-opacity="1" stop-color="rgb(7.872009%, 61.94458%, 52.807617%)" offset="0.484375"/><stop stop-opacity="1" stop-color="rgb(8.177185%, 62.033081%, 52.783203%)" offset="0.492064"/><stop stop-opacity="1" stop-color="rgb(8.329773%, 62.078857%, 52.770996%)" offset="0.5"/><stop stop-opacity="1" stop-color="rgb(8.480835%, 62.123108%, 52.758789%)" offset="0.507936"/><stop stop-opacity="1" stop-color="rgb(8.633423%, 62.168884%, 52.748108%)" offset="0.515625"/><stop stop-opacity="1" stop-color="rgb(8.786011%, 62.213135%, 52.735901%)" offset="0.53125"/><stop stop-opacity="1" stop-color="rgb(9.089661%, 62.301636%, 52.711487%)" offset="0.546875"/><stop stop-opacity="1" stop-color="rgb(9.394836%, 62.391663%, 52.687073%)" offset="0.5625"/><stop stop-opacity="1" stop-color="rgb(9.698486%, 62.481689%, 52.664185%)" offset="0.578125"/><stop stop-opacity="1" stop-color="rgb(10.003662%, 62.57019%, 52.639771%)" offset="0.59375"/><stop stop-opacity="1" stop-color="rgb(10.307312%, 62.660217%, 52.615356%)" offset="0.609375"/><stop stop-opacity="1" stop-color="rgb(10.612488%, 62.750244%, 52.592468%)" offset="0.625"/><stop stop-opacity="1" stop-color="rgb(10.916138%, 62.838745%, 52.568054%)" offset="0.640625"/><stop stop-opacity="1" stop-color="rgb(11.221313%, 62.928772%, 52.54364%)" offset="0.65625"/><stop stop-opacity="1" stop-color="rgb(11.524963%, 63.018799%, 52.520752%)" offset="0.671875"/><stop stop-opacity="1" stop-color="rgb(11.738586%, 63.08136%, 52.503967%)" offset="0.6875"/><stop stop-opacity="1" stop-color="rgb(11.799622%, 63.09967%, 52.49939%)" offset="0.75"/><stop stop-opacity="1" stop-color="rgb(11.799622%, 63.09967%, 52.49939%)" offset="1"/></linearGradient></defs><g clip-path="url(#f9b2b9a8ef)"><path fill="#e6f2d8" d="M 767.875 130.890625 C 742.777344 130.890625 717.570312 140.613281 698.464844 159.722656 L 570.820312 287.398438 L 390.265625 287.398438 C 336.234375 287.398438 292.085938 331.554688 292.085938 385.601562 L 292.085938 566.175781 L 164.441406 693.851562 C 126.238281 732.070312 126.238281 794.492188 164.441406 832.710938 L 292.085938 960.386719 L 292.085938 1140.960938 C 292.085938 1195.007812 336.234375 1239.164062 390.265625 1239.164062 L 570.792969 1239.164062 L 698.4375 1366.839844 C 736.644531 1405.058594 799.050781 1405.058594 837.257812 1366.839844 L 964.902344 1239.164062 L 1145.433594 1239.164062 C 1199.464844 1239.164062 1243.609375 1195.007812 1243.609375 1140.960938 L 1243.609375 960.386719 L 1371.253906 832.710938 C 1409.460938 794.492188 1409.460938 732.070312 1371.253906 693.851562 L 1243.609375 566.175781 L 1243.609375 385.601562 C 1243.609375 331.554688 1199.464844 287.398438 1145.433594 287.398438 L 964.902344 287.398438 L 837.257812 159.722656 C 818.210938 140.613281 792.972656 130.890625 767.875 130.890625 Z M 767.875 130.890625 " fill-opacity="1" fill-rule="nonzero"/></g><g clip-path="url(#9d38394c9d)"><g clip-path="url(#1fea437e13)"><path fill="url(#4e3da293e8)" d="M 170.242188 1360.984375 L 170.242188 171.238281 L 1365.59375 171.238281 L 1365.59375 1360.984375 Z M 170.242188 1360.984375 " fill-rule="nonzero"/></g></g><g clip-path="url(#9f5ac23983)"><g clip-path="url(#b94d41669d)"><path fill="url(#bda6aea3a9)" d="M 817.625 1008.183594 L 817.625 539.949219 L 1274.757812 539.949219 L 1274.757812 1008.183594 Z M 817.625 1008.183594 " fill-rule="nonzero"/></g></g><g clip-path="url(#1cd9a91e36)"><g clip-path="url(#d60be8ee65)"><path fill="url(#414e5032b6)" d="M 706.476562 1198.59375 L 706.476562 659.308594 L 1228.765625 659.308594 L 1228.765625 1198.59375 Z M 706.476562 1198.59375 " fill-rule="nonzero"/></g></g><path fill="#ffffff" d="M 922.605469 535.355469 C 902.410156 535.441406 875.605469 552.613281 860.59375 552.445312 C 837.148438 552.222656 803.898438 527.398438 776.726562 543.707031 C 778.773438 558.332031 805.296875 585.648438 817.59375 599.601562 C 832.105469 595.371094 844.90625 593.605469 860.789062 593.605469 C 874.960938 593.605469 891.460938 596.097656 904.570312 599.488281 C 915.605469 586.542969 937.171875 561.722656 942.859375 539.949219 C 935.492188 536.589844 928.796875 535.328125 922.605469 535.355469 Z M 922.605469 535.355469 " fill-opacity="1" fill-rule="evenodd"/><path fill="#0f9c87" d="M 458.304688 774.097656 L 458.304688 940.523438 L 832.273438 1314.585938 L 942.914062 1203.917969 C 946.304688 1200.527344 950.898438 1198.621094 955.6875 1198.621094 L 1145.515625 1198.621094 C 1177.785156 1198.621094 1203.21875 1173.179688 1203.21875 1140.90625 L 1203.21875 1025.976562 L 1074.675781 897.402344 C 1074.675781 897.402344 1074.648438 897.375 1074.648438 897.375 C 1074.339844 897.066406 1074.03125 896.785156 1073.695312 896.503906 C 1073.613281 896.421875 1073.5 896.335938 1073.390625 896.253906 C 1073.136719 896.058594 1072.882812 895.859375 1072.605469 895.636719 C 1072.464844 895.523438 1072.324219 895.441406 1072.15625 895.328125 C 1071.902344 895.160156 1071.652344 894.992188 1071.371094 894.824219 C 1071.230469 894.742188 1071.0625 894.628906 1070.894531 894.542969 C 1070.617188 894.375 1070.335938 894.207031 1070.054688 894.066406 C 1069.886719 893.984375 1069.71875 893.898438 1069.578125 893.816406 C 1069.242188 893.648438 1068.878906 893.480469 1068.542969 893.3125 C 1068.402344 893.253906 1068.289062 893.199219 1068.152344 893.144531 C 1067.675781 892.917969 1067.171875 892.722656 1066.636719 892.527344 C 1066.554688 892.5 1066.441406 892.472656 1066.328125 892.414062 C 1065.910156 892.273438 1065.488281 892.105469 1065.070312 891.964844 C 1064.875 891.910156 1064.675781 891.855469 1064.453125 891.769531 C 1064.117188 891.660156 1063.753906 891.574219 1063.390625 891.460938 C 1063.191406 891.40625 1062.96875 891.351562 1062.773438 891.292969 C 1062.410156 891.210938 1062.015625 891.125 1061.652344 891.042969 C 1061.457031 890.984375 1061.230469 890.957031 1061.035156 890.929688 C 1060.644531 890.847656 1060.222656 890.789062 1059.832031 890.734375 C 1059.636719 890.707031 1059.46875 890.679688 1059.269531 890.648438 C 1058.683594 890.566406 1058.09375 890.511719 1057.476562 890.453125 C 1057.421875 890.453125 1057.367188 890.453125 1057.339844 890.453125 C 1056.777344 890.425781 1056.246094 890.398438 1055.6875 890.371094 C 1055.488281 890.371094 1055.265625 890.371094 1055.070312 890.371094 C 1054.675781 890.371094 1054.257812 890.371094 1053.863281 890.398438 C 1053.640625 890.398438 1053.390625 890.425781 1053.164062 890.425781 C 1052.773438 890.453125 1052.378906 890.480469 1051.988281 890.511719 C 1051.679688 890.539062 1051.371094 890.566406 1051.09375 890.59375 C 1051.007812 890.59375 1050.925781 890.621094 1050.839844 890.621094 C 1050.363281 890.679688 1049.886719 890.761719 1049.410156 890.847656 C 1049.300781 890.875 1049.1875 890.902344 1049.101562 890.902344 C 1048.628906 891.015625 1048.121094 891.097656 1047.648438 891.238281 C 1044.480469 892.5 1041.261719 893.816406 1037.984375 895.160156 C 1034.707031 896.503906 1031.34375 897.878906 1027.957031 899.28125 C 1012.660156 905.554688 996.386719 912.28125 980.195312 918.472656 C 978.40625 919.171875 976.582031 919.84375 974.792969 920.515625 C 973 921.1875 971.207031 921.863281 969.414062 922.507812 C 962.046875 925.195312 954.734375 927.746094 947.59375 930.042969 L 900.675781 883.113281 C 900.617188 883.058594 900.535156 883 900.480469 882.917969 C 900.253906 882.691406 900.03125 882.46875 899.777344 882.246094 C 899.667969 882.160156 899.582031 882.046875 899.46875 881.964844 C 899.191406 881.710938 898.882812 881.433594 898.574219 881.179688 C 898.519531 881.152344 898.488281 881.097656 898.433594 881.066406 C 898.433594 881.066406 898.433594 881.066406 898.433594 881.039062 C 898.097656 880.757812 897.734375 880.480469 897.371094 880.199219 C 897.285156 880.113281 897.171875 880.058594 897.089844 879.976562 C 896.808594 879.75 896.53125 879.554688 896.222656 879.332031 C 896.109375 879.246094 895.96875 879.164062 895.828125 879.050781 C 895.519531 878.828125 895.183594 878.601562 894.847656 878.378906 C 894.765625 878.320312 894.707031 878.292969 894.625 878.238281 C 894.597656 878.210938 894.570312 878.210938 894.539062 878.183594 C 894.175781 877.929688 893.785156 877.707031 893.390625 877.480469 C 893.253906 877.398438 893.113281 877.3125 892.972656 877.230469 C 892.664062 877.0625 892.355469 876.894531 892.074219 876.726562 C 891.90625 876.640625 891.769531 876.558594 891.597656 876.472656 C 891.152344 876.25 890.703125 875.996094 890.253906 875.773438 C 882.074219 871.878906 874.007812 867.898438 866.027344 863.835938 C 863.363281 862.492188 860.703125 861.121094 858.042969 859.746094 C 855.382812 858.375 852.75 857 850.117188 855.628906 C 847.484375 854.253906 844.851562 852.882812 842.214844 851.507812 C 836.980469 848.761719 831.742188 846.019531 826.503906 843.273438 C 818.6875 839.152344 810.871094 835.089844 803.058594 831.113281 C 800.453125 829.796875 797.847656 828.476562 795.242188 827.160156 C 792.636719 825.84375 790.03125 824.554688 787.429688 823.296875 C 784.824219 822.007812 782.21875 820.746094 779.585938 819.511719 C 776.980469 818.25 774.347656 817.046875 771.742188 815.8125 C 769.109375 814.609375 766.503906 813.40625 763.871094 812.226562 C 761.238281 811.050781 758.605469 809.902344 755.945312 808.78125 C 754.628906 808.222656 753.28125 807.660156 751.964844 807.101562 C 750.648438 806.539062 749.304688 806.007812 747.988281 805.449219 C 745.328125 804.355469 742.667969 803.320312 739.976562 802.28125 C 738.632812 801.777344 737.289062 801.246094 735.945312 800.769531 C 731.910156 799.257812 727.847656 797.828125 723.789062 796.453125 C 722.414062 796.003906 721.070312 795.558594 719.699219 795.109375 C 718.324219 794.660156 716.953125 794.242188 715.582031 793.820312 C 714.207031 793.398438 712.835938 792.980469 711.464844 792.558594 C 710.089844 792.140625 708.71875 791.746094 707.316406 791.355469 C 705.945312 790.960938 704.542969 790.570312 703.144531 790.207031 C 701.742188 789.84375 700.371094 789.476562 698.96875 789.113281 C 697.570312 788.75 696.167969 788.414062 694.769531 788.078125 C 693.367188 787.742188 691.96875 787.40625 690.539062 787.097656 C 682.050781 785.191406 673.453125 783.648438 664.65625 782.527344 C 663.199219 782.332031 661.714844 782.164062 660.257812 781.996094 C 658.773438 781.828125 657.320312 781.6875 655.832031 781.546875 C 654.347656 781.410156 652.863281 781.269531 651.378906 781.15625 C 649.894531 781.042969 648.382812 780.933594 646.871094 780.847656 C 645.359375 780.765625 643.84375 780.679688 642.332031 780.597656 C 640.820312 780.539062 639.308594 780.484375 637.765625 780.429688 C 634.714844 780.34375 631.632812 780.316406 628.550781 780.34375 C 618.300781 780.429688 607.796875 781.101562 596.984375 782.445312 C 588.691406 783.761719 568.917969 783.171875 566.144531 783.59375 L 566.144531 784.152344 L 545.753906 774.011719 Z M 458.304688 774.097656 " fill-opacity="1" fill-rule="evenodd"/><path fill="#ffffff" d="M 859.808594 612.851562 C 774.824219 612.851562 706.421875 681.300781 706.421875 766.277344 L 706.421875 770.929688 C 776.167969 789.058594 835.605469 828.394531 898.546875 858.316406 C 898.601562 858.34375 898.660156 858.375 898.714844 858.402344 C 916.613281 867.113281 929.777344 883.394531 926.808594 903.144531 C 926.050781 908.1875 923.894531 913.09375 920.816406 917.351562 C 932.074219 914.578125 944.59375 910.792969 957.535156 906.171875 C 975.828125 899.644531 994.929688 891.882812 1013.164062 884.375 L 1013.164062 766.25 C 1013.164062 681.300781 944.765625 612.851562 859.808594 612.851562 Z M 824.375 679.730469 C 831.039062 679.730469 836.195312 681.523438 839.75 685.140625 C 843.308594 688.699219 845.046875 693.742188 845.046875 700.242188 C 845.046875 704.191406 844.316406 707.777344 842.832031 710.972656 C 841.375 714.082031 839.109375 717.921875 836.027344 722.488281 L 834.988281 724.085938 L 820.84375 742.882812 L 842.46875 742.882812 C 842.75 742.882812 842.945312 743.109375 842.945312 743.359375 L 842.945312 757.257812 C 842.945312 757.539062 842.722656 757.734375 842.46875 757.734375 L 803.589844 757.734375 C 803.308594 757.734375 803.113281 757.507812 803.113281 757.257812 L 803.113281 742.519531 C 803.113281 742.4375 803.140625 742.324219 803.199219 742.269531 L 821.714844 718.3125 L 823.113281 716.15625 C 825.355469 712.652344 827.007812 709.765625 828.070312 707.46875 C 829.164062 705.144531 829.722656 702.652344 829.722656 699.960938 C 829.722656 697.578125 829.246094 695.84375 828.40625 694.722656 C 827.566406 693.515625 826.363281 692.957031 824.683594 692.957031 C 822.246094 692.957031 820.675781 693.824219 819.753906 695.703125 C 818.800781 697.605469 818.296875 700.296875 818.296875 703.742188 L 818.296875 707.21875 C 818.296875 707.496094 818.070312 707.695312 817.820312 707.695312 L 803.644531 707.695312 C 803.367188 707.695312 803.171875 707.46875 803.171875 707.21875 L 803.171875 703.464844 C 803.171875 696.261719 804.851562 690.492188 808.269531 686.261719 C 811.683594 681.890625 817.121094 679.761719 824.375 679.730469 Z M 877.875 680.683594 L 912.804688 680.683594 C 913.082031 680.683594 913.28125 680.910156 913.28125 681.160156 L 913.28125 695.226562 C 913.28125 695.507812 913.054688 695.703125 912.804688 695.703125 L 890.171875 695.703125 L 889.5 709.402344 C 890.453125 708.589844 891.65625 707.890625 893.308594 707.359375 C 895.492188 706.601562 897.789062 706.207031 900.226562 706.207031 C 905.550781 706.207031 909.667969 708.421875 912.382812 712.738281 C 915.15625 717.050781 916.5 723.019531 916.5 730.640625 C 916.5 736.691406 915.96875 741.734375 914.875 745.796875 C 913.785156 749.832031 911.683594 753.082031 908.601562 755.464844 C 905.550781 757.816406 901.207031 758.9375 895.632812 758.9375 C 890.453125 758.9375 886.332031 758.015625 883.363281 756.136719 C 880.394531 754.203125 878.351562 751.457031 877.257812 747.984375 C 876.164062 744.539062 875.632812 740.25 875.632812 735.152344 C 875.632812 734.871094 875.859375 734.675781 876.109375 734.675781 L 890.199219 734.675781 C 890.480469 734.675781 890.675781 734.898438 890.675781 735.152344 C 890.675781 739.492188 891.09375 742.660156 891.851562 744.539062 C 892.609375 746.332031 893.953125 747.144531 896.195312 747.144531 C 897.957031 747.144531 899.132812 746.582031 899.917969 745.460938 C 900.730469 744.3125 901.234375 742.660156 901.429688 740.53125 C 901.683594 738.375 901.796875 735.292969 901.796875 731.285156 C 901.796875 726.691406 901.347656 723.273438 900.507812 721.113281 C 900.507812 721.113281 900.507812 721.113281 900.507812 721.085938 C 899.75 718.929688 898.292969 717.949219 895.800781 717.949219 C 894.234375 717.949219 893 718.453125 891.992188 719.515625 C 891.011719 720.582031 890.253906 722.207031 889.777344 724.421875 C 889.722656 724.644531 889.527344 724.8125 889.304688 724.8125 L 876.808594 724.8125 C 876.53125 724.8125 876.304688 724.589844 876.335938 724.308594 L 877.371094 681.105469 C 877.398438 680.878906 877.621094 680.683594 877.875 680.683594 Z M 853.335938 743.050781 L 866.949219 743.050781 C 867.230469 743.050781 867.425781 743.277344 867.425781 743.527344 L 867.425781 755.632812 C 867.371094 760.085938 866.363281 763.617188 864.375 766.140625 C 862.382812 768.6875 859.414062 770.171875 855.550781 770.679688 C 855.296875 770.707031 855.074219 770.539062 855.019531 770.3125 L 853.898438 765.523438 C 853.839844 765.269531 853.980469 765.019531 854.234375 764.933594 C 856.277344 764.34375 857.789062 763.421875 858.769531 762.160156 C 859.667969 761.011719 860.117188 759.5 860.199219 757.707031 L 853.335938 757.707031 C 853.058594 757.707031 852.859375 757.480469 852.859375 757.230469 L 852.859375 743.527344 C 852.859375 743.277344 853.085938 743.050781 853.335938 743.050781 Z M 803.8125 882.75 C 803.8125 882.75 803.8125 882.722656 803.8125 882.75 Z M 803.8125 882.75 C 803.84375 882.804688 804.179688 883.085938 804.207031 883.140625 C 804.011719 882.890625 803.871094 882.75 803.8125 882.75 Z M 879.609375 932.902344 L 879.722656 932.902344 C 879.695312 932.902344 879.695312 932.902344 879.667969 932.902344 C 879.640625 932.902344 879.640625 932.902344 879.609375 932.902344 Z M 879.609375 932.902344 " fill-opacity="1" fill-rule="evenodd"/><path fill="#ffffff" d="M 458.304688 774.097656 L 458.304688 940.523438 L 512.839844 940.523438 L 545.78125 917.464844 L 545.78125 774.097656 Z M 628.550781 780.429688 C 618.300781 780.511719 607.796875 781.183594 596.984375 782.53125 C 588.691406 783.847656 568.917969 783.257812 566.144531 783.679688 L 566.171875 915.027344 C 570.402344 916.453125 592.304688 916.371094 601.519531 919.394531 C 692.050781 950.664062 784.738281 987.957031 875.15625 990.671875 C 927.789062 992.242188 1008.011719 951.503906 1074.257812 908.386719 C 1085.433594 900.175781 1065.070312 886.671875 1047.617188 891.265625 C 997.144531 911.609375 928.238281 942.679688 888.546875 941.558594 C 842.132812 933.992188 785.914062 900.988281 786.28125 889.699219 C 786.753906 874.289062 849.917969 911.300781 881.125 913.597656 C 914.566406 916.257812 915.351562 888.101562 890.226562 875.855469 C 803.058594 834.417969 727.679688 779.617188 628.550781 780.429688 Z M 628.550781 780.429688 " fill-opacity="1" fill-rule="evenodd"/></svg>