<svg xmlns="http://www.w3.org/2000/svg" xmlns:xlink="http://www.w3.org/1999/xlink" width="2048" zoomAndPan="magnify" viewBox="0 0 1536 1535.999932" height="2048" preserveAspectRatio="xMidYMid meet" version="1.0"><defs><clipPath id="3175bdec4c"><path d="M 93.835938 612.300781 L 1442.335938 612.300781 L 1442.335938 923.550781 L 93.835938 923.550781 Z M 93.835938 612.300781 " clip-rule="nonzero"/></clipPath></defs><path fill="#139e87" d="M 114.132812 766.417969 C 148.5 783.070312 177.546875 886.515625 247.335938 886.867188 L 247.691406 900.683594 C 247.691406 909.1875 254.421875 912.023438 257.609375 912.023438 L 327.753906 912.023438 L 1278.242188 914.855469 C 1281.074219 914.855469 1288.160156 912.375 1288.160156 903.875 L 1288.515625 889.703125 C 1357.949219 889.347656 1387 785.902344 1421.71875 769.609375 C 1387 752.957031 1357.949219 649.511719 1288.515625 649.160156 L 1288.160156 635.34375 C 1288.160156 626.839844 1281.074219 624.007812 1278.242188 624.007812 L 327.753906 621.171875 L 257.609375 621.171875 C 254.421875 621.171875 247.691406 623.652344 247.691406 632.152344 L 247.335938 646.324219 C 177.546875 646.679688 148.5 750.125 114.132812 766.417969 Z M 114.132812 766.417969 " fill-opacity="1" fill-rule="evenodd"/><g clip-path="url(#3175bdec4c)"><path stroke-linecap="butt" transform="matrix(0.354263, 0, 0, 0.354263, 93.587378, 612.315407)" fill="none" stroke-linejoin="miter" d="M 57.994904 434.99509 C 155.005347 482.000719 236.997807 774.002375 433.995827 774.994752 L 434.999232 813.9952 C 434.999232 837.999717 453.997753 846.004898 462.995312 846.004898 L 660.996737 846.004898 L 3344.000396 853.999052 C 3351.99455 853.999052 3371.996476 846.997275 3371.996476 823.003785 L 3372.99988 782.999933 C 3568.994497 781.996529 3650.997983 489.994873 3749.000804 444.003675 C 3650.997983 396.998047 3568.994497 104.996391 3372.99988 104.004013 L 3371.996476 65.003565 C 3371.996476 40.999049 3351.99455 33.004894 3344.000396 33.004894 L 660.996737 24.999713 L 462.995312 24.999713 C 453.997753 24.999713 434.999232 32.00149 434.999232 55.99498 L 433.995827 95.998832 C 236.997807 97.002236 155.005347 389.003892 57.994904 434.99509 Z M 57.994904 434.99509 " stroke="#e0bf73" stroke-width="49.516998" stroke-opacity="1" stroke-miterlimit="4"/></g></svg>