<svg xmlns="http://www.w3.org/2000/svg" xmlns:xlink="http://www.w3.org/1999/xlink" width="2048" zoomAndPan="magnify" viewBox="0 0 1536 1535.999932" height="2048" preserveAspectRatio="xMidYMid meet" version="1.0"><path fill="#ffffff" d="M 1389.441406 838.253906 C 1379.402344 922.074219 1352.605469 1005.277344 1307.722656 1083.003906 C 1218.90625 1236.839844 1076.101562 1340.128906 917.039062 1382.746094 C 757.976562 1425.363281 582.667969 1407.328125 428.828125 1318.5 C 411.203125 1308.332031 394.253906 1297.441406 377.96875 1285.910156 C 392.257812 1279.78125 404.46875 1268.5625 412.054688 1253.8125 L 413.652344 1250.707031 C 426.488281 1259.519531 439.753906 1267.910156 453.46875 1275.824219 C 595.523438 1357.835938 757.414062 1374.503906 904.28125 1335.144531 C 1051.160156 1295.796875 1183.023438 1200.421875 1265.046875 1058.363281 C 1298.910156 999.722656 1321.613281 937.691406 1333.859375 874.742188 C 1354.566406 873.097656 1374.023438 862.53125 1386.09375 843.519531 Z M 1389.441406 838.253906 " fill-opacity="1" fill-rule="nonzero"/><path fill="#ffffff" d="M 193.324219 439.605469 C 282.144531 285.765625 424.953125 182.480469 584.007812 139.863281 C 679.582031 114.246094 781.019531 110.558594 880.15625 130.945312 C 858.710938 137.328125 843.046875 153.351562 835.761719 173.199219 C 755.320312 161.566406 673.96875 166.769531 596.765625 187.457031 C 449.890625 226.8125 318.019531 322.183594 236.007812 464.238281 C 188.628906 546.300781 163.058594 634.972656 157.496094 723.550781 C 139.542969 720.6875 121.65625 724.8125 107.578125 734.640625 C 111.65625 634.003906 139.484375 532.855469 193.324219 439.605469 Z M 193.324219 439.605469 " fill-opacity="1" fill-rule="nonzero"/><path fill="#aed581" d="M 214.132812 785.980469 C 230.164062 760.417969 250.375 738.382812 273.503906 720.464844 L 253.738281 658.839844 C 251.050781 650.464844 253.390625 641.304688 261.339844 637.542969 L 316.511719 611.410156 C 324.460938 607.648438 333.03125 611.640625 337.804688 619.015625 L 372.972656 673.359375 C 401.488281 666.828125 431.332031 665.148438 461.265625 668.933594 L 490.847656 611.410156 C 494.871094 603.589844 503.003906 598.777344 511.28125 601.734375 L 568.769531 622.269531 C 577.050781 625.226562 580.296875 634.105469 578.449219 642.699219 L 564.90625 705.929688 C 590.472656 721.96875 612.511719 742.175781 630.433594 765.304688 L 692.042969 745.542969 C 700.417969 742.855469 709.574219 745.203125 713.339844 753.148438 L 739.46875 808.316406 C 743.234375 816.265625 739.246094 824.832031 731.863281 829.613281 L 677.546875 864.761719 C 684.082031 893.289062 685.757812 923.136719 681.964844 953.074219 L 739.46875 982.652344 C 747.289062 986.667969 752.105469 994.804688 749.144531 1003.089844 L 728.613281 1060.582031 C 725.65625 1068.855469 716.777344 1072.101562 708.179688 1070.257812 L 644.945312 1056.703125 C 628.90625 1082.269531 608.699219 1104.304688 585.578125 1122.222656 L 605.339844 1183.855469 C 608.023438 1192.226562 605.683594 1201.375 597.734375 1205.144531 L 542.5625 1231.28125 C 534.621094 1235.039062 526.046875 1231.046875 521.273438 1223.671875 L 486.109375 1169.320312 C 457.59375 1175.859375 427.746094 1177.539062 397.8125 1173.757812 L 368.226562 1231.28125 C 364.207031 1239.101562 356.078125 1243.910156 347.792969 1240.957031 L 290.308594 1220.425781 C 282.023438 1217.460938 278.78125 1208.589844 280.625 1199.988281 L 294.171875 1136.757812 C 268.609375 1120.71875 246.5625 1100.511719 228.640625 1077.390625 L 167.03125 1097.140625 C 158.65625 1099.835938 149.507812 1097.488281 145.742188 1089.542969 L 119.609375 1034.375 C 115.84375 1026.425781 119.828125 1017.859375 127.210938 1013.074219 L 181.53125 977.925781 C 174.992188 949.410156 173.324219 919.554688 177.113281 889.613281 L 119.613281 860.035156 C 111.792969 856.011719 106.972656 847.882812 109.929688 839.59375 L 130.464844 782.113281 C 133.421875 773.832031 142.300781 770.59375 150.894531 772.433594 Z M 275.660156 866.382812 C 306.011719 781.414062 399.527344 737.113281 484.5 767.46875 C 569.46875 797.816406 613.769531 891.339844 583.417969 976.304688 C 553.066406 1061.28125 459.550781 1105.566406 374.578125 1075.21875 C 289.605469 1044.871094 245.308594 951.347656 275.660156 866.382812 Z M 275.660156 866.382812 " fill-opacity="1" fill-rule="evenodd"/><path fill="#139e87" d="M 797.898438 344.277344 C 824.277344 317.777344 854.742188 296.679688 887.601562 281.351562 L 880.597656 201.457031 C 879.640625 190.601562 884.988281 180.179688 895.621094 177.808594 L 969.460938 161.339844 C 980.09375 158.964844 989.351562 166.132812 993.109375 176.363281 L 1020.726562 251.667969 C 1056.984375 251.585938 1093.507812 257.730469 1128.652344 270.507812 L 1180.164062 209.089844 C 1187.167969 200.738281 1198.316406 197.144531 1207.515625 202.992188 L 1271.375 243.554688 C 1280.570312 249.394531 1282.054688 261.015625 1277.46875 270.902344 L 1243.78125 343.613281 C 1270.289062 369.996094 1291.394531 400.464844 1306.71875 433.316406 L 1386.59375 426.3125 C 1397.453125 425.367188 1407.875 430.703125 1410.246094 441.339844 L 1426.714844 515.175781 C 1429.09375 525.816406 1421.929688 535.078125 1411.691406 538.832031 L 1336.414062 566.4375 C 1336.507812 602.695312 1330.34375 639.238281 1317.5625 674.386719 L 1378.960938 725.882812 C 1387.320312 732.886719 1390.914062 744.035156 1385.066406 753.234375 L 1344.503906 817.09375 C 1338.65625 826.292969 1327.039062 827.777344 1317.152344 823.195312 L 1244.433594 789.5 C 1218.054688 816.003906 1187.589844 837.097656 1154.730469 852.421875 L 1161.734375 932.320312 C 1162.691406 943.175781 1157.34375 953.601562 1146.710938 955.96875 L 1072.882812 972.4375 C 1062.234375 974.808594 1052.980469 967.640625 1049.222656 957.417969 L 1021.601562 882.105469 C 985.359375 882.191406 948.824219 876.046875 913.679688 863.265625 L 862.167969 924.6875 C 855.164062 933.03125 844.015625 936.628906 834.816406 930.78125 L 770.957031 890.214844 C 761.765625 884.378906 760.277344 872.761719 764.855469 862.867188 L 798.550781 790.160156 C 772.042969 763.773438 750.9375 733.3125 735.613281 700.453125 L 655.734375 707.457031 C 644.878906 708.414062 634.457031 703.070312 632.082031 692.433594 L 615.613281 618.59375 C 613.242188 607.960938 620.410156 598.691406 630.636719 594.941406 L 705.917969 567.339844 C 705.828125 531.078125 711.988281 494.539062 724.769531 459.386719 L 663.371094 407.886719 C 655.023438 400.882812 651.429688 389.734375 657.265625 380.539062 L 697.835938 316.683594 C 703.675781 307.484375 715.296875 306.003906 725.183594 310.582031 Z M 850.238281 458.316406 C 910.199219 363.929688 1035.363281 336.003906 1129.75 395.964844 C 1224.136719 455.921875 1252.054688 581.082031 1192.09375 675.464844 C 1132.144531 769.851562 1006.976562 797.773438 912.59375 737.816406 C 818.207031 677.859375 790.289062 552.695312 850.238281 458.316406 Z M 850.238281 458.316406 " fill-opacity="1" fill-rule="evenodd"/></svg>